<svg xmlns="http://www.w3.org/2000/svg" width="550.795" height="168.784" viewBox="0 0 550.795 168.784">
  <g id="GTa" transform="translate(0.016)">
    <path id="path0" d="M80.621.144A2.718,2.718,0,0,0,78.95,2.294c0,.446-.116.672-.347.672a1.986,1.986,0,0,0-.746.205,36.564,36.564,0,0,1-4.3.7c-5.322.668-13.2,2.344-13.2,2.808,0,.106-.15.193-.335.193a58.342,58.342,0,0,0-7.8,2.659c-.167.167-.372.233-.457.149s-.226-.044-.314.091a6.555,6.555,0,0,1-1.651.84,70.1,70.1,0,0,0-6.426,3.075c-3.743,2.109-4.717,2.677-4.819,2.8a23.445,23.445,0,0,1-2.881,1.86,10.415,10.415,0,0,0-2.053,1.535,12.968,12.968,0,0,1-1.535,1.148C28.995,23.1,19.2,32.358,19.553,32.877c.041.061-.193.319-.519.576a13.311,13.311,0,0,0-1.606,1.8c-.558.731-1.5,1.946-2.1,2.7a8.522,8.522,0,0,0-1.091,1.571,7.875,7.875,0,0,1-1,1.5A28.537,28.537,0,0,0,10.1,46.3a.248.248,0,0,1-.224.266,38.492,38.492,0,0,0-3.124,6.313c-.078.315-.222.571-.317.571-.253,0-.94,1.754-2.068,5.279a19.916,19.916,0,0,1-1.22,3.247.452.452,0,0,0-.087.516c.078.2.056.368-.047.368-.231,0-1.212,4.032-1.841,7.573A97.316,97.316,0,0,0,.714,97.515c.53,3.84,2.116,11.219,2.465,11.466a12.706,12.706,0,0,1,.834,2.3,38.683,38.683,0,0,0,2.568,6.838,2.3,2.3,0,0,1,.46.907,31.808,31.808,0,0,0,2.827,5.8c.125,0,.291.253.369.562a13.021,13.021,0,0,0,1.151,2.2,14.064,14.064,0,0,1,1.011,1.8,1.781,1.781,0,0,0,.435.631,29.063,29.063,0,0,1,1.688,2.4,18.466,18.466,0,0,0,1.86,2.485,2.074,2.074,0,0,1,.606.772c0,.836,8.507,9.743,12.508,13.1,1.388,1.164,2.834,2.308,3.212,2.542a16.548,16.548,0,0,1,1.607,1.21,65.129,65.129,0,0,0,8.386,5.345,15.924,15.924,0,0,1,2.056,1.144,19.686,19.686,0,0,0,3.705,1.851c.655.257,2.025.866,3.046,1.351a64,64,0,0,0,8.281,2.918,6.639,6.639,0,0,1,1.491.565c.313.421,8.733,2.035,13.769,2.64,5.409.649,20.654.527,20.654-.164a8.245,8.245,0,0,0-2.582-.211c-6.361-.005-17.769-1.319-20.368-2.345-.315-.124-1.709-.526-3.1-.894a68.254,68.254,0,0,1-7.917-2.528,25.522,25.522,0,0,0-2.754-1.219c-1.451-.587-3.071-1.293-3.6-1.571-1.334-.7-5.3-2.773-6.268-3.274a4.841,4.841,0,0,1-1.033-.672,11.687,11.687,0,0,0-2.306-1.494,18.635,18.635,0,0,1-2.607-1.765c-.2-.175-1.236-.947-2.3-1.716s-2.149-1.6-2.41-1.846-1.073-.929-1.8-1.519a107.034,107.034,0,0,1-8.274-8.154c-.359-.474-1.064-1.293-1.568-1.823a80,80,0,0,1-4.958-6.543,20.3,20.3,0,0,1-1.246-2.05,7.761,7.761,0,0,0-.95-1.466,24.53,24.53,0,0,1-1.8-3.109c-.737-1.44-1.486-2.845-1.667-3.123a49.483,49.483,0,0,1-2.448-5.656,5.289,5.289,0,0,0-.627-1.377c-.275-.185-1.727-4.768-2.473-7.814a19.606,19.606,0,0,0-.793-2.754A63.794,63.794,0,0,1,8.37,95.105a113.942,113.942,0,0,1-.346-17.119c.431-4.8,1.341-10.476,1.852-11.566a19.931,19.931,0,0,0,.654-2.18,72.975,72.975,0,0,1,2.418-7.689,22.217,22.217,0,0,0,.913-2.065,49.87,49.87,0,0,1,2.467-5.392,20.711,20.711,0,0,0,1.119-2.065c.537-1.074,1.738-3.116,2.668-4.538a31.807,31.807,0,0,0,1.692-2.754,5.023,5.023,0,0,1,.84-1.08,18.511,18.511,0,0,0,1.611-2.122,14.644,14.644,0,0,1,1.513-1.958,19.508,19.508,0,0,0,1.422-1.666,116.124,116.124,0,0,1,8.479-8.5c.5-.375,1.418-1.17,2.05-1.771a6.2,6.2,0,0,1,1.362-1.089,10.172,10.172,0,0,0,2.342-1.769,22.6,22.6,0,0,1,2.41-1.663c1.2-.757,2.439-1.586,2.754-1.841a21.537,21.537,0,0,1,2.484-1.439,18.645,18.645,0,0,0,2.3-1.32,18.83,18.83,0,0,1,2.565-1.352c1.2-.554,3.144-1.461,4.321-2.014s3.759-1.539,5.738-2.189a37.187,37.187,0,0,0,3.711-1.338,84.454,84.454,0,0,1,10.9-2.514,2.436,2.436,0,0,1,1,.688,2.682,2.682,0,0,0,4.625-1.882c0-2.162-1.363-3.211-3.608-2.776m7.106,6.189a3.458,3.458,0,0,0-1.663.315c0,.12-.387.219-.861.219-2.422,0-14.317,2.374-14.737,2.938a22.25,22.25,0,0,1-2.876,1.057c-2.82.914-12.048,5.241-12.048,5.648a.246.246,0,0,1-.262.224,7.982,7.982,0,0,0-1.663.866c-.771.476-1.67,1-2,1.166a9.749,9.749,0,0,0-1.578,1.2,4.524,4.524,0,0,1-1.217.9,14.591,14.591,0,0,0-2.8,2.1c-.253.229-.976.841-1.607,1.362A87.208,87.208,0,0,0,33.343,36.057,11.678,11.678,0,0,1,32.23,37.5,15.157,15.157,0,0,0,30.8,39.62a16.507,16.507,0,0,1-1.289,1.97,33.509,33.509,0,0,0-2.613,4.633,9.608,9.608,0,0,1-.855,1.5,42.318,42.318,0,0,0-2.394,5.548,10.885,10.885,0,0,1-.664,1.63c-2.94,6.317-3.088,20.8-.252,24.6.094.127.5,1,.9,1.951A27.567,27.567,0,0,0,26.9,87.364a16.361,16.361,0,0,1,1.334,2.092,4.531,4.531,0,0,0,.874,1.082c.481.493,1.333,1.46,1.893,2.148a39.118,39.118,0,0,0,5.02,4.994c.814.679,1.743,1.49,2.065,1.8a62.212,62.212,0,0,0,7.709,5.5,11.54,11.54,0,0,1,1.6,1.034,25.375,25.375,0,0,0,2.982,1.687c1.389.7,2.655,1.391,2.814,1.526a10.467,10.467,0,0,0,1.493.807c2.254,1.049,2.349.633.34-1.487a55.97,55.97,0,0,1-4.991-5.831,17.508,17.508,0,0,0-1.385-1.794,6.518,6.518,0,0,1-.913-1.263A25.1,25.1,0,0,0,45.6,96.343a29.535,29.535,0,0,1-1.57-3.1,33.883,33.883,0,0,0-1.539-3.073c-.321-.233-2.158-5.428-2.922-8.263a6.956,6.956,0,0,0-.562-1.607,67.009,67.009,0,0,1-1.639-8.49c-.8-6.2.337-21.48,1.667-22.491a6.64,6.64,0,0,0,.536-1.491,45.753,45.753,0,0,1,3.006-7.8c.537-1.009,1.391-2.618,1.9-3.573a14.883,14.883,0,0,1,1.517-2.386,2.6,2.6,0,0,0,.6-.854c0-1.453,9.784-11.714,12.234-12.83.34-.154.618-.352.618-.441a16.471,16.471,0,0,1,3.517-2.291,10.2,10.2,0,0,0,1.493-.917,24.032,24.032,0,0,1,4.16-2.065,17.176,17.176,0,0,0,2.119-.894,60.174,60.174,0,0,1,12-3.576,3.8,3.8,0,0,0,1.148-.344,8.694,8.694,0,0,1,1.95-.449c.947-.146,1.929-.308,2.184-.361.343-.072,1.068.511,2.806,2.247,1.29,1.289,2.967,2.963,3.727,3.72a7.634,7.634,0,0,1,1.381,1.619,6.629,6.629,0,0,0,1.3,1.491,13.822,13.822,0,0,1,1.706,1.917,17.314,17.314,0,0,0,1.453,1.835A121.529,121.529,0,0,1,108.7,33.029c.706,1.073,1.455,2.2,1.662,2.5a41.259,41.259,0,0,1,2.557,4.157,5.384,5.384,0,0,0,.771,1.2,16.487,16.487,0,0,1,1.349,2.162l.578,1.153-1.751-.519c-.962-.285-2.171-.676-2.686-.867-1.082-.4-6.054-1.7-9.391-2.458a14.022,14.022,0,0,1-2.41-.673,5.7,5.7,0,0,0-1.493-.438C92.652,38.165,87.51,37.161,85.95,36.92a10.006,10.006,0,0,1-2.065-.461,10.485,10.485,0,0,0-2.123-.453,4.821,4.821,0,0,1-1.893-.489,2.093,2.093,0,0,0-.563-.778A1.8,1.8,0,0,0,76.2,36.02,1.78,1.78,0,0,0,79.287,37.3c.621-.621.3-.642,5.286.343,5.232,1.035,8.671,1.8,9.179,2.042.253.12,3.138.9,6.412,1.723s6.063,1.593,6.2,1.7a5.27,5.27,0,0,0,1.276.474c8.529,2.266,9.283,2.667,10.788,5.736,3.619,7.384,4.215,8.721,3.884,8.721-.483,0-2.578,2.213-3.144,3.323a11.585,11.585,0,0,0-.3,7.356l.5,1.494-.938,1.2c-.516.66-1.479,1.807-2.138,2.549s-1.356,1.567-1.546,1.835a23.059,23.059,0,0,1-1.607,1.772c-.693.706-1.526,1.585-1.849,1.951a115.8,115.8,0,0,1-10.06,8.869A13.823,13.823,0,0,0,99.8,89.515a24.757,24.757,0,0,1-2.432,1.714,13.786,13.786,0,0,0-2.195,1.61.612.612,0,0,1-.413.317,7,7,0,0,0-1.466.79c-.68.436-1.67,1.013-2.2,1.283a7.848,7.848,0,0,0-1.374.873,26.236,26.236,0,0,1-3.353,1.728,27.738,27.738,0,0,0-3.058,1.528,48.035,48.035,0,0,1-6.023,2.408,3.223,3.223,0,0,0-1.319.629c0,.107-.116.124-.256.037a.294.294,0,0,0-.4.065c-.537.812-11.429,2.993-16.653,3.335-.527.034-.943.193-1.007.381-.09.273.45.3,3.42.187a12.294,12.294,0,0,0,3.608-.38c.044-.135.408-.245.808-.245,2.152,0,12.64-2.24,14.444-3.083.408-.19,1.979-.774,3.493-1.3s3.736-1.415,4.935-1.983c4.646-2.2,6.545-3.138,6.655-3.289a16.482,16.482,0,0,1,1.918-1.118,32.256,32.256,0,0,0,3.916-2.345A30.266,30.266,0,0,1,104.4,90.4a4.407,4.407,0,0,0,1.085-.843,16.936,16.936,0,0,1,2.1-1.612,14.366,14.366,0,0,0,1.965-1.531,7.652,7.652,0,0,1,1.2-1.005c1.056-.591,7.324-6.648,10.36-10.01l1.63-1.807,1.232.416a10.675,10.675,0,0,0,2.991.43c2.123.015,1.871-.23,2.608,2.542a17.594,17.594,0,0,0,.793,2.52,90.068,90.068,0,0,1,2.181,9.639c.329,1.767.66,3.368.735,3.557a2.287,2.287,0,0,1,.084.892.845.845,0,0,0,.167.688c.226.143,1,5.957,1.449,10.927.332,3.645.581,12.469.436,15.484l-.114,2.4-3.787,1.888a41.117,41.117,0,0,1-7.343,2.951c-1.957.584-3.734,1.155-3.95,1.27-2.652,1.4-18.551,2.374-26.458,1.618a98.135,98.135,0,0,1-10.868-1.632,21.346,21.346,0,0,0-2.671-.693c-3.776-.811-9.56-2.477-9.784-2.817a.3.3,0,0,0-.4-.065c-.14.087-.255.05-.255-.084a.242.242,0,0,0-.24-.244c-1.853,0-17.1-7.468-19.427-9.519a38.13,38.13,0,0,0-4.465-2.874.2.2,0,0,1-.194-.193,13.661,13.661,0,0,0-2.937-2.331,3.766,3.766,0,0,1-.975-.807c-.436-.443-1.414-1.3-2.173-1.913-2.244-1.8-11.093-10.823-11.665-11.9a13.613,13.613,0,0,0-1.37-1.721,81.58,81.58,0,0,1-5.637-7.641,21.457,21.457,0,0,0-1.337-1.911,3.85,3.85,0,0,1-.536-.746c-.131-.242-.352-.441-.493-.441-.52,0,.409,12.365.945,12.57.091.034.12.37.065.746s0,.683.129.683.3.49.387,1.089c.321,2.218,2.48,10.1,2.846,10.385a20.018,20.018,0,0,1,1.432,3.608,82.226,82.226,0,0,0,5.787,11.146c.68,1.037,1.4,2.193,1.6,2.572a8.369,8.369,0,0,0,1.073,1.457,17.145,17.145,0,0,1,1.472,1.95,16.5,16.5,0,0,0,1.716,2.159,4.605,4.605,0,0,1,.953,1.2,107.429,107.429,0,0,0,9.117,9.046,1.844,1.844,0,0,1,.815.662,11,11,0,0,0,2.028,1.678,27.813,27.813,0,0,1,2.465,1.891,3.24,3.24,0,0,0,.987.723,8.193,8.193,0,0,1,1.57.917,11.223,11.223,0,0,0,1.488.918,1.815,1.815,0,0,1,.585.417,22.01,22.01,0,0,0,2.8,1.637c1.294.671,2.78,1.466,3.3,1.769a53.925,53.925,0,0,0,6.9,2.831c.167,0,.3.091.3.2,0,.352,6.448,2.228,10.441,3.038a7.38,7.38,0,0,1,1.614.457c1.115.839,13.548,1.71,19.513,1.367,4.917-.282,10.718-1.007,11.232-1.4a3.9,3.9,0,0,1,1.147-.336c3.13-.543,10.671-2.746,10.671-3.119,0-.113.149-.207.329-.207a45.056,45.056,0,0,0,7.015-3.013,18.521,18.521,0,0,1,2.013-1.08,66,66,0,0,0,9.336-6.054,3.738,3.738,0,0,1,1.176-.869c.231,0,1.29-.927,4-3.5a61.819,61.819,0,0,0,4.565-5.031,11.23,11.23,0,0,1,1.323-1.658,8.273,8.273,0,0,0,1.225-1.566,11.991,11.991,0,0,1,1.7-2.583,36.689,36.689,0,0,0,2.645-4.475,4.959,4.959,0,0,1,.731-1.164,23.606,23.606,0,0,0,1.475-3.1c.7-1.632,1.517-3.484,1.823-4.116a58.448,58.448,0,0,0,2.553-8.22,10.589,10.589,0,0,1,.54-1.877c.691-.942,1.618-8.756,1.768-14.916.176-7.274-.844-18.433-1.753-19.163a10.378,10.378,0,0,1-.555-1.951,69.054,69.054,0,0,0-2.432-8.262c-.234-.5-.653-1.486-.929-2.18a45.481,45.481,0,0,0-2.521-5.739,8.131,8.131,0,0,1-.891-1.61,41.3,41.3,0,0,0-3.065-5.362,11.981,11.981,0,0,1-.861-1.411,13.24,13.24,0,0,0-1.834-2.631,3.917,3.917,0,0,1-.84-1.089,73.893,73.893,0,0,0-11.2-12.11c-.5-.377-1.163-.924-1.483-1.217a22.977,22.977,0,0,0-2.192-1.585A18.133,18.133,0,0,1,135.52,26.5a4.563,4.563,0,0,0-2.159-1.276c-.661,0-.6.424.094.688.315.12.573.308.573.42a5.8,5.8,0,0,0,1.307,1.21c.719.555,1.895,1.556,2.613,2.225l1.308,1.216-.417,1.882c-.23,1.035-.7,2.812-1.034,3.948s-.672,2.272-.742,2.524a1.317,1.317,0,0,1-.286.574,9.988,9.988,0,0,0-.757,1.835,39.011,39.011,0,0,1-2.576,6.126,5.193,5.193,0,0,0-.682,1.312c-.38,1-1.095,1.14-1.716.341-.063-.081-2.025-.794-4.361-1.585s-4.357-1.524-4.493-1.63a10.539,10.539,0,0,0-1.78-.668c-1.516-.468-1.541-.489-2.249-1.9a9.294,9.294,0,0,0-.891-1.539,24.506,24.506,0,0,1-1.48-2.525,22.308,22.308,0,0,0-1.575-2.638,23.927,23.927,0,0,1-1.629-2.491,29.977,29.977,0,0,0-1.629-2.531c-.149-.15-.841-1.157-1.539-2.238a23.692,23.692,0,0,0-1.706-2.4,10.084,10.084,0,0,1-1.03-1.36c-.761-1.19-4.436-5.845-5.809-7.357a21.458,21.458,0,0,1-1.429-1.721,22.681,22.681,0,0,0-1.683-1.93c-3.434-3.608-5.731-6.13-5.731-6.3,0-1.009,17.7-.021,20.081,1.122.252.12,1.645.533,3.1.916a51.182,51.182,0,0,1,7.43,2.5,27.6,27.6,0,0,0,2.553,1.168c1.261.531,3.482,1.617,4.934,2.412s3.23,1.768,3.953,2.158a12.951,12.951,0,0,1,1.721,1.075c.223.2,1.331.95,2.461,1.665a27.322,27.322,0,0,1,2.633,1.838,20.492,20.492,0,0,0,3.893,2.569c.53,0,.2-.6-.691-1.263-.509-.379-1.461-1.19-2.112-1.8a9.16,9.16,0,0,0-1.644-1.3,13.292,13.292,0,0,1-1.895-1.352,13.392,13.392,0,0,0-1.561-1.168,11.253,11.253,0,0,1-1.433-.884,20.925,20.925,0,0,0-2.167-1.287c-.474-.223-.861-.483-.861-.578a39.976,39.976,0,0,0-5.486-2.758,2.2,2.2,0,0,1-.738-.421,46.243,46.243,0,0,0-7.317-2.834,7.958,7.958,0,0,1-1.867-.73.3.3,0,0,0-.4-.047c-.14.087-.255.059-.255-.059,0-.2-2.878-.967-6.54-1.734-.884-.186-2.949-.505-4.589-.71a32.72,32.72,0,0,1-3.672-.606c-.713-.241-10.9-.446-13.827-.278m179,29.8c.045,21.7.127,28.851.329,28.975a1.554,1.554,0,0,1,.425.79c.821,3.273,8.365,5.555,12,3.628a9.63,9.63,0,0,1,1.484-.485c1.389-.352,1.352-.246.847-2.37-.52-2.182-.317-2-1.829-1.61-4.505,1.172-7.372.2-8.223-2.8-.2-.7-.267-8.055-.267-27.941v-27h-4.825l.059,28.81m71.6,2.344.058,31.153h4.361l.114-4.015.114-4.017.869,1.3a7.624,7.624,0,0,0,1.487,1.7,17.031,17.031,0,0,1,1.655,1.366,19.066,19.066,0,0,0,5.4,3.1,3.043,3.043,0,0,1,1.048.486c.706,1.084,10.591,1.066,12.033-.021a16.12,16.12,0,0,1,1.8-.792c1.74-.684,4.048-2.071,4.048-2.433a.267.267,0,0,1,.286-.235c.816-.01,5.68-5.36,5.68-6.249a3.341,3.341,0,0,1,.609-1.044c2.863-3.752,3.435-14.69,1.088-20.727-1.636-4.2-5.246-8.816-8.351-10.67a15.679,15.679,0,0,1-1.607-1.04c-1.925-2.489-15.42-2.474-17.67.021-.063.07-.874.631-1.8,1.246a27.351,27.351,0,0,0-5.648,5.311l-.584.861V7.326H338.27l.059,31.153M436.035,35.2c0,27.054.072,30.189.69,30.189.106,0,.307.35.449.778A5.86,5.86,0,0,0,439.917,69a3.032,3.032,0,0,1,.957.556c.442.7,7.518.7,8,0a4.787,4.787,0,0,1,1.446-.471c1.516-.332,1.505-.3.947-2.766-.306-1.352-.439-1.622-.746-1.5-2.874,1.132-6.609.892-8.109-.519-1.384-1.3-1.33-.091-1.33-29.819V7.326h-5.048V35.2M226.97,8.723c-2.229.286-4.819.9-4.819,1.143,0,.117-.14.213-.314.213-.943,0-6,2.646-6.41,3.357a.647.647,0,0,1-.482.315c-.548,0-4.306,3.738-5.9,5.871a33.561,33.561,0,0,0-4.66,30.043,11.969,11.969,0,0,0,.876,2.181,31.767,31.767,0,0,1,1.477,2.817,19.084,19.084,0,0,0,1.623,2.9,21.762,21.762,0,0,1,1.406,1.772c.94,1.29,4.741,5.113,5.1,5.126a13.083,13.083,0,0,1,1.732,1.121c2.418,1.725,7.16,3.705,8.876,3.705.3,0,.585.129.638.288.131.388,9.746.416,9.991.028a2.485,2.485,0,0,1,1.2-.43c3.76-.621,8.724-3.411,12.253-6.885l1.632-1.607.062,4.541.062,4.542,2-.067,2-.066.059-14.858.058-14.86H237.3v3.9h14V54.808l-.975,1.071c-2.821,3.1-4.448,4.525-6.619,5.812a15.032,15.032,0,0,0-1.816,1.186,24.462,24.462,0,0,1-5.278,1.959,29.4,29.4,0,0,1-10.327,0c-2.075-.523-5.041-1.665-5.378-2.07a13.916,13.916,0,0,0-1.851-1.285,23.936,23.936,0,0,1-6.119-5.908,6.147,6.147,0,0,0-1.1-1.435c-.257,0-2.036-3.763-2.6-5.5a7.937,7.937,0,0,0-.642-1.612c-1.314-.967-1.319-15-.005-15.824a3.153,3.153,0,0,0,.478-1.151,32.723,32.723,0,0,1,2.736-6.134c.273-.354.961-1.283,1.53-2.065,2.929-4.028,8.22-7.508,12.489-8.216a2.552,2.552,0,0,0,1.187-.414c.213-.337,6.631-.341,7.339-.006a21.579,21.579,0,0,0,2.59.748,20.749,20.749,0,0,1,6.477,2.7,22.715,22.715,0,0,1,5.716,6.439c.314.662.7,1.2.852,1.2a16.354,16.354,0,0,0,3.836-2.41c0-1.008-4.081-6.524-5.633-7.614a17.448,17.448,0,0,1-1.365-1.117A20.008,20.008,0,0,0,241.4,10.4a4.837,4.837,0,0,1-1.362-.591c-.593-.878-9.139-1.588-13.066-1.084M303.3,24.546a22.157,22.157,0,0,0-5.517,1.728,7.123,7.123,0,0,1-1.294.788,21.909,21.909,0,0,0-8.607,9.159c-.442.958-.95,2.006-1.128,2.33-1.442,2.623-1.939,11.278-.869,15.149a33.189,33.189,0,0,0,4.128,8.412c.478.534,1.172,1.345,1.544,1.8a7.529,7.529,0,0,0,1.491,1.354,11.856,11.856,0,0,1,1.535,1.213,19.453,19.453,0,0,0,5.349,2.689c.386.084.7.235.7.333,0,1.06,11.252,1.077,12.737.019a19.057,19.057,0,0,1,1.837-.793c4.375-1.716,7.09-4.24,10.923-10.155,3.046-4.7,3.267-15.581.438-21.48-2.215-4.62-7.96-10.492-10.264-10.492-.163,0-.295-.09-.295-.2,0-1.221-8.683-2.489-12.709-1.856m98.653.132c-1.917.341-5.424,1.409-5.623,1.709a4.377,4.377,0,0,1-1.147.58,30.053,30.053,0,0,0-5.312,3.006c-.3.365.752,2.827,1.209,2.827.112,0,.2.156.2.344,0,.482.591.43,1.081-.1a32.1,32.1,0,0,1,5.742-3c.16,0,.291-.083.291-.183s.492-.354,1.091-.56c8.766-3.024,16.867.476,18.686,8.073.432,1.808.611,7.817.233,7.817-.1,0-.954-.2-1.893-.436-9.048-2.317-20.292-1.516-23.988,1.709a4.777,4.777,0,0,1-1.075.789c-.388.01-2.249,1.943-2.838,2.951a10.185,10.185,0,0,1-.923,1.367c-1.253,1.259-1.132,10.6.138,10.6.1,0,.368.489.595,1.085.576,1.508,3.434,4.321,5.271,5.187l2.294,1.082c2.463,1.161,10.966,1.162,12.38,0a8.225,8.225,0,0,1,1.619-.6,17.952,17.952,0,0,0,5.807-2.965,4.166,4.166,0,0,1,1.013-.812,7.7,7.7,0,0,0,2.257-2.173c.12-.3.194.318.2,1.68.018,2.536.368,3.464,1.589,4.209a3.724,3.724,0,0,1,.913.693,4.892,4.892,0,0,0,1.778.182h1.7v-2.3c0-2.07-.041-2.3-.419-2.3-1.4,0-1.373.212-1.484-14-.085-11.024-.158-13.208-.481-14.573a15.3,15.3,0,0,0-2.454-5.811c-.485-.591-1.152-1.406-1.482-1.813a9.555,9.555,0,0,0-2.017-1.594,12.867,12.867,0,0,1-1.647-1.117c-1.292-1.469-8.872-2.366-13.309-1.572m-38.21,4.574a5.742,5.742,0,0,1,1.377.543,19.565,19.565,0,0,0,1.95,1.238,18.063,18.063,0,0,1,7.236,9,3.056,3.056,0,0,0,.489,1.049c1.2.783,1.19,11.423-.014,12.376A11.6,11.6,0,0,0,374,55.174c-5.166,12.925-23.273,14.379-29.873,2.4l-.688-1.249-.069-8.262L343.3,39.8l.785-1.3c1.037-1.714,4.281-5.7,4.642-5.7a5.132,5.132,0,0,0,.976-.676,15.356,15.356,0,0,1,14.043-2.871m-53.166-.24a21.566,21.566,0,0,1,5.257,2.56c3.952,2.494,7.378,8.315,7.97,13.544.329,2.911-.392,8.77-1.14,9.256a9.332,9.332,0,0,0-.87,1.65c-1.013,2.24-4.88,7.071-5.659,7.071-.039,0-.658.355-1.377.788-4.633,2.79-12.245,2.659-16.23-.28a17.494,17.494,0,0,1-3.975-3.48c-.379-.531-.972-1.289-1.318-1.684a19.343,19.343,0,0,1-2.663-6.474,7.29,7.29,0,0,0-.552-1.913,17.027,17.027,0,0,1,.011-4.858,3.965,3.965,0,0,0,.452-1.567c.923-5.387,4.783-10.8,9.3-13.055a6.55,6.55,0,0,0,1.325-.789c.6-.906,6.962-1.422,9.472-.768M144.707,36.718a13.692,13.692,0,0,0,1.325,1.673,30.891,30.891,0,0,1,2.211,2.936c.775,1.147,1.651,2.407,1.947,2.8a30.4,30.4,0,0,1,1.633,2.784,21.58,21.58,0,0,0,1.25,2.181c.449.329,4.2,9.275,4.693,11.179.2.785.43,1.59.507,1.79.154.4-1.534-.38-4.394-2.032a58.876,58.876,0,0,0-7.34-3.594c-.191,0-.347-.109-.347-.244s-.1-.185-.211-.113a.185.185,0,0,1-.286-.1,34.04,34.04,0,0,0-5.6-2.531,1.909,1.909,0,0,1-.8-.465,3.191,3.191,0,0,0-1.067-.6c-.639-.161-.635-.123-.113-1.183.23-.468.767-1.782,1.194-2.918a14.975,14.975,0,0,1,.934-2.18c.376-.273,2.311-7.222,2.835-10.177.182-1.026.6-.821,1.626.785M412.512,47.371c1.136.2,2.375.456,2.754.567s1.283.368,2.009.57l1.319.368v4.38c0,4.446-.337,6.059-1.435,6.867-.1.072-.872.8-1.723,1.615-3.551,3.411-12.562,5.979-15.742,4.487a11.756,11.756,0,0,0-1.643-.582c-3.163-.84-5.9-4.081-6.545-7.759-1.424-8.087,8.014-12.811,21.005-10.513m-289.5,1.263a16.264,16.264,0,0,1,2.3.907,2.808,2.808,0,0,0,.8.41c1.678.631,5.056,1.959,5.119,2.014a5.25,5.25,0,0,1-1.034,2.155,11.791,11.791,0,0,0-1.161,1.9l-.744,1.45-1.757-.114-1.757-.116-.3-.867a3.958,3.958,0,0,0-.653-1.22,1.182,1.182,0,0,1-.354-.562,53.453,53.453,0,0,0-3.013-6.377.355.355,0,0,1-.2-.311c0-.129.129-.187.288-.129s1.267.446,2.466.861m15.544,6.6a16.1,16.1,0,0,1,1.9,1.009c.063.083,1.329.778,2.814,1.545s2.981,1.593,3.327,1.835c.821.576,2.988,1.9,3.758,2.293A9.691,9.691,0,0,1,151.845,63a4.532,4.532,0,0,0,1.075.778,34.3,34.3,0,0,1,4.562,3.47c.847.723,1.738,1.453,1.981,1.623,1.23.861,1.462,17.068.27,18.663a4.066,4.066,0,0,0-.332,1.148,45.417,45.417,0,0,1-2.992,10.1c-2.383,5.019-2.876,6.009-3.2,6.426-.2.252-.916,1.336-1.6,2.41a22.03,22.03,0,0,1-1.809,2.524,20.468,20.468,0,0,0-1.384,1.659,58.419,58.419,0,0,1-9.225,8.651l-1.377.932-.136-6.711c-.136-6.7-.578-13.494-.891-13.711a5.773,5.773,0,0,1-.324-1.721c-.423-4.313-2.461-15.988-2.883-16.52a13.742,13.742,0,0,1-.669-2.3c-.266-1.136-.783-3.182-1.151-4.545l-.669-2.478.786-.85a8.934,8.934,0,0,0,1.179-11.289c-.364-.558-.346-.617.636-2.056a34.188,34.188,0,0,0,1.86-3.156c1-1.961.759-1.9,3-.812m-10.379,5.436c3.482,1.455,4.474,6.356,1.8,8.895-3.69,3.5-9.316-.95-7.771-6.152a4.467,4.467,0,0,1,5.973-2.743m72.862,28.7v5.163h29.834v66.321h11.7V94.532h29.833V84.205H201.038v5.163m137.239,26.218c0,29.548.107,35.266.644,35.609a2.027,2.027,0,0,1,.379.938c.775,3.723,5.107,7.387,9.528,8.059,3.057.464,11.919-.335,12.967-1.168a12.57,12.57,0,0,1,1.893-.713c1.572-.5,2.288-1.289,1.482-1.626a15.915,15.915,0,0,1-.7-3.061c-.9-5.126-.918-5.2-1.487-5.026a1.446,1.446,0,0,0-.61.324c-.263.39-4.074,1.146-5.724,1.136-3.576-.021-5.955-1.891-6.646-5.223-.175-.847-.252-10.221-.252-30.923V84.205H338.273l0,31.382m181.98-25.874v5.508h-8.49v8.95h8.472l.072,23.006c.081,25.655-.033,23.859,1.7,26.812a13.3,13.3,0,0,0,7.729,5.773c3.042.956,13.527.463,14.367-.676a9,9,0,0,1,1.856-.739c2.82-.914,4.819-1.867,4.819-2.3a9.956,9.956,0,0,0-.438-1.747c-.241-.75-.779-2.6-1.2-4.118s-.788-2.8-.826-2.852a21.039,21.039,0,0,0-3.967,1.61c-.247.344-2.659.892-4.563,1.035-3.554.269-6.225-1.037-7.387-3.612l-.556-1.23-.063-20.482-.063-20.482h14.24v-8.95H531.732V84.205H520.257v5.508M291,94.206c-3.5.406-8.229,1.349-8.49,1.7a16.433,16.433,0,0,1-2.3.9c-2.573.891-5.738,2.3-5.738,2.561,0,.1-.226.253-.5.341a14.217,14.217,0,0,0-1.893.994c-.764.459-1.674.979-2.021,1.157-.8.409-.822,1.18-.065,2.425.307.505,1.1,1.976,1.753,3.27,1.341,2.642,1.351,2.648,2.75,1.574a27.881,27.881,0,0,1,3.077-1.871,24.069,24.069,0,0,0,2.181-1.239c.643-.819,8.529-3.225,10.571-3.225.37,0,.673-.1.673-.23,0-.293,4.677-.308,5.224-.017a13.738,13.738,0,0,0,2.235.558,13.727,13.727,0,0,1,10.7,9.7,3.723,3.723,0,0,0,.461,1.239c.324.216.687,4.377.614,7.021l-.07,2.556-1.491-.443c-.821-.244-1.7-.537-1.951-.654-5.057-2.328-21.517-2.327-26.62,0-.632.289-1.809.774-2.619,1.078-1.688.635-3.463,1.623-3.463,1.929a.153.153,0,0,1-.207.15c-.577-.161-4.168,3.113-5.286,4.818-.642.979-1.268,1.9-1.393,2.056-2.931,3.566-2.2,13.509,1.391,18.824a5.952,5.952,0,0,1,.676,1.17c0,.872,5.76,5.329,7.8,6.041a3.691,3.691,0,0,1,1.078.552c.894.891,7.267,1.84,10.74,1.6,3.792-.262,8.945-1.2,9.293-1.7a7.783,7.783,0,0,1,1.608-.7,22.246,22.246,0,0,0,5.721-2.977,2.985,2.985,0,0,1,1.074-.71,17.709,17.709,0,0,0,2.684-2.36l2.4-2.361.15,2.074c.47,6.439,3.795,8.717,11.44,7.839l1.549-.179v-9.723l-1.089-.4c-2.363-.862-2.353-.781-2.353-18.747,0-18.283-.03-18.56-2.657-24.016a18.883,18.883,0,0,0-1.924-3.294,3.575,3.575,0,0,1-.7-.914,35.226,35.226,0,0,0-3.442-3.323c-1.355-1.124-5.242-3.116-6.083-3.116-.189,0-.343-.09-.343-.2,0-.242-1.959-.8-4.589-1.294A67.252,67.252,0,0,0,291,94.206m107.4.017c-3.035.289-7.343,1.21-7.927,1.695a12.519,12.519,0,0,1-1.844.807,24.217,24.217,0,0,0-5.859,3.237,7.842,7.842,0,0,1-1.515,1c-.35,0-4.392,4.085-5.008,5.062a16.339,16.339,0,0,1-1.348,1.775c-4.483,4.993-7.055,18.123-5.25,26.8.595,2.856,1.632,6.3,1.9,6.3.11,0,.321.388.471.861a27.321,27.321,0,0,0,2.622,4.991,15.516,15.516,0,0,1,1.283,1.707c.965,1.417,4.942,5.522,5.349,5.522a11.9,11.9,0,0,1,2.213,1.618,31.859,31.859,0,0,0,5.146,2.615,14.009,14.009,0,0,1,1.835.789c1.678,1.305,11.774,2.173,16.745,1.438,2.3-.339,5.472-1.125,5.64-1.395a1.73,1.73,0,0,1,.814-.373,38.54,38.54,0,0,0,6.249-2.842c.348-.267,1.362-1.026,2.25-1.684,3.08-2.283,6.371-6.217,7.354-8.79.489-1.281.69-1.137-2.92-2.079a29.309,29.309,0,0,1-3.288-.98,9.661,9.661,0,0,0-2.845-.708c-.317,0-.536.245-.72.8a12.531,12.531,0,0,1-4.475,5.3c-.757.556-1.493,1.107-1.633,1.221a22.167,22.167,0,0,1-6.787,2.634c-7.707,1.783-16.19-1.164-20.724-7.2-.505-.672-1.074-1.388-1.263-1.59-.947-1.009-3.212-6.385-3.212-7.62,0-.238-.1-.434-.213-.434s-.281-.593-.363-1.319a17.377,17.377,0,0,0-.262-1.721c-.1-.381,1.267-.4,26.5-.4h26.608l.143-.716c.392-1.964-.055-10.072-.567-10.261-.114-.041-.207-.3-.207-.574,0-1.311-2.41-8.512-2.965-8.865a8.615,8.615,0,0,1-.935-1.537c-1.59-3.04-7.634-9.487-8.895-9.487a1.922,1.922,0,0,1-.73-.556,24.707,24.707,0,0,0-5.639-2.886,3.079,3.079,0,0,1-1.045-.49c-.658-1.007-10.191-2.082-14.675-1.655m80.666-.018a41.006,41.006,0,0,0-5.852,1.056,10.907,10.907,0,0,0-1.969.668,11.82,11.82,0,0,1-1.721.757,24.649,24.649,0,0,0-4.916,2.512,8.357,8.357,0,0,1-2.14,1.531c-.434,0-4.555,4.326-5.315,5.582-1.373,2.264-1.381,2.233-1.381-4.786v-6.3h-10.1v64.486h11.244l0-19.219c0-21.45-.091-20.088,1.637-23.486.79-1.553,3.972-5.946,4.307-5.946a8.874,8.874,0,0,0,1.538-1.261,9.87,9.87,0,0,1,1.515-1.261,10.879,10.879,0,0,0,1.566-.907,13.058,13.058,0,0,1,2.188-1.166c.434-.142.788-.351.788-.464a5.937,5.937,0,0,1,1.908-.786c7.2-2.2,12.906-.421,15.444,4.807a10.4,10.4,0,0,1,.777,1.893c0,.161.084.293.186.293.219,0,.618,1.48,1.121,4.16.307,1.63.376,5.067.461,22.633l.1,20.712H501.44v-21.7c0-21.532-.07-23.932-.814-27.953a25.263,25.263,0,0,0-1.782-5.94,13.953,13.953,0,0,1-1.067-1.9,15.752,15.752,0,0,0-5.345-5.6,2.949,2.949,0,0,1-1.091-.713c0-.951-8.862-2.182-12.277-1.706M407,103.36a20.808,20.808,0,0,1,6.322,2.623c.253.2,1.264.987,2.244,1.745a15.735,15.735,0,0,1,2.283,2.065c3.181,4.4,4.423,6.969,5.034,10.439a15.032,15.032,0,0,0,.552,2.356c.2.38-.9.4-21.385.4H380.462l.117-.631c.065-.347.242-1.354.4-2.238a6.568,6.568,0,0,1,.441-1.721,5.747,5.747,0,0,0,.573-1.377,28.175,28.175,0,0,1,2.575-5.314,13.756,13.756,0,0,0,1.367-1.579,18.294,18.294,0,0,1,2.637-2.619c.8-.616,1.557-1.235,1.684-1.378,2.2-2.49,11.528-4.032,16.752-2.772M299.087,127.92c3.166.37,6.412.98,6.6,1.238a14.559,14.559,0,0,0,2.363.84l2.25.679-.069,5.163L310.16,141l-.745,1.208c-7.244,11.734-26.035,13.494-31.883,2.985-1.687-3.032-1.933-8.087-.474-9.71.157-.175.749-.982,1.318-1.794a13.506,13.506,0,0,1,5.51-4.08,2.732,2.732,0,0,0,.927-.463c.771-1.152,8.931-1.855,14.273-1.23" transform="translate(0 0.018)" fill="#f8f9fa"/>
    <path id="path1" transform="translate(0.006)" fill="#f8f9fa"/>
    <path id="path2" transform="translate(0.006)" fill="#f8f9fa"/>
    <path id="path3" transform="translate(0.006)" fill="#f8f9fa"/>
    <path id="path4" transform="translate(0.006)" fill="#f8f9fa"/>
  </g>
</svg>
