<svg xmlns="http://www.w3.org/2000/svg" width="562.744" height="168.784" viewBox="0 0 562.744 168.784">
  <g id="GTe" transform="translate(-0.191 -0.063)">
    <path id="path0" d="M105.346.537c-1.408.282-1.83.563-1.83.985a45.675,45.675,0,0,0-.845,5.63c0,.563-1.408,1.548-2.534,1.548a1.486,1.486,0,0,0-.7.282c-.141.141-.282.141-.282,0a3.982,3.982,0,0,0-.845.422c-.422.282-.845.422-.985.282-.141,0-.282,0-.282.141s-.282.282-.563.422C95.212,10.672,90,15.176,90,16.02a2.141,2.141,0,0,1-.563.845c-.7.845-.7,1.126-.282,1.548a13.718,13.718,0,0,1,.7,3.941,1.734,1.734,0,0,1-.985-.282c-1.548-.563-5.63-.141-9.29.845a22.927,22.927,0,0,1-2.534.563c-.141.141-.985.422-1.689.845s-1.83.985-2.674,1.408a11.71,11.71,0,0,0-2.534,1.83,4.212,4.212,0,0,1-1.267.985c-.141,0-.282.141-.282.422,0,.141,0,.282-.141.282-.282-.141-1.548,1.267-1.548,1.548.141,0,0,.141-.141.141a10.769,10.769,0,0,0-2.393,3.66,12.549,12.549,0,0,1-.7,1.408.846.846,0,0,0-.141.563c0,.282-.141.422-.282.282-.563-.282.282.845,1.408,1.971l1.126,1.126-2.674.141-2.815.141V46.7c-.141,0-4.645-2.252-6.193-3.1-.563-.282-.985-.422-1.126-.282a4.627,4.627,0,0,1-1.689.845.436.436,0,0,0-.282.141c-.141.141-.563.422-.7.563-.563.422-.563.422.282,1.126a36.117,36.117,0,0,0,3.66,2.534A7.439,7.439,0,0,1,55.8,49.8c.282.282.422.282.282.141-.141-.282,0-.282.141,0a42.384,42.384,0,0,0,6.615,4.082,8.113,8.113,0,0,1,1.267.7.91.91,0,0,0,.7.282c.141,0,.282,0,.422.282v.282a14.771,14.771,0,0,1-3.237-.985c0-.141-.141-.282-.141-.141s-.422,0-.845-.282-.985-.422-1.126-.282c-.282,0-.422,0-.422-.141s-.141-.282-.282-.141c-.282,0-.422,0-.422-.141a6.711,6.711,0,0,0-1.126-.563c-1.83-.7-1.971-.845-2.534-.985-.422-.141-1.548-.7-2.674-1.267s-2.252-.985-2.252-.985c-.563,0-.282,44.2.141,45.182.141.422.422.845.563.845s.141.141.141.422a.3.3,0,0,0,.282.282c.141,0,.282.282.282.563a47.409,47.409,0,0,0,4.223,5.63,58.527,58.527,0,0,0,4.926,5.067,3.491,3.491,0,0,1,1.267,1.126c.563.563,1.126.985,1.267.845s.282,0,.141.141a.2.2,0,0,0,0,.282,1.067,1.067,0,0,1,.563.282,17.934,17.934,0,0,0,3.519,2.252.491.491,0,0,1,.282.141,4.6,4.6,0,0,0,1.548.985,11.129,11.129,0,0,1,1.548,1.126c0,.141.141.141.141,0a8.37,8.37,0,0,1,.985.422,4.01,4.01,0,0,0,1.126.563,3.856,3.856,0,0,1,.985.563c.422.141,1.408.563,2.252.845.7.282,2.111.845,3.237,1.267a20.794,20.794,0,0,0,3.1.985c.141,0,.282,0,.282.141a4.615,4.615,0,0,0,1.971.563,1.067,1.067,0,0,1,.563.282c1.83.7,10.134,1.971,16.187,2.393s14.92-.282,17.876-1.548a26.956,26.956,0,0,1,4.786-1.408,2.025,2.025,0,0,0,.422-.282c.282-.282.563-.422.7-.282a.436.436,0,0,0,.282-.141,5.763,5.763,0,0,1,1.83-.985,5.763,5.763,0,0,0,1.83-.985.138.138,0,0,1,.141-.141c.282.141,2.111-.985,2.534-1.408l.282-.563c-.141,0-.141-.141,0-.282s.282-.422.141-.422a1.53,1.53,0,0,1,.141-.7l.422-.845a3.729,3.729,0,0,1,.422-1.408c.141-.563.282-1.267.282-1.267a6.1,6.1,0,0,0,.141-.7c.282-.422,1.548-5.208,2.252-8.023.422-1.126.7-2.252.7-2.252.141,0,.141-.282.141-.563,0-.141,0-.422.141-.422s.282-.141.282-.422c.141-.282.563-1.971.985-3.66a24.782,24.782,0,0,0,.985-3.519c.141-.422.985-3.519,2.252-7.882.282-.985.563-1.83.563-1.971s.141-.422.141-.563c.422-1.126.845-2.534.985-2.956.141-1.267,1.126-4.082,1.408-4.082s.141.563-.141,2.111c-.282,1.267-.422,2.534-.563,2.815,0,.563-.422,2.111-.7,3.519,0,.282-.282,1.267-.422,2.252-.281,1.548-1.126,4.926-1.126,5.349a4.684,4.684,0,0,0-.422.845,23.076,23.076,0,0,0-.563,3.378,1.4,1.4,0,0,0-.141.563.436.436,0,0,1-.141.282c0,.141-.141.985-.282,1.83a6.4,6.4,0,0,0-.422,1.548c0,.141-.7,3.1-1.408,6.756-.7,3.519-1.267,6.615-1.408,6.9-.141.563.141.7.845.282.282-.141.422-.282.282-.422,0-.141,0-.282.141-.282a12.023,12.023,0,0,0,2.111-1.83c2.252-2.393,2.674-2.815,2.393-2.956a.491.491,0,0,1,.281-.141c.282,0,.563-.141.563-.422.141-.141.282-.422.563-.7.141-.141.281-.282.141-.282s-.141,0,0-.141.845-1.126,1.689-2.111c.7-1.126,1.548-2.252,1.689-2.674a.933.933,0,0,0,.281-.985c0-.141,0-.422.141-.422s.282-.141.282-.422c0-.141.141-.845.281-1.548a12.547,12.547,0,0,0,.282-1.548,6.2,6.2,0,0,1,.282-1.408c.141-.563.282-1.267.422-1.689.422-2.393,1.971-9.712,2.252-10.134a4.345,4.345,0,0,0,.282-1.548,14.61,14.61,0,0,1,.422-1.689,1.668,1.668,0,0,0,.141-1.126,2.918,2.918,0,0,1,.282-.845c.141-.422.281-1.126.422-1.689a10.868,10.868,0,0,1,.141-1.408,1.64,1.64,0,0,0,.282-.985c.141-1.126.422-1.971.845-4.082.282-.985.7-3.237.985-4.926.422-1.548.7-3.1.845-3.378.281-.282.281-.422.141-.422-.141.141-.141-.141,0-.422a3.344,3.344,0,0,0,.422-1.689l.282-1.126c.141-.141.141-.7.281-1.126.282-1.408.282-1.83.422-1.971s.141-.563.281-.985a57.891,57.891,0,0,1,1.126-5.912c1.267-5.349,1.267-6.334.422-7.178a.754.754,0,0,1-.422-.563,32.177,32.177,0,0,0-4.363-4.926,20.348,20.348,0,0,0-2.534-2.393l-.985-.985c-.7-.563-1.126-.985-1.126-.985a6.223,6.223,0,0,1-1.267-1.126A6.311,6.311,0,0,0,147.854,27c-.141,0-.422-.141-.422-.282,0,0-.563-.563-1.267-1.126a19,19,0,0,1-1.548-1.267.754.754,0,0,0-.563-.422.491.491,0,0,1-.282-.141,10,10,0,0,0-1.83-1.408,8.9,8.9,0,0,1-1.689-1.267.3.3,0,0,0-.282-.282,1.286,1.286,0,0,1-.7-.422c-.281-.282-.563-.422-.7-.282-.141,0-.281,0-.141-.141.141-.282-.422-.7-.985-.7-.141,0-.282-.141-.141-.282s-.281-.422-.563-.422a6.742,6.742,0,0,1-1.548-1.126c-.845-.7-1.971-1.408-2.111-1.267-.141,0-.141,0-.141-.141s-.422-.422-.845-.7c-.422-.141-.845-.422-.845-.563a.3.3,0,0,0-.282-.282c-.282,0-.422,0-.422-.141s0-.282-.141-.141a.754.754,0,0,1-.563-.422c-.141-.141-.282-.422-.563-.422a1.067,1.067,0,0,1-.563-.282,17.959,17.959,0,0,0-3.237-2.111c-.141,0-.282,0-.282-.141-.141-.141-.7-.563-1.267-.985-.7-.422-1.267-.845-1.267-.985a26.179,26.179,0,0,0-3.237-1.83c-.282,0-.282-.141-.282-.141,0-.141-.422-.422-.845-.7a7.883,7.883,0,0,1-2.534-1.548,1.217,1.217,0,0,0-.845-.422.3.3,0,0,1-.282-.282c0-.141-.282-.282-.563-.422s-.7-.422-.985-.563C107.739-.307,107.88-.307,105.346.537M78.885,2.226A2.267,2.267,0,0,0,77.477,4.2c-.141.422-.141.7-.282.7,0,0-1.126.141-2.534.422a52.32,52.32,0,0,0-5.912.845,9.19,9.19,0,0,0-1.548.282,11.464,11.464,0,0,1-1.267.282,1.055,1.055,0,0,1-.7.141A33.273,33.273,0,0,0,59.039,8.7h-.563c-.563-.141-.563,0-.422.141,0,.282,0,.282-.141.141a2.092,2.092,0,0,0-.845.141c-.985.422-3.378,1.408-3.941,1.548-.845.282-4.926,1.971-5.349,2.252a.436.436,0,0,1-.282.141c0-.141-.141-.141-.282,0a26.523,26.523,0,0,1-3.378,1.971,5.86,5.86,0,0,0-1.689.845c0,.141-.422.282-.985.563a40.323,40.323,0,0,0-3.941,2.252.3.3,0,0,1-.282.282,2.141,2.141,0,0,0-.845.563,5.318,5.318,0,0,1-1.689,1.267,8.76,8.76,0,0,0-1.689,1.126c-.985.7-2.252,1.83-2.674,2.111-.141.141-.563.422-.845.7a76.818,76.818,0,0,0-7.882,7.46,62.228,62.228,0,0,0-6.052,7.319,20.908,20.908,0,0,1-1.548,2.111,1.286,1.286,0,0,0-.422.7,2.521,2.521,0,0,1-.7.985,10.926,10.926,0,0,0-.563.985s-.422.845-.845,1.548a8.576,8.576,0,0,0-.985,1.689c0,.141-.282.422-.563.845-.282.282-.563.563-.422.563a.872.872,0,0,1-.282.563c-.141.282-.282.7-.141.7,0,.141,0,.141-.141.141s-.282.141-.141.282c0,.141,0,.282-.141.282s-.141,0-.141.141a.2.2,0,0,1,0,.282,9.065,9.065,0,0,0-1.548,2.815,5.737,5.737,0,0,1-.282.985A11.272,11.272,0,0,0,5.13,58.668a1.549,1.549,0,0,1-.422.845c-.7.985-2.252,6.193-2.956,9.853-.422,2.393-.422,2.534-.563,3.1C.063,78.233-.218,90.619.908,97.516a15.51,15.51,0,0,1,.282,2.534c.141.563.282,1.83.563,2.674.141.845.422,1.689.422,1.83a26.138,26.138,0,0,0,1.548,5.771c.141-.141.141,0,.141.282-.141.141,0,.563.141.845s.282.7.141.845a.3.3,0,0,0,.282.282c.141,0,.141.141.141.282q-.211.422,0,.422a7.3,7.3,0,0,1,.7,1.689,44.721,44.721,0,0,0,2.393,5.63,13.255,13.255,0,0,1,.563,1.408l.563.845a3.5,3.5,0,0,0,.422.985,1.286,1.286,0,0,0,.422.7,2.626,2.626,0,0,0,.422.563,37.916,37.916,0,0,0,2.252,4.082c.141.141.282.563.563.985a1.8,1.8,0,0,0,.7.985c.282.141.422.282.282.422,0,.141,0,.282.141.282a30.141,30.141,0,0,1,1.83,2.674,7.064,7.064,0,0,0,.845,1.126,10.816,10.816,0,0,1,.845.985,9.426,9.426,0,0,0,1.408,1.689c.282.281.845.985,1.548,1.83,1.408,1.689,2.956,3.378,3.378,3.378.141,0,.422.422.845.845a15.082,15.082,0,0,0,3.378,3.378c.7.563,1.83,1.408,2.393,1.971a14.6,14.6,0,0,0,3.66,2.674.3.3,0,0,1,.282.281,6.58,6.58,0,0,0,.845.7,9.925,9.925,0,0,1,1.267.985c.282.282.563.422.7.282.141,0,.282,0,.282.282a.3.3,0,0,0,.282.282,3.927,3.927,0,0,1,1.267.7c.845.563,1.689.985,4.645,2.534.563.422,1.267.7,1.267.845a2.23,2.23,0,0,0,1.689.7c.141,0,.141,0,.141.141s.422.422.845.563,1.408.563,2.393.985a26.2,26.2,0,0,0,3.519,1.408,7.005,7.005,0,0,1,1.971.845c0,.141.141.281.141.141a.517.517,0,0,1,.422.141,8.971,8.971,0,0,0,1.267.282c.422.141.845.281.845.422.141.141.422.141.845.141a1.509,1.509,0,0,1,.845.282,1.641,1.641,0,0,0,.985.281,14.555,14.555,0,0,0,1.689.422c5.208,1.971,21.676,3.378,30.4,2.534,3.237-.282,1.971-.7-1.83-.563a10.875,10.875,0,0,1-2.956-.141c0-.141-.845-.141-1.689-.141-.985,0-2.111-.141-2.393-.141-1.548-.141-3.378-.422-6.334-.845-1.548-.282-3.1-.563-3.378-.563-2.956-.422-9.993-2.674-14.92-4.786a6.1,6.1,0,0,1-.7-.141c-.282-.141-1.126-.422-1.971-.845-.422-.282-1.548-.7-2.393-1.126a5.891,5.891,0,0,1-1.83-1.126c-.282-.141-.422-.282-.563-.141-.141,0-.282-.141-.422-.282a.961.961,0,0,0-.7-.422c-.282,0-.563-.141-.563-.282a.754.754,0,0,0-.563-.422c-.282,0-.563,0-.563-.141-.141-.141-.7-.422-1.408-.845a20.577,20.577,0,0,1-2.111-1.267,4.667,4.667,0,0,0-1.83-1.267c-.563-.422-1.126-.845-1.267-.985l-.141-.141c0,.141-.282,0-.7-.422a4.685,4.685,0,0,0-1.408-.845c-.422-.282-.7-.563-.563-.7a.138.138,0,0,0-.141-.141,2.141,2.141,0,0,1-.845-.563,2.43,2.43,0,0,0-.563-.422c-.141,0-.563-.422-1.126-.985a8.713,8.713,0,0,0-1.548-1.267c-.282-.141-.563-.281-.563-.422.141-.141-.141-.282-.282-.422a7.228,7.228,0,0,1-2.111-1.971s-.985-1.126-2.252-2.393a48.877,48.877,0,0,1-3.8-4.223,30.344,30.344,0,0,0-2.252-2.674c-.282-.422-.7-.845-.845-1.126,0-.282-.141-.422-.282-.422a.3.3,0,0,1-.282-.281.961.961,0,0,0-.422-.7,1.549,1.549,0,0,1-.422-.845.3.3,0,0,0-.282-.282.3.3,0,0,1-.282-.281c0-.282,0-.422-.141-.422s-.422-.563-.7-1.126c-.282-.7-.7-1.126-.845-1.126,0,.141-.141,0-.141-.141a3.927,3.927,0,0,0-.7-1.267c-.282-.563-.845-1.408-1.126-1.971-.141-.563-.422-.985-.563-.985s-.141-.141-.141-.422-.141-.422-.282-.422-.282-.141-.141-.141a3.831,3.831,0,0,0-1.126-2.252c-.141-.141-.141-.282,0-.282a1.089,1.089,0,0,0-.141-.422,74.765,74.765,0,0,1-4.223-11.4,2.449,2.449,0,0,0-.422-.985,5,5,0,0,1-.282-1.408c0-.282-.141-.563-.282-.563a1.055,1.055,0,0,1-.141-.7,5.986,5.986,0,0,0-.282-1.548c-2.534-6.475-2.252-28.291.422-36.174.141-.563.282-.985.141-1.126a.7.7,0,0,1,.141-.422,8.3,8.3,0,0,0,.7-2.111,14.664,14.664,0,0,1,.7-2.252,11.418,11.418,0,0,0,.422-1.548c.282-.563.422-1.267.563-1.267a19.883,19.883,0,0,1,.845-2.111,8.225,8.225,0,0,1,.845-2.252,4.682,4.682,0,0,0,.985-1.971c-.141,0,0-.141.141-.422a3.021,3.021,0,0,0,.563-.985,4.214,4.214,0,0,1,.563-1.126c.141-.282.563-.985.845-1.408a10.018,10.018,0,0,1,1.689-2.815c.141-.282.282-.422.141-.422a7.982,7.982,0,0,1,.845-1.267c.422-.7.985-1.548,1.126-1.83a4.38,4.38,0,0,1,.563-.845,31.339,31.339,0,0,0,2.534-3.519c0-.141.282-.422.563-.7S26.1,35.3,26.806,34.6a95.2,95.2,0,0,1,8.3-8.445c.422-.422,1.267-1.126,1.689-1.548a14.646,14.646,0,0,1,2.674-1.971c.845-.7,2.111-1.548,2.815-2.111.563-.563,1.689-1.267,2.393-1.83.7-.422,1.408-.845,1.408-.985a.2.2,0,0,1,.282,0c.141,0,.282,0,.422-.282a.3.3,0,0,1,.282-.282c.141.141.422,0,.7-.282s.422-.422.422-.282a21.154,21.154,0,0,0,3.237-1.83A2.43,2.43,0,0,1,52,14.331a10.624,10.624,0,0,0,2.111-.985c1.126-.422,2.393-.985,2.815-1.126.422-.282.7-.422.7-.563a.138.138,0,0,1,.141-.141c.141.141.563,0,.845-.141a5.918,5.918,0,0,0,.7-.282c0,.141.282,0,.7-.141a2.059,2.059,0,0,1,.7-.422,3.662,3.662,0,0,0,.985-.422C62.7,9.686,66.78,8.279,67.625,8c.282,0,1.548-.422,3.1-.7a22.053,22.053,0,0,1,3.237-.845A25.979,25.979,0,0,1,77.2,5.886c.422-.141.845,0,.845.141,0,1.689,3.378,1.83,4.363.282,1.689-2.534-.985-5.63-3.519-4.082M107.6,4.619c.422.282,1.267.7,1.689.985s.845.422.985.282c.141,0,.141,0,.141.141s.141.282.422.282a1.075,1.075,0,0,1,.7.282c0,.141.563.422,1.126.7.7.282,1.548.845,2.111,1.126s1.126.7,1.408.845,1.126.7,2.111,1.267a17.814,17.814,0,0,0,1.689.985c0-.141.282,0,.563.282s.7.563.845.7c.282,0,.422.141.563.141a6.811,6.811,0,0,0,1.83,1.267,6.768,6.768,0,0,1,1.689,1.408c0,.141.141.141.282,0s.282,0,.422.141a6.857,6.857,0,0,0,1.408,1.126,11.13,11.13,0,0,1,1.548,1.126c.282.141.985.7,1.548,1.126.7.563,1.689,1.408,2.252,1.83a4.256,4.256,0,0,0,1.267.845,10.248,10.248,0,0,0,.985.845c.563.563.845.845.985.845a34.37,34.37,0,0,1,3.1,2.815,1.655,1.655,0,0,0,.845.7.3.3,0,0,1,.282.282,32.3,32.3,0,0,0,3.8,3.8c.141-.141.281,0,.281.141a6.359,6.359,0,0,0,1.267,1.548,27.563,27.563,0,0,1,2.534,2.956,27.263,27.263,0,0,0,1.971,2.534c1.689,1.689,2.252,2.674,1.971,3.66a35.355,35.355,0,0,1-1.267,5.208,5,5,0,0,0-.282,1.408,7.578,7.578,0,0,1-.141,1.126,1.055,1.055,0,0,0-.141.7c0,.282,0,.563-.141.563a.491.491,0,0,0-.141.282c0,.141-.281,1.83-.7,3.66-.422,1.971-.985,4.363-1.126,5.349-.422,1.83-.422,1.971-.985,1.971-.422,0-.845,0-.985.141-.563,0-2.393.282-5.349.563a158.907,158.907,0,0,1-25.758-.422c-7.6-.845-16.75-2.393-17.313-2.815a1.055,1.055,0,0,0-.7-.141c-.141,0-.422,0-.422-.141s-.282-.282-.845-.282c-.422-.141-.985-.141-1.267-.282-.141,0-1.126-.282-2.111-.422a18.792,18.792,0,0,1-2.393-.7,8.156,8.156,0,0,1-1.83-.563,68.154,68.154,0,0,1-7.6-2.111c-.845-.422-1.689-.7-1.83-.563a.491.491,0,0,1-.141-.282q0-.211-.422,0c-.282,0-.563,0-.563-.141a.3.3,0,0,0-.282-.282,3.58,3.58,0,0,1-.985-.282l-.845-.282c-1.548-.563-5.208-1.83-7.741-2.956l-.845-.282a.754.754,0,0,1-.563-.422c-.7-.282-.282-.282,1.408.141.7.141,1.548.422,1.689.422.282,0,.422,0,.422.141a1.418,1.418,0,0,0,.422.141c.282,0,.7.141.985.141,1.126.282,2.956.7,4.363.985a8.634,8.634,0,0,0,2.252.422c.563.141.985.141,1.126.282.141,0,.7.141,1.408.282.563,0,1.408.282,1.971.282.7.282,7.6,1.548,9.29,1.83.563.141.985.141.985.282s.282.141.563.141c.985.141,2.111.422,2.956.563.422.141.845.282.985.141a1.884,1.884,0,0,1,.7.141c.563.141,2.534.563,4.5.845.422,0,.845.141,1.126.141.282.141,9.712,1.548,13.372,2.111,6.052.845,7.46.985,8.023.985.282,0,.563,0,.563.141s.422.141.985.141a3.5,3.5,0,0,1,1.267.141c.422.282,4.223.563,7.46.563h2.393V59.231l-2.111-.141a74.181,74.181,0,0,1-7.882-.563c-.563-.141-1.689-.141-2.393-.282-.845,0-2.111-.282-3.1-.282-.845-.141-3.519-.563-5.771-.845-5.489-.845-16.187-2.534-16.609-2.674-.141,0-.563-.141-.845-.141-.282-.141-.7-.141-1.126-.282-.282,0-.845-.141-1.126-.141-.282-.141-.845-.141-1.126-.282s-.845-.141-1.267-.282a1.708,1.708,0,0,1-.7-.141,2.464,2.464,0,0,1-.7-.141h-.845c0-.141-.141-.141-1.267-.422-7.741-1.408-15.624-2.956-16.468-3.237a11.789,11.789,0,0,0-1.408-.282c-.141.141-.282,0-.282-.141s-.282-.141-.563-.141-.7,0-.845-.141-.422-.141-.422,0a.517.517,0,0,1-.422-.141,9.7,9.7,0,0,0-1.126-.422,8.634,8.634,0,0,1-2.252-.422c-.845-.141-1.83-.422-2.111-.422-4.223-.845-3.941-.563-3.8-3.519V41.215h2.815a42.1,42.1,0,0,1,7.741.985c2.815.422,6.9,1.267,9.29,1.689a31.383,31.383,0,0,1,4.645.845c.141.141.563.141.845.141.282-.141.422,0,.422.141s.282.282.563.141c.282,0,.845.141,1.126.141.7.141,2.674.563,3.519.7.282.141,2.674.563,5.208.985s4.786.845,5.208.985c1.971.282,8.586,1.548,10.275,1.971.282,0,.845.141,1.126.141.422,0,.7,0,.563.141a.823.823,0,0,0,.563.141,8.307,8.307,0,0,1,1.971.282c.282.141,10.979,2.111,17.453,3.237,3.1.422,3.66.563,3.941.282A.746.746,0,0,0,138,53.038c-.281,0-.7,0-.845-.141a63.185,63.185,0,0,0-6.193-1.408,2.034,2.034,0,0,1-.985-.282c-.282,0-.7-.141-.985-.141-.985-.141-5.912-1.267-6.756-1.548a3.015,3.015,0,0,0-.845-.141c-.141.141-.141,0-.141-.141s-.282-.282-.563-.141a.975.975,0,0,1-.7,0c0-.141-.141-.282-.422-.282-.282.141-.7,0-.845,0-.282-.282-3.941-1.126-9.29-2.252-2.252-.422-5.349-1.126-7.038-1.548s-3.237-.7-3.378-.845a.517.517,0,0,1-.422-.141,24.385,24.385,0,0,0-2.815-.563c-.282,0-.563,0-.422-.141,0-.141-.7-.282-1.689-.422-.845-.141-1.971-.422-2.393-.422a6.983,6.983,0,0,0-1.83-.422c-.7-.141-2.393-.563-3.8-.845-4.082-.985-7.178-1.689-7.319-1.689,0,.141-.422,0-.845-.282A2.079,2.079,0,0,0,76.21,39.1c-.282,0-.563,0-.563-.141s-.282-.282-.7-.422c-1.689-.141-9.29-1.971-9.571-2.111a2.059,2.059,0,0,1,.422-.7,3.982,3.982,0,0,0,.422-.845c-.141,0,0-.282.141-.422a.754.754,0,0,0,.422-.563,14.279,14.279,0,0,1,1.83-1.971c.985-.985,1.83-1.83,1.689-1.971a.138.138,0,0,1,.141-.141,6.269,6.269,0,0,0,1.126-.7,24.5,24.5,0,0,1,4.926-2.674,4.143,4.143,0,0,0,1.267-.422,5.836,5.836,0,0,1,1.689-.563c.282.141.422,0,.422-.141s.141-.282.422-.141h.282c0-.141.422-.282.845-.282a9.686,9.686,0,0,0,1.83-.282c1.126-.282,5.208-.141,5.349.141a21.16,21.16,0,0,0,4.5,1.689c2.534.845,4.786,1.689,5.208,1.83.845.282,1.548.563,2.111.7a13.632,13.632,0,0,1,1.548.422,11.819,11.819,0,0,0,1.689.563,1.075,1.075,0,0,1,.7.282.27.27,0,0,0,.422.141c.141-.141.282-.141.141,0-.141.282,0,.282.282.422a1.892,1.892,0,0,1,1.267.282c.282.141,3.941,1.267,7.882,2.534,1.126.422,2.252.845,2.534.985.422.282.563.282.422.141s.141-.141.422.141c.422.141.7.282.7.141h.282c.141.141.282.282.422.282a3.662,3.662,0,0,1,.985.422c.845.282,3.8,1.267,9.571,2.956a19.672,19.672,0,0,1,2.674.985.846.846,0,0,0,.563.141.264.264,0,0,1,.422,0c0,.141.141.282.281.141.141,0,.282,0,.282.141s.7.422,1.689.7l2.534.845c.563.141.845.282.845.141a.436.436,0,0,1,.281.141c.845.7,1.83.563,2.111-.141.281-.422.422-.7.563-.7v-.422c-.141-.141,0-.282.141-.282.281,0,.281-.845,0-1.126-.141-.141-.422-.282-.563-.141-.281,0-.422,0-.422-.141a2.636,2.636,0,0,0-1.548-.7c-.141,0-.282-.282-.563-.422a8.991,8.991,0,0,0-1.689-.845,15.933,15.933,0,0,1-1.971-.845l-.563-.282a11.539,11.539,0,0,1-1.548-.563,11.539,11.539,0,0,0-1.548-.563.491.491,0,0,1-.141-.282c0-.282-1.408-.7-1.408-.563s-.141,0-.281-.141a.634.634,0,0,0-.422-.422,19,19,0,0,1-3.378-1.408,13.69,13.69,0,0,0-2.111-.845c-.141.141-.141,0-.141-.141a.3.3,0,0,0-.282-.282,5.842,5.842,0,0,1-1.971-.845,12.288,12.288,0,0,0-1.83-.7l-1.126-.563a61.231,61.231,0,0,0-6.615-2.956,5.86,5.86,0,0,1-1.689-.845c-.141-.282-.282-.282-.422-.282,0,.141-.563,0-.985-.422a7.652,7.652,0,0,0-1.126-.563,8.221,8.221,0,0,1-1.83-.7c-.985-.422-1.83-.845-1.971-.845s-.563-.282-.985-.422c-.563-.141-1.408-.7-2.252-.985a11.538,11.538,0,0,0-1.548-.563q-.211,0-.422-.422a2.378,2.378,0,0,0-.7-.282.264.264,0,0,1-.422,0,11.581,11.581,0,0,0-2.956-1.548c-1.126-.282-1.83-.845-1.548-1.126a6.083,6.083,0,0,0,1.408-1.408c-.141-.282,3.1-2.815,3.378-2.815a1.067,1.067,0,0,0,.563-.282,1.067,1.067,0,0,1,.563-.282,6.907,6.907,0,0,0,1.408-.563c1.548-.7,4.786-.985,5.349-.422q.211.422.422.422c.141,0,1.408.7,2.956,1.548a38.859,38.859,0,0,0,3.519,1.971c.422.282.985.7,1.408.985a1.655,1.655,0,0,0,.845.7,1.217,1.217,0,0,1,.845.422.754.754,0,0,0,.563.422,23.9,23.9,0,0,1,4.363,2.956,2,2,0,0,0,.845.282c.141-.141.282,0,.282.141-.141,0,.422.422,1.126.845.7.563,1.267.985,1.267.985,0,.141.141.282.422.282a.517.517,0,0,1,.422.141c0,.141.563.563,1.267.985.563.422,1.83,1.408,2.815,2.111.845.7,1.689,1.267,1.689,1.267.141,0,.422.141.563.563.282.282.563.563.7.563a2.2,2.2,0,0,1,1.126.845c.563.422.985.7.985.7.141,0,.141.141.141.282a6.581,6.581,0,0,0,.845.7l.845.845a.731.731,0,0,0,.563.282,13,13,0,0,1,2.252,1.971c2.111,2.111,1.971,1.971,1.971,1.548,0-.282,0-.422-.141-.422s-.282-.282-.422-.422c0-.282-.141-.422-.282-.422-.141.141-.282,0-.422-.282a8.17,8.17,0,0,0-1.408-1.689c-.7-.7-2.252-2.111-3.378-3.237-1.126-.985-2.534-2.252-3.237-2.815-.563-.422-1.408-1.267-1.971-1.689a2.965,2.965,0,0,0-1.126-.845c-.141.141-.141.141-.141,0,.141-.141-.141-.422-.422-.563a3.388,3.388,0,0,1-1.126-.845,5.874,5.874,0,0,0-1.126-.845c-.422-.282-.845-.7-1.126-.845a28.219,28.219,0,0,0-4.363-3.378,2.43,2.43,0,0,1-.563-.422c-.282-.282-.563-.422-.7-.282-.141,0-.282,0-.282-.141s-.563-.563-1.267-.985-1.267-.845-1.267-.985-.141-.141-.282-.141c-.282,0-.422-.141-.422-.282a19.725,19.725,0,0,0-2.534-1.83,4.118,4.118,0,0,1-1.408-.845,16.252,16.252,0,0,0-2.111-1.126,9.6,9.6,0,0,1-.985-.7,13.821,13.821,0,0,1-1.408-.985c-.985-.563-.985-.563-.985-1.548.141-2.956.282-3.1,1.689-2.393M87.189,8a12.956,12.956,0,0,1-2.393.282,20.217,20.217,0,0,0-4.645.7,2.748,2.748,0,0,1-.985.141c-.7,0-9.853,2.393-11.26,2.956-.141.141-.422.141-.563.282a4.783,4.783,0,0,0-1.971.7.491.491,0,0,1-.141.282h-.422l-.282.141c-.7.141-1.267.422-1.267.563s-.141.141-.282.141c-.422-.282-8.3,3.941-11.964,6.475-1.126.7-2.111,1.408-2.252,1.408s-.282,0-.282.141a.449.449,0,0,1-.422.422c-.141.141-.563.282-.7.563-1.126.985-3.1,2.674-4.223,3.519-.7.563-1.267.985-1.267,1.126s0,.282-.141.282a9.263,9.263,0,0,0-1.548,1.408,31.039,31.039,0,0,0-2.252,2.393,2.917,2.917,0,0,0-.985,1.126c0,.141,0,.141-.141.141-.141-.141-.422,0-.422.282l-.282.563c-.141,0-.563.422-.985.985a18.922,18.922,0,0,1-1.548,1.971,4.157,4.157,0,0,0-.985,1.408s-.422.563-.7.985a2.521,2.521,0,0,0-.7.985c0,.141-.282.422-.563.7a4.627,4.627,0,0,0-.422.845.3.3,0,0,1-.282.282.521.521,0,0,0-.282.422c-.141.282-.282.7-.563.845a26.674,26.674,0,0,0-2.815,5.067c-.422.985-1.267,2.815-1.83,4.082s-1.126,2.393-1.126,2.534a.616.616,0,0,1-.141.422c-.141,0-.282.282-.282.563s0,.563-.141.563a.3.3,0,0,0-.282.282c.141.282,0,.7-.422,1.83a4.765,4.765,0,0,0-.422,1.126,2.476,2.476,0,0,0-.141.845c-.845,2.815-.985,10.134-.282,13.653.422,2.534,1.689,6.756,1.971,6.9.141,0,.141.141.141.282-.141.141-.141.282,0,.282s.282.141.282.422a1,1,0,0,0,.422.845c.141.282.7,1.267,1.267,2.393s1.267,2.111,1.408,2.393a9.6,9.6,0,0,1,.7.985c.141.282.563.845.845,1.267.422.422,1.126,1.267,1.689,1.83a14.212,14.212,0,0,0,1.83,2.252,4.212,4.212,0,0,1,.985,1.267c0,.141.141.141.282,0,.141,0,.282,0,.282.282a1.067,1.067,0,0,0,.282.563,40.86,40.86,0,0,1,4.082,3.519c.422.422,1.83,1.408,2.956,2.252a18.459,18.459,0,0,1,2.393,1.83,11.789,11.789,0,0,0,2.674,1.548l.282.282a24.426,24.426,0,0,0,2.252,1.408c1.126.563,2.111,1.126,2.111,1.126a5.81,5.81,0,0,0,2.111.985c.282,0,.282,0,0,.141-.141.141-.282.282,0,.282a3.581,3.581,0,0,1,.985.282h.282c.141,0,.141,0,.141.141s.141.282.282.141c.141,0,.282,0,.282.141a3.992,3.992,0,0,0,1.83.563,5.367,5.367,0,0,0-1.126-1.267,7.184,7.184,0,0,1-1.267-1.408,5.08,5.08,0,0,1-.563-.7,20.058,20.058,0,0,1-1.548-1.689,5.317,5.317,0,0,0-1.126-1.267,2.025,2.025,0,0,1-.282-.422c0-.141-.141-.282-.282-.563a39.621,39.621,0,0,1-3.8-5.208s-.563-.985-1.267-2.111a61.584,61.584,0,0,1-3.519-7.46c0-.141-.282-.7-.422-1.267-.282-.563-.563-1.267-.7-1.548a7.584,7.584,0,0,0-.422-1.408,3.679,3.679,0,0,1-.422-1.126,2.609,2.609,0,0,0-.282-.985C36.94,76.826,36.1,63.173,37.5,55.853c.282-.985.985-4.363.985-4.645a5.737,5.737,0,0,1,.282-.985c.141-.422.282-.7.422-.7a.138.138,0,0,0,.141-.141c-.141-.141,0-.563.141-.845.141-.422.282-.845.141-.985,0-.141,0-.141.282-.141.141,0,.141-.141,0-.141a.517.517,0,0,1,.141-.422A2,2,0,0,0,40.318,46a4.253,4.253,0,0,0,.422-1.267,5.737,5.737,0,0,0,.282-.985.138.138,0,0,1,.141-.141c.141,0,.422-.422.563-.985a3.607,3.607,0,0,1,.563-1.267,2.378,2.378,0,0,0,.282-.7,11.467,11.467,0,0,1,1.689-3.1c.282-.282.422-.563.282-.563,0-.141,0-.141.141-.141s.282-.141.141-.282c0-.141,0-.282.282-.282a1.075,1.075,0,0,0,.282-.7c0-.282.141-.422.282-.282.141,0,.282-.141.422-.563a17.243,17.243,0,0,1,1.126-1.689c.563-.845,1.126-1.408,2.674-3.519a1.286,1.286,0,0,0,.422-.7.3.3,0,0,1,.282-.282,25.642,25.642,0,0,0,2.674-2.534,28.5,28.5,0,0,1,5.489-4.5c.422-.282.985-.7,1.267-.845a.754.754,0,0,1,.563-.422,2.944,2.944,0,0,0,.845-.563c.141-.141.845-.563,1.267-.845a8.113,8.113,0,0,0,1.267-.7c.282-.282.422-.282.422-.282,0,.141.563-.141,1.267-.422a74.03,74.03,0,0,1,8.3-3.66,17.6,17.6,0,0,0,2.534-.845c.563-.141,1.971-.422,3.378-.7a20.663,20.663,0,0,0,2.674-.7,11.675,11.675,0,0,1,2.393-.422c.7,0,1.267-.141,1.267-.282.141-.141.563-.141.985-.141A14.638,14.638,0,0,0,89.3,10.39c.7,0,1.689-.141,2.252-.141a8.746,8.746,0,0,0,1.408-.422,3.282,3.282,0,0,1,1.267-.985c.7-.282,1.126-.563,1.126-.7A78.317,78.317,0,0,0,87.189,8M264.82,40.652l.141,28.714.563,1.267a6.919,6.919,0,0,0,4.082,3.378,21.765,21.765,0,0,1,2.111.563c.985.282,1.689.282,1.83,0a1.819,1.819,0,0,1,1.126-.282,7.436,7.436,0,0,0,1.83-.141c.422-.141,1.126-.282,1.548-.422,1.408-.282,2.111-.563,1.971-.845,0-.141-.141-.563-.141-.7-.282-2.534-.563-2.815-1.83-2.393-3.237.985-6.334.563-7.319-1.126a1.686,1.686,0,0,0-.563-.563c0,.282-.563-.845-.7-1.267,0-.282-.141-12.668-.141-27.728V11.938h-4.5V40.652M336.181,12.22V74.01h4.363V66.128l.7.7a5.5,5.5,0,0,1,.563.7,25.874,25.874,0,0,0,3.941,3.8q.845.633.845.422c-.141-.141-.141-.141.281,0,.282.141.422.422.282.563,0,0,0,.141.281.141a8.361,8.361,0,0,1,1.689.7,11.646,11.646,0,0,0,2.534.985,9.58,9.58,0,0,1,1.689.422c.141.141.422.282.563.141a1.4,1.4,0,0,1,.563.141c.282.141.422.141.282,0-.141-.282-.141-.282.281-.141a14.575,14.575,0,0,0,4.223.141c0-.141.281-.141.563-.141a4.342,4.342,0,0,0,1.267-.141c5.349-1.689,7.319-2.815,10.134-5.489,1.126-1.126,2.252-2.393,2.534-2.674a26.248,26.248,0,0,0,2.674-5.208,1.486,1.486,0,0,1,.282-.7.436.436,0,0,0,.141-.282c-.141,0-.141-.141.141-.422a2.1,2.1,0,0,0,.422-1.126,1.4,1.4,0,0,0,.141-.563,1.456,1.456,0,0,0,.141-.563c.7-2.252.7-10.134.141-10.134-.141,0-.141-.422-.141-.7a.975.975,0,0,0,0-.7c-.141,0-.281-.282-.281-.7,0-.282-.141-.7-.141-.985a2.025,2.025,0,0,1-.282-.422,31.071,31.071,0,0,0-4.363-7.882c-2.252-2.534-3.8-3.941-4.223-3.941-.281,0-.422,0-.422-.141a4.968,4.968,0,0,0-1.83-1.126c-.985-.422-1.971-.985-2.252-1.126s-.422-.141-.282.141.141.282-.141,0a6.862,6.862,0,0,0-.985-.422,2.61,2.61,0,0,1-.985-.282,34.547,34.547,0,0,0-6.615,0,7.262,7.262,0,0,1-1.548.282,1.509,1.509,0,0,0-.845.282,1.486,1.486,0,0,1-.7.282c-.985,0-6.052,3.1-6.052,3.66,0,.141-.141.141-.282,0-.141,0-.281,0-.281.282,0,.141,0,.282-.141.282-.141-.141-.422,0-.563.282s-1.126,1.267-1.971,2.252l-1.548,1.548V11.938h-2.252a5.656,5.656,0,0,0-2.534.282m97.542,27.869c0,15.624.141,28.573.281,28.854a2.609,2.609,0,0,0,.282.985,1.788,1.788,0,0,0,.563.985,1.286,1.286,0,0,1,.422.7c0,.7,3.519,2.674,4.786,2.674.563,0,.985.141.985.282a1.067,1.067,0,0,0,.985.141c7.6-1.267,7.319-1.126,6.9-3.1-.422-2.111-.563-2.252-1.689-1.83a11.081,11.081,0,0,1-5.208.282c-1.126-.282-3.1-1.689-2.815-2.111,0-.141,0-.141-.141-.141-.282,0-.282,0-.422-28.151l-.141-27.588-2.393-.141h-2.393V40.089M226.535,13.205s-.7.141-1.548.282a11.825,11.825,0,0,0-3.941.845c0,.141-.141.282-.282.141a2.378,2.378,0,0,0-1.408.422,1.075,1.075,0,0,1-.7.282,26.649,26.649,0,0,0-4.786,2.534,2.141,2.141,0,0,1-.845.563,31.312,31.312,0,0,0-3.66,3.378,24.648,24.648,0,0,0-2.534,3.1c-.282.563-.845,1.267-1.126,1.83A2.667,2.667,0,0,0,205,27.7c0,.282-.281.422-.422.563s-.422.422-.422.563c0,.282-.141.563-.282.563a6.1,6.1,0,0,0-.141.7c0,.141,0,.422-.141.422s-.422.563-.563,1.408a1.741,1.741,0,0,0-.281.422C201.2,34.6,200.355,43.889,201.2,48.956c.7,3.941,3.237,10.838,4.082,10.838a.2.2,0,0,1,0,.282s0,.282.141.282a4.379,4.379,0,0,1,.563.845,27.569,27.569,0,0,0,1.689,2.393,8.3,8.3,0,0,1,1.267,1.83.491.491,0,0,0,.141.282,12.894,12.894,0,0,1,1.971,1.548,9.809,9.809,0,0,0,1.971,1.689.754.754,0,0,1,.563.422c3.1,3.378,14.5,6.052,20.268,4.645.845-.141,1.83-.422,1.971-.422s2.393-.845,4.645-1.689l.563-.282c0-.141.422-.422.845-.563a8.853,8.853,0,0,0,1.971-1.267,8.576,8.576,0,0,1,1.689-1.267c.281-.282,1.267-1.126,2.111-1.83a13.823,13.823,0,0,1,1.548-1.548s.141,1.971.141,4.5L249.2,74.01h2.111l1.971.141V44.593h-8.727c-4.786,0-8.727-.141-8.867-.141a13.289,13.289,0,0,0-.141,1.971l-.141,1.83h13.935v11.26l-3.1,3.1c-1.689,1.689-3.237,3.1-3.237,3.1a7.618,7.618,0,0,0-2.111,1.126,9.816,9.816,0,0,1-2.252,1.126c-.282,0-.422.141-.422.282s0,.282-.141.141c-.422,0-1.689.422-1.548.563,0,.141-.282.282-.7.282-.422.141-1.548.282-2.534.563-3.378.7-8.445.282-10.7-.845a1.53,1.53,0,0,0-.7-.141c-.281.141-.281.141-.281,0,.141-.282,0-.422-1.83-.985-2.111-.845-8.445-6.193-8.445-7.178a1.742,1.742,0,0,0-.422-.282c-.141,0-.422-.422-.7-.985a5.081,5.081,0,0,0-.563-.7c-.141,0-.282-.141-.141-.282,0,0-.422-.845-.845-1.83a21.891,21.891,0,0,1-.985-1.971,3.363,3.363,0,0,1-.422-.985,5.736,5.736,0,0,1-.281-.985c0-.141-.282-.845-.563-1.689-.141-.7-.422-1.548-.281-1.83a1.456,1.456,0,0,0-.141-.563c-.141,0-.282-.422-.282-.845.141-.422,0-.845-.141-.845-.282,0,0-7.46.281-7.741a1.708,1.708,0,0,0,.141-.7c.141-.282.282-.985.422-1.408a8.1,8.1,0,0,0,.282-1.408,37.139,37.139,0,0,1,1.548-4.082c.563-1.126.985-2.111.985-2.111a2.521,2.521,0,0,1,.7-.985c.282-.563.7-1.126.7-1.267s0-.141.141-.141c0,.141.281,0,.563-.422a10.845,10.845,0,0,1,2.815-3.237,9.948,9.948,0,0,0,1.689-1.548,1.089,1.089,0,0,1,.422-.141c0,.141.141.141.141-.141.141-.282.422-.422.563-.282l.281-.282c.141-.141.282-.282.422-.282.141.141.141.141.141,0s.141-.282.422-.282a.3.3,0,0,0,.282-.282c0-.141.141-.141.281,0,.141,0,.282,0,.282-.141,0-.7,4.926-2.111,8.164-2.252a24.941,24.941,0,0,1,9.993,1.408,3.363,3.363,0,0,1,.985.422,1.217,1.217,0,0,1,.844.422,1.217,1.217,0,0,0,.845.422,12.575,12.575,0,0,1,1.83,1.126c.845.7,1.689,1.267,1.689,1.267.141,0,.281,0,.141.141s.7.985.985.985a36.139,36.139,0,0,1,3.1,4.645c.281.422.845.141,2.956-1.126,1.408-.845,1.408-1.408.141-2.815-.141-.282-.282-.422-.141-.422s0-.141-.282-.422c-.282-.141-.422-.282-.282-.282s-.141-.422-.563-.845c-2.252-2.674-3.519-3.8-3.519-3.66-.141,0-.141-.141-.141-.282a.449.449,0,0,0-.422-.422,1.788,1.788,0,0,1-.985-.563,2.141,2.141,0,0,0-.844-.563c-.141,0-.422-.141-.422-.282a15.41,15.41,0,0,0-4.223-1.83,6.486,6.486,0,0,1-1.408-.7,1.075,1.075,0,0,0-.7-.282c-.141,0-.985-.141-1.83-.282-1.408-.422-8.164-.845-8.445-.563M92.819,20.1a9.335,9.335,0,0,0,2.674,1.267.138.138,0,0,1,.141.141c0,.141.141.282.422.282a1.456,1.456,0,0,1,.563.141c.141.141.282.282.422.282s3.519,1.548,4.223,1.971a1.53,1.53,0,0,0,.7.141,3.856,3.856,0,0,1,.985.563l.845.563a2.449,2.449,0,0,1,.985.422,5.918,5.918,0,0,1,.7.282c0-.141.282,0,.563.282.141.141.422.422.422.282a17.1,17.1,0,0,1,3.1,1.267c.985.422,2.393,1.126,3.378,1.548.845.422,1.408.7,1.126.7a11.168,11.168,0,0,1-2.111-.7,2.918,2.918,0,0,0-.845-.282c-.282,0-.563-.141-.563-.282h-.563c-.282.141-.282.141-.141-.141.141-.141,0-.282-.141-.282-.141.141-.563,0-.7,0-.7-.282-8.727-2.815-9.149-2.815a1.53,1.53,0,0,1-.7-.141,21.382,21.382,0,0,0-3.1-1.126c-.282,0-.422,0-.422-.141s0-.141-.141-.141a.264.264,0,0,1-.422,0,7.3,7.3,0,0,0-1.689-.7c-1.408-.422-1.408-.282-1.548-2.393-.141-1.408.422-1.83.985-.985M301.978,28.97a2.864,2.864,0,0,1-.7.141C291,30.8,282.977,40.934,283.117,52.335a8.83,8.83,0,0,0,.141,2.674c.141,0,.141.282.141.7a35.69,35.69,0,0,0,3.66,9.853c.7.7.985.985.985,1.126a37.8,37.8,0,0,0,4.786,4.645,44.591,44.591,0,0,0,4.786,2.393c.422.141,1.408.282,2.252.563.985.282,1.689.422,1.689.282a.436.436,0,0,1,.281.141c.422.282,5.349.422,5.349.141,0-.141.281-.141.7-.141.563,0,.7,0,4.363-1.267a12.706,12.706,0,0,0,2.956-1.267c.281-.282.422-.422.422-.282,0,.7,5.067-3.941,6.193-5.63.422-.563.7-1.126.845-1.126.141-.141.281-.282.141-.422a1.286,1.286,0,0,1,.422-.7,1.286,1.286,0,0,0,.422-.7.754.754,0,0,1,.422-.563c.141-.282.281-.563.141-.563,0-.141,0-.282.141-.282.281,0,1.548-4.223,1.83-6.052.844-5.208-.563-12.809-2.674-15.624a3.856,3.856,0,0,1-.563-.985c0-.422-2.393-3.378-3.66-4.5-1.971-1.83-2.252-1.971-2.252-1.689,0,0-.141,0-.141-.282-.141-.282-.422-.422-.563-.282-.141,0-.141,0-.141-.141s-.281-.282-.7-.563l-1.126-.563c-.282-.141-1.126-.422-1.83-.7-.845-.282-1.689-.7-1.83-.7a6.122,6.122,0,0,0-2.815-.563c-.141,0-.422-.141-.563-.141-.141-.282-5.067-.422-5.349-.141m98.386.141a7.019,7.019,0,0,0-1.689.422c-.281.141-1.408.422-2.534.845-4.082,1.126-10.416,5.067-8.445,5.067.141,0,.282,0,.141.141,0,.282.845,1.971,1.126,1.971.141,0,.141,0,0,.141-.281.563,2.815-.985,3.378-1.548.141-.141.282-.141.563-.282a1.286,1.286,0,0,0,.7-.422c.281-.141.422-.282.422-.141s.141,0,.422-.141c3.378-2.815,14.779-2.956,16.75-.141l.141.141c0-.845,3.8,4.223,3.8,4.926a.774.774,0,0,0,.422.7,1.509,1.509,0,0,1,.282.845,3.5,3.5,0,0,0,.141,1.126c.281.422.281,1.83.281,4.082v3.378l-1.408-.7a9.549,9.549,0,0,0-2.393-.563,1.819,1.819,0,0,1-1.126-.282l-1.126-.282a14.035,14.035,0,0,1-2.252-.282,41.4,41.4,0,0,0-4.926-.141c-4.786,0-5.067.141-5.067.282s-.141.141-.422.141a1.486,1.486,0,0,0-.7.282c-.282.141-.282.141-.141-.141.141-.141,0-.141-.563.141-.282.141-.7.282-.7.141a22.844,22.844,0,0,0-5.771,2.674,24.973,24.973,0,0,0-3.378,3.237,12.681,12.681,0,0,1-.7,1.267,1.52,1.52,0,0,0-.422.985c.141.141.141.141,0,.141-.282-.141-.563,1.267-.422,1.548.141.141,0,.141-.141.141s-.141.845-.141,2.393a15.162,15.162,0,0,0,.7,4.786c.281.985.422,1.267.7,1.267.141,0,.141.141.141.282-.141.141.141.563.563.985.281.422.7.845.7.985a10.256,10.256,0,0,0,3.1,2.815c.422.282,1.267.7,1.83.985a16.515,16.515,0,0,0,4.223,1.408,24.832,24.832,0,0,0,5.489.141,1.075,1.075,0,0,1,.7-.282,16.123,16.123,0,0,0,4.786-.985,2.918,2.918,0,0,1,.845-.282c.281-.141.985-.422,1.548-.7a7.17,7.17,0,0,1,1.548-.563.449.449,0,0,0,.422-.422c.141-.141.281-.282.422-.141a.138.138,0,0,0,.141-.141c0-.141.282-.282.7-.422.422-.282.7-.422.563-.563,0-.141,0-.282.141-.282a8.962,8.962,0,0,0,1.83-1.548l1.408-1.408v1.971c0,3.66,1.267,5.067,4.223,4.926h1.548l.141-2.111V69.929l-.7-.141c-.985-.141-.985,0-.985-12.809,0-7.741,0-11.964-.141-11.964s-.282-.422-.282-.985c0-2.111-1.548-7.46-2.111-7.46-.141,0-.282,0-.141-.141a2.449,2.449,0,0,0-.422-.985c-.985-1.126-2.956-3.237-2.956-2.956,0,.141-.141-.141-.422-.422s-.563-.422-.563-.282-.141,0-.422-.141c-.985-.985-4.786-2.393-6.475-2.393-.563,0-.985-.141-.985-.282a29.18,29.18,0,0,0-5.912.141m-93.882,4.223c2.534.282,6.193,1.548,5.771,1.971-.141,0,0,.141.141.141.7,0,5.067,3.8,5.489,4.645a.521.521,0,0,0,.282.422c.141,0,.422.422.563.7.141.422.422.7.563.7a.491.491,0,0,1,.141.282c-.141,0,.141.563.422,1.267a6.907,6.907,0,0,1,.563,1.408.846.846,0,0,0,.141.563c1.267,1.408,1.267,11.4.141,13.09a4.686,4.686,0,0,0-.422.845,21.345,21.345,0,0,1-2.252,4.223c-.845,1.408-5.349,5.349-5.771,4.926a.138.138,0,0,0-.141.141c0,.141,0,.282-.141.141h-.281c0,.563-2.674,1.408-5.208,1.689-2.815.422-7.46-.422-8.586-1.408a2.43,2.43,0,0,0-.563-.422.517.517,0,0,1-.422-.141c-.282-.141-1.126-.845-1.971-1.408a12.07,12.07,0,0,1-3.378-3.378c0-.282-.141-.422-.281-.422a.3.3,0,0,1-.282-.282,1.217,1.217,0,0,0-.422-.845c-.282-.282-.422-.563-.282-.563,0-.141,0-.141-.141-.141s-.281-.141-.141-.282c0-.141,0-.282-.141-.282s-.141,0-.141-.141a4.143,4.143,0,0,0-.422-1.267c-.282-.563-.563-1.126-.422-1.126a.436.436,0,0,0-.141-.282,6.865,6.865,0,0,1-.422-.985,23.889,23.889,0,0,1-.563-4.926c0-2.111.563-5.63.985-6.193a1.067,1.067,0,0,0,.281-.563,6.942,6.942,0,0,1,.563-1.267c.281-.563.422-.985.141-.845-.141,0,0,0,.141-.282a.754.754,0,0,0,.422-.563c0-.141.282-.422.422-.7a1.286,1.286,0,0,0,.422-.7c0-.7,3.941-4.786,4.645-4.786.141,0,.141-.141,0-.282,0-.141,0-.141.141-.141.282.282,1.548-.563,1.267-.845-.141,0,0-.141.141-.141,0,.141.7-.141,1.408-.422a24.781,24.781,0,0,1,5.63-1.408s1.126.141,2.111.282m54.19.282c1.971.563,3.237,1.126,3.378,1.408s.281.282.422.282c.141-.141.282,0,.422.282s.282.282.282.141.282.141.7.563c.422.282.7.563.7.422l.7.7c1.548,1.408,2.252,2.393,2.111,2.534l.282.282a2.573,2.573,0,0,1,.844,1.126c.141.422.422.845.563.845a.138.138,0,0,1,.141.141,3.1,3.1,0,0,0,.845,1.689A6.626,6.626,0,0,1,372.5,45.3c.141.282.281,1.267.563,2.111.845,4.223.281,11.26-1.126,12.246-.141,0-.281.141-.141.141s0,.282-.282.563c-.282.422-.422.7-.282.845a.3.3,0,0,1-.281.282c-.282.141-.422.282-.422.563,0,.422-.281.845-.985,1.408-.141.282-.422.563-.422.7,0,.563-3.378,3.66-4.082,3.8a.774.774,0,0,0-.7.422,1.075,1.075,0,0,1-.7.282.3.3,0,0,0-.281.282c.141.141,0,.141-.141.141-.141-.141-.422-.141-.422,0,0,.563-2.393,1.267-4.926,1.548a16.77,16.77,0,0,1-6.475-.845,8.221,8.221,0,0,0-1.83-.7c-2.111-.563-6.615-4.645-7.741-7.178l-.845-1.548V52.335c0-7.46.141-7.882.563-8.727a3.185,3.185,0,0,0,.563-1.267c.141-.141.281-.422.422-.422a.491.491,0,0,0,.141-.282,7.063,7.063,0,0,1,.845-1.126c.422-.422.845-.845.845-.985a7.008,7.008,0,0,1,1.126-1.126,11.512,11.512,0,0,1,1.548-1.408c.281-.282.563-.563.7-.563s.422-.282.563-.422a2.431,2.431,0,0,1,.563-.422,3.856,3.856,0,0,0,.985-.563,14.167,14.167,0,0,1,10.838-1.408M70.017,39.1c1.408.282,2.674.563,2.815.563a9.7,9.7,0,0,0,1.126.422,5.25,5.25,0,0,0,1.689.282c.563,0,.985.141.985.282s.141.141.422.141.985.141,1.83.282c.7.282,1.548.422,1.971.563.282,0,2.674.563,5.349,1.126s5.067,1.126,5.489,1.267a18.467,18.467,0,0,1,2.111.422,6.355,6.355,0,0,0,1.83.422,1.456,1.456,0,0,1,.563.141c.282.282-2.252,0-2.674-.141-.141-.141-.563-.141-.7-.282a2.748,2.748,0,0,1-.985-.141c-1.408-.282-2.111-.422-2.252-.422a36.369,36.369,0,0,0-5.489-.985,12.828,12.828,0,0,0-2.252-.422c-.985-.282-2.252-.422-2.815-.563a4.345,4.345,0,0,1-1.548-.282c-.422-.141-.845-.141-5.349-.985-4.082-.7-4.786-.985-5.349-2.111-.141-.282-.141-.422.141-.282a23.159,23.159,0,0,1,3.1.7M409.091,51.631a39.543,39.543,0,0,1,6.615,1.689l.563.141v4.645c-.141,4.786-.141,5.208-.422,5.208-.141,0-.422.422-.7.845-1.126,1.548-5.208,5.067-5.208,4.363l-.844.563c-4.363,2.674-12.949,2.534-16.046-.141a13.262,13.262,0,0,0-1.408-1.408c-2.956-2.534-3.519-8.164-1.267-11.119a4.009,4.009,0,0,0,.563-1.126c0-.141.141-.141.282-.141.282,0,.282,0,.282-.282a.3.3,0,0,1,.281-.282,1.067,1.067,0,0,0,.563-.282c.7-.845,4.786-2.393,6.9-2.674.563,0,1.126-.141,1.126-.282.141,0,7.741.141,8.727.282M159.818,60.92c0,.282-.422,1.971-.845,3.941-.7,3.378-.7,4.082-.422,6.193.985,4.786.422,15.342-.985,20.972-.141.563-.422,1.548-.563,2.393a4.469,4.469,0,0,1-.563,1.548,1.075,1.075,0,0,0-.282.7,4.143,4.143,0,0,1-.422,1.267c-.282.563-.845,1.689-1.267,2.674a41.686,41.686,0,0,1-2.534,5.208,1.983,1.983,0,0,1-.422.7.3.3,0,0,0-.282.282.616.616,0,0,1-.141.422c-.141,0-.422.282-.563.563-.141.422-.422.7-.422.845a11.563,11.563,0,0,0-1.267,1.548c-.563.845-1.126,1.689-1.267,1.83-.141,0-.282.282-.282.282,0,.563-6.615,6.756-8.867,8.445a4.462,4.462,0,0,0-.845.7,4.627,4.627,0,0,0-.845.422c-1.548.845-1.971,1.126-1.971,1.267s0,.282-.141.141c0,0-.563.282-1.267.7a6.075,6.075,0,0,1-1.267.845,10.034,10.034,0,0,0-1.971.845c-1.971.845-6.193,2.674-6.9,2.815a4.748,4.748,0,0,0-1.689.563,4.351,4.351,0,0,1-1.126.282,13.281,13.281,0,0,1-1.267.422c-.563,0-1.126.282-1.548.282s-1.689.282-2.674.422a99.14,99.14,0,0,1-29.558-.141c-2.252-.422-6.475-1.408-6.9-1.548-.282-.141-.422-.282-.563-.141a.517.517,0,0,1-.422-.141H77.2c-.141-.141-.422-.141-.563-.282-.141,0-1.126-.282-2.111-.563-1.83-.563-7.6-2.393-8.727-2.956a6.627,6.627,0,0,0-1.267-.422c-.282-.141-.563-.282-.563-.422s-.422-.282-.845-.282c-.422-.141-.845-.282-.845-.422s0-.282-.141-.282-.845-.282-1.689-.563a4.953,4.953,0,0,0-1.408-.563.3.3,0,0,1-.282-.282c0-.141,0-.141-.141-.141-.282.141-3.1-1.408-4.363-2.393-.422-.282-.845-.422-.845-.282-.141,0-.422-.141-.845-.563a2.141,2.141,0,0,0-.845-.563c-.282,0-.422-.141-.422-.282s-.141-.141-.282-.141-.282-.141-.422-.282c-.282-.141-.985-.7-1.83-1.126a15.577,15.577,0,0,1-2.252-1.548c-.422-.282-.985-.845-1.267-.985a76.018,76.018,0,0,1-6.475-5.067c-.282-.422-.563-.7-.563-.563,0,0-1.83-1.689-4.082-3.941l-4.082-4.082a7.063,7.063,0,0,0-.845-1.126,10.9,10.9,0,0,1-1.408-1.689c-.282-.282-.7-.845-.985-1.126q-1.9-1.9-1.267-1.689l-.422-.422-.845-.845A6.17,6.17,0,0,0,23.147,90.9c-.563-.845-1.267-1.83-1.689-2.393-.282-.422-.563-.985-.7-.985s-.141-.282-.141-.422a.3.3,0,0,0-.282-.282c-.141,0-.282-.141-.282-.422,0-.141,0-.282-.141-.282s-.282-.141-.282-.422a.491.491,0,0,0-.141-.282c-.141,0-.422-.422-.7-.7-.141-.422-.422-.7-.563-.563-.282,0-.141,4.645.141,5.63.141.422.282,3.1.422,4.223,0,.141,0,.282.141.282a1.456,1.456,0,0,1,.141.563,17.35,17.35,0,0,0,.7,3.66c.141.985.422,1.971.422,2.252a10.047,10.047,0,0,1,.563,2.252c.282.985.563,1.971.7,2.393a5.362,5.362,0,0,0,.422,1.408,6.627,6.627,0,0,1,.422,1.267,13.087,13.087,0,0,0,.845,2.534,1.067,1.067,0,0,1,.282.563c0,.282,0,.422.141.422s.141.282.282.563a1.075,1.075,0,0,0,.282.7c.141,0,.141.282.141.422-.141.141,0,.282.141.282.282.141.422.282.422.563,0,.141,0,.563.141.7.141.282.563,1.267.985,2.111a4.365,4.365,0,0,0,.985,1.689c.141,0,.141.141.141.282-.141.141-.141.282,0,.282s.282.282.422.7c0,.282.282.7.422.7,0,0,.141,0,0,.141a3.927,3.927,0,0,0,.7,1.267c.422.7.985,1.408,1.267,1.83.7,1.408,1.971,3.237,2.252,3.237.141,0,.141.141,0,.282,0,.141,0,.282.141.282a.3.3,0,0,1,.282.282,8.3,8.3,0,0,0,1.267,1.83,25.552,25.552,0,0,0,1.689,2.111c.282.282.7.845,1.126,1.267s.845.845.845.985a.754.754,0,0,0,.422.563.754.754,0,0,1,.422.563.3.3,0,0,0,.282.282c.141,0,.845.845,1.83,1.689A24.582,24.582,0,0,0,44.4,141.15a19,19,0,0,1,1.548,1.267,7.576,7.576,0,0,0,1.689,1.267c.422.422.845.7.845.845,0,0,1.408,1.126,3.1,2.252s3.378,2.111,3.66,2.393a17.945,17.945,0,0,0,1.689.985c.563.282,1.126.563,1.126.7.141.141,3.941,1.971,5.489,2.674.563.141,1.126.422,1.126.563s.141.282.141.141c.141,0,.7.282,1.267.422a12.7,12.7,0,0,0,3.8,1.408c0-.141.141,0,.282.141a4.421,4.421,0,0,0,1.689.563c2.815.845,8.445,2.252,8.867,2.393.282,0,.7.141.845.141a.264.264,0,0,0,.422,0,.846.846,0,0,1,.563.141,8.866,8.866,0,0,0,1.83.422,11.163,11.163,0,0,1,2.393.282c4.223.563,17.594.563,19-.141.141-.141.422-.282.422-.141a10.557,10.557,0,0,0,1.689-.141c.845-.141,1.689-.281,1.971-.281a13.282,13.282,0,0,1,1.267-.422c.422-.141,1.83-.422,3.1-.7,1.126-.281,2.534-.7,2.956-.845l.845-.282a13.477,13.477,0,0,0,2.393-.7c.563-.141,1.126-.422,1.267-.422a27.209,27.209,0,0,0,4.5-1.83c.282-.282.563-.422.563-.282.141.141.282,0,.422,0a13.644,13.644,0,0,1,3.237-1.83,31.693,31.693,0,0,0,5.349-2.956c.845-.563,1.971-1.267,2.674-1.689s1.548-1.126,1.971-1.408a2.837,2.837,0,0,1,1.267-.985,5.258,5.258,0,0,0,.985-.845,10.236,10.236,0,0,1,1.267-1.126c1.126-.985,4.223-4.082,5.208-5.208a16.94,16.94,0,0,1,1.408-1.548,1.286,1.286,0,0,0,.422-.7c0-.141.422-.563.845-.985a5.387,5.387,0,0,0,1.126-1.548c.282-.422.563-.985.845-1.126.281-.282.563-.563.563-.845,0-.141,0-.282.141-.282A26.19,26.19,0,0,0,157,126.934c-.141,0,.141-.282.422-.7.281-.282.563-.7.422-.7a1.067,1.067,0,0,1,.282-.563q.422-.211.422-.422a19.88,19.88,0,0,1,.845-2.111c.563-.985.985-2.111,1.126-2.393s.422-1.126.7-1.689c.845-1.971,1.689-4.363,1.548-4.645,0-.141,0-.141.141-.141a17,17,0,0,0,1.126-3.378c.845-3.519,1.126-4.926,1.548-7.6a44.073,44.073,0,0,0,.563-5.912,9.906,9.906,0,0,1,.422-2.815c.282,0-.141-8.3-.845-13.231-.282-2.534-1.267-7.6-1.689-9.29-.281-.7-.422-1.548-.563-1.83a21.21,21.21,0,0,0-1.548-4.786c-.141-.141-.141-.282,0-.282s0-.141-.141-.282c-.141-.282-.422-.563-.422-.7-.141-1.548-1.267-3.378-1.548-2.534m42.507,31.247v4.926h22.8v55.175h11.119V124.682l-.141-27.588h22.8V87.241H202.325v4.926m217.886-4.645c-.141.141-.141,14.779-.141,32.514l.141,32.092H425.7l5.63.141V137.209c0-15.905.141-17.313,1.126-18.016.141-.141.282-.422.563-.7a25.991,25.991,0,0,1,3.1-3.941,32.667,32.667,0,0,1,5.067-3.1,7.14,7.14,0,0,0,1.267-.282c5.63-1.408,10.838,1.971,11.542,7.319,0,.563.141,1.126.281,1.126a14.82,14.82,0,0,1,.141,1.689,4.414,4.414,0,0,0,.141,1.689c.141.141.282,6.052.141,14.779v14.5l5.349-.141h5.489l-.141-17.313c0-17.172,0-19.705-.282-19.705-.141,0-.282-.282-.282-.563a13,13,0,0,0-.563-3.1c0-.141-.141-.282-.141-.422-.281-1.548-2.534-5.489-3.237-5.63-.281-.141-.422-.282-.422-.563,0-.141-.141-.282-.141-.141-.141,0-.422-.282-.845-.7-2.674-2.956-9.008-3.8-16.327-2.252-1.971.422-7.882,3.8-7.882,4.5a.3.3,0,0,1-.281.282c-.282,0-.422,0-.282.141a1.515,1.515,0,0,1-.563.7c-.422.422-1.126,1.267-1.689,1.971l-1.126,1.408V87.241h-5.489c-4.223,0-5.63.141-5.63.282m-145.82,13.653a16.821,16.821,0,0,0-3.66.7c-.563.141-1.126.422-1.267.422a14.558,14.558,0,0,0-4.5,1.971c-.563.282-1.548.985-2.111,1.267a44.56,44.56,0,0,0-4.926,4.645,12.646,12.646,0,0,0-1.971,3.1,1.742,1.742,0,0,1-.281.422c-.141,0-.282.422-.563.985a3.3,3.3,0,0,1-.7,1.408c-.282.282-.422.7-.282.845,0,.141,0,.282-.141.282-.281,0-.7,1.408-.563,1.689a.7.7,0,0,1-.141.422c-.141.141-.281.282-.141.282s.141.141,0,.282c-.985,1.267-1.267,9.43-.422,13.231a8.816,8.816,0,0,0,.563,2.252c.141,0,.282.282.282.7a9.982,9.982,0,0,0,.985,2.252c.422.845.845,1.408.7,1.408-.281,0,2.674,4.645,3.66,5.489.141.141.422.563.7.845,1.267,1.126,3.66,2.815,3.8,2.674.141,0,.141,0,.141.141-.141.141,1.689,1.408,1.971,1.267.141,0,.141,0,.141.141,0,.281.7.563,1.126.563,0-.141.281,0,.281.141a33.047,33.047,0,0,0,6.475,1.971c4.926.7,12.1-.141,15.764-1.689.282-.141.7-.281.985-.422.282,0,.563-.141.563-.282s0-.141.141-.141c.141.141.563-.141.845-.422.422-.282.7-.563.845-.422.141,0,.281,0,.281-.141s0-.281.141-.281a8.222,8.222,0,0,0,2.956-2.111l1.126-1.126a7.52,7.52,0,0,0,1.548-1.83l.563-.563a15.836,15.836,0,0,0,1.689-2.956c.141-.422,0-.563-.563-.7-.422-.141-1.548-.422-2.393-.7a14.4,14.4,0,0,0-1.548-.422,1.1,1.1,0,0,1-.7-.281c-.422-.141-.7-.282-.7-.141a.7.7,0,0,1-.422-.141,8.235,8.235,0,0,0-2.393-.7c-.563-.141-.7,0-1.408,1.267a8.587,8.587,0,0,1-1.689,2.252c-.563.422-1.267,1.126-1.689,1.408a2.42,2.42,0,0,1-.985.563l-1.126.563c-2.111,1.548-7.6,1.971-10.979.985a14.918,14.918,0,0,1-1.689-.7c0-.141-.281-.281-.7-.422-.281,0-.7-.282-.7-.563-.141-.141-.281-.282-.281-.141a2.176,2.176,0,0,1-.845-.422,5.5,5.5,0,0,0-.7-.563c-.422,0-2.252-2.111-2.815-3.237-.281-.563-.845-1.267-.985-1.548-.281-.282-.563-.563-.563-.7.141-.141-.141-.7-.422-1.408a2.917,2.917,0,0,1-.282-.845,5.224,5.224,0,0,0-.281-1.267c-.563-1.971-2.674-1.83,19.846-1.83,19.846-.141,20.128-.141,20.128-.563a37.5,37.5,0,0,0-.282-8.727,7.937,7.937,0,0,0-.141-.985,1.456,1.456,0,0,0-.141-.563,5.671,5.671,0,0,1-.563-1.689c-.281-.845-.845-2.111-1.267-3.1s-.845-1.83-.845-1.971l-.563-.845a2.43,2.43,0,0,1-.422-.563c.141,0-.141-.282-.422-.7-.281-.282-.985-1.126-1.548-1.83a21.554,21.554,0,0,0-5.349-4.5A4.6,4.6,0,0,1,291,103.85c0-.141,0-.141-.141,0-.141,0-.281,0-.281-.141s-.141-.282-.282-.141c-.141,0-.141,0-.141-.141s-.141-.282-.141-.141c-.141.141-.422,0-.7-.141a54.574,54.574,0,0,0-5.771-1.83,38.894,38.894,0,0,0-9.149-.141m55.316-.141a34.323,34.323,0,0,0-8.164,1.689,7.938,7.938,0,0,1-.985.141,4.214,4.214,0,0,0-1.126.563,4.627,4.627,0,0,1-.845.422,29.014,29.014,0,0,0-5.489,2.815c-1.548.985-1.689,1.126-.845,2.111a2.141,2.141,0,0,1,.563.845,23.275,23.275,0,0,0,1.126,2.393c.563,1.267.985,2.393.985,2.393,0,.422.7.282.985-.141a4.892,4.892,0,0,1,1.548-.985,18.157,18.157,0,0,1,2.252-1.267,6.726,6.726,0,0,0,1.548-.845.5.5,0,0,1,.422-.282c.282.141,1.971-.563,1.83-.7s0-.141.141-.141c.141.141.563,0,1.126-.141a2.672,2.672,0,0,1,1.267-.422,1.509,1.509,0,0,0,.845-.282c.563-.422,6.756-.422,7.741-.141a3.313,3.313,0,0,0,1.126.282.846.846,0,0,1,.563.141c0,.141.563.422,1.126.7,1.267.563,3.8,2.534,3.8,3.1,0,.141.282.422.563.7s.282.422.141.282c-.281-.141-.281,0-.141.141.845,1.126,1.408,3.237,1.548,6.193l.141,2.956-.985-.282a2.017,2.017,0,0,0-.985-.282.2.2,0,0,1-.282,0c0-.141-.281-.282-.7-.422-.422,0-1.548-.282-2.393-.422-5.349-1.267-15.624-.845-18.439.845a.872.872,0,0,1-.563.282c0-.141-.141,0-.422.141-.141.282-.422.422-.563.282,0-.141-.141,0-.141.141s0,.282-.141.141a1.064,1.064,0,0,0-.563.141,5.272,5.272,0,0,1-1.689.985q-.422.211-.422.422c0,.141-.141.141-.281.141a.731.731,0,0,0-.563.282,3.252,3.252,0,0,1-.985.985c-.422.422-.7.7-.563.7s-.141.141-.422.282-.563.422-.563.563,0,.282-.141.282-.281.141-.281.422c0,.141,0,.282-.141.282-.422,0-1.689,2.674-2.111,4.5a17.22,17.22,0,0,0,1.267,10.416,8.406,8.406,0,0,1,.844,1.548c.282.563.563.845.7.845s.141.141.141.282c0,.7,4.363,4.082,4.786,3.8.141,0,.141,0,.141.141-.141.141-.141.281,0,.281a5.8,5.8,0,0,1,1.126.422c3.941,2.111,12.949,1.83,18.157-.563.985-.422,1.83-.845,1.971-.845a.138.138,0,0,0,.141-.141c0-.141.141-.281.281-.141.141,0,.141,0,.141-.141s.141-.282.422-.282a.517.517,0,0,0,.422-.141,10.1,10.1,0,0,1,1.689-1.548c.845-.7,1.971-1.689,2.534-2.252l.845-.845.141,1.548c.141,1.689.422,3.1.845,3.1.141,0,.141,0,.141.141-.281.422,1.126,1.83,2.252,2.393s6.334.845,8.164.422l.563-.141v-9.29l-.7-.281c-1.83-.563-1.83-.563-1.83-11.12,0-8.586-.281-15.342-.563-15.764a1.641,1.641,0,0,1-.282-.985,2.651,2.651,0,0,0-.281-1.126,2,2,0,0,1-.281-.845c0-.282,0-.563-.141-.563s-.563-.563-.844-1.408c-.422-.7-.7-1.408-.845-1.408s-.281-.141-.281-.422c-.141-.563-1.83-2.534-1.83-2.252,0,.141-.422-.282-.985-.845a10.085,10.085,0,0,0-2.111-1.548c-.563-.422-.985-.7-.985-.845h0a3.241,3.241,0,0,1-1.267-.422,2.667,2.667,0,0,0-1.126-.7,8.857,8.857,0,0,1-1.689-.422,39.933,39.933,0,0,0-11.119-.985m58.272-.141a12.4,12.4,0,0,1-2.111.282,18.672,18.672,0,0,0-3.378.563,17.939,17.939,0,0,0-1.971.563,5.363,5.363,0,0,0-1.408.422,5.535,5.535,0,0,1-.845.282,10.441,10.441,0,0,0-2.252,1.408c0,.141-.141.141-.422.141a6.074,6.074,0,0,0-1.267.845c-.563.422-1.267.845-1.689,1.126-1.689,1.126-6.052,6.193-5.63,6.756,0,.141,0,.282-.141.282-.282,0-1.126,1.548-.985,1.83a.3.3,0,0,1-.282.282c-.141,0-.141,0,0,.141,0,.141,0,.282-.141.282a.491.491,0,0,0-.282.141c.141.141,0,.7-.282,1.267-2.393,6.475-2.111,14.92.7,20.55l.845,1.971c0,.141.141.282.282.422a9.6,9.6,0,0,1,.7.985,9.223,9.223,0,0,0,1.126,1.83,2.2,2.2,0,0,1,.845,1.126c0,.141.422.563,1.126,1.267.563.563.985.985.985.845a3.124,3.124,0,0,1,.7.563,6.238,6.238,0,0,0,.845.7,2.52,2.52,0,0,1,.985.7,7.577,7.577,0,0,0,2.534,1.689,1.456,1.456,0,0,1,.563.141c2.534,2.534,13.935,3.66,19.987,1.971a12.065,12.065,0,0,0,1.83-.422,3.679,3.679,0,0,0,1.126-.422.872.872,0,0,1,.563-.282,4.626,4.626,0,0,0,1.689-.845.138.138,0,0,1,.141-.141c0,.141.282,0,.563-.281.422-.282.563-.422.422-.282,0,.282.281,0,.844-.422,1.408-1.267,1.548-1.267,1.971-1.408q.422-.211.422-.422c0-.141.422-.422.845-.7s.845-.7.845-.845c0-.282,0-.422.141-.422a4.431,4.431,0,0,0,1.408-1.83c.7-.985,1.267-1.83,1.408-1.971a.7.7,0,0,0,.141-.422c-.141-.141-.141-.141,0-.141s.282-.281.282-.422c0-.422-4.363-2.111-5.349-1.971-.281,0-.422-.141-.281-.141a5.749,5.749,0,0,0-2.534-.845c0-.141-.563-.282-1.126-.422-.985-.281-1.126-.281-1.548.141l-.281.282c.281,0-1.408,2.111-2.252,2.956a31.159,31.159,0,0,1-4.5,2.534,6.346,6.346,0,0,0-1.548.422c-.844.422-5.771.422-5.771,0,0-.141-.282-.282-.422-.282a8.1,8.1,0,0,1-1.408-.282c-.422-.281-1.126-.422-1.267-.563a.521.521,0,0,1-.422-.281c0-.141-.141-.282-.141-.141-.422.281-3.519-2.393-4.645-4.082-.563-.7-.985-1.408-1.126-1.408-.422-.281-1.548-3.1-1.971-4.786-1.267-4.363-.141-11.964,1.971-14.216.141-.282.282-.422.141-.422s.141-.422.563-.7a6.24,6.24,0,0,0,.7-.845,7.183,7.183,0,0,1,1.267-1.408,14.873,14.873,0,0,1,7.319-3.519c3.1-.7,9.571,1.126,11.119,3.237.141.141.563.7.985,1.126a1.514,1.514,0,0,1,.563.7c-.141,0,0,.141.281.422l.563.563c-.141.563,5.771-.845,6.334-1.408,0-.141.422-.282.844-.282.845,0,3.519-1.267,3.519-1.548a15.022,15.022,0,0,0-1.267-2.252,10.688,10.688,0,0,1-1.267-2.111.491.491,0,0,0-.141-.282,7.071,7.071,0,0,1-1.689-1.408,20.591,20.591,0,0,0-4.926-3.519c-.141,0-.282,0-.141-.141,0-.141,0-.282-.141-.282a3.581,3.581,0,0,1-.985-.282c-2.393-1.267-12.1-2.956-12.809-2.252m109.084.141c-.845.141-1.971.282-2.393.422s-.985.141-.985.282h-.422a4.212,4.212,0,0,1-1.548.422c-2.252.422-9.712,4.926-9.571,5.771.141.141,0,.141-.141.141-.141-.141-.422.141-.7.563a14.02,14.02,0,0,1-1.408,1.548,2.523,2.523,0,0,0-.563,1.126c.141,0,0,.141-.282.141-.141,0-.281,0-.281.141.141.141,0,.282-.141.422a.449.449,0,0,0-.422.422c0,.282,0,.422-.141.422a.3.3,0,0,0-.282.282,13.908,13.908,0,0,1-.845,1.83c-1.126,2.252-2.956,8.3-2.534,8.867a.846.846,0,0,1-.141.563c-.282.422-.141,7.6.282,7.6a1.09,1.09,0,0,0,.141.422,26.976,26.976,0,0,0,1.267,4.5c.281.7.563,1.689.7,2.111.281.422.422.845.563.985.141,0,.281.282.281.422.282,1.548,5.067,6.9,7.319,8.164a2.025,2.025,0,0,0,.422.282c.282.422,1.83,1.267,1.548.985,0-.141,0-.141.282-.141.141.141.281.282.141.422a29.207,29.207,0,0,0,4.786,1.971,3.312,3.312,0,0,1,1.126.282,36.823,36.823,0,0,0,12.527.422c2.111-.422,6.334-1.689,6.615-2.111a.517.517,0,0,1,.422-.141,10.659,10.659,0,0,0,2.534-1.267,7.139,7.139,0,0,1,.985-.845,7.978,7.978,0,0,0,1.83-1.408,10.57,10.57,0,0,0,1.126-.985,17.066,17.066,0,0,0,3.519-5.067c.422-.845.281-1.267-.563-1.267a6.91,6.91,0,0,1-1.689-.422,11.475,11.475,0,0,0-1.971-.563c-.281-.141-.563-.141-.845-.281a.492.492,0,0,1-.281-.141,7.922,7.922,0,0,0-1.408-.282.491.491,0,0,1-.281-.141c.141-.141-.985-.422-1.689-.422-.281,0-.563.422-.845.985a16.649,16.649,0,0,1-3.519,3.8c-3.66,3.1-10.556,3.66-15.061,1.408a3.662,3.662,0,0,0-.985-.422c-.141,0-.422-.282-.7-.563a5.5,5.5,0,0,0-.7-.563,16.5,16.5,0,0,1-3.519-3.519c-1.548-2.534-2.674-5.63-2.674-7.178v-.563h40.115l.141-2.393a13.238,13.238,0,0,0,0-3.378c0-.7-.141-1.689-.141-2.252a15.344,15.344,0,0,0-.985-3.8c0-.141-.141-.422,0-.422.422-.422-3.8-8.3-4.645-8.867-.141,0-.563-.422-.985-.845a21.874,21.874,0,0,0-4.082-3.66,3.927,3.927,0,0,1-1.267-.7c-.563-.282-1.126-.7-1.267-.7a.3.3,0,0,1-.281-.282c0-.141-.141-.141-.141,0a.846.846,0,0,1-.563-.141c-.422-.422-2.534-1.126-4.786-1.83a39.4,39.4,0,0,0-9.993-.563m60.665.563a4.582,4.582,0,0,0-1.971.563,16.787,16.787,0,0,0-3.8,1.971c-.141.141-.7.563-1.267.985a20.574,20.574,0,0,0-4.223,4.363c-.141.282-.7.985-1.126,1.548l-.7,1.126v-5.067l-.141-5.208H539.57l-5.067-.141v50.53h11.12V121.3l.7-1.408c.985-1.83,3.941-4.926,4.786-5.067.141-.141.563-.282.7-.422,1.267-1.267,6.9-2.956,10.134-2.956h.985v-5.067l-.141-4.926h-1.971a18.958,18.958,0,0,0-3.1.141m-276.58,7.741a1.883,1.883,0,0,0,.7.141.517.517,0,0,0,.422.141c.141,0,.563.282,1.126.422.563.282.985.422.985.282a.517.517,0,0,1,.422.141,18.954,18.954,0,0,0,2.956,1.83,10.247,10.247,0,0,1,2.393,2.534c0,.141,0,.282.141.282s.422.422.563.7c.141.422.281.7.422.7s.281.282.281.563,0,.422.141.422a.492.492,0,0,1,.282.141c-.141.141,0,.563.281.985.141.563.281.985.281.985l.282,1.126a4.765,4.765,0,0,0,.422,1.126c.7.985.7.985-14.92.985H263.553v-.422a13.43,13.43,0,0,1,1.267-4.223,11.167,11.167,0,0,0,.563-1.267,13.989,13.989,0,0,1,3.378-4.223c.7-.563,1.408-1.126,1.548-1.267a3.076,3.076,0,0,1,.7-.422.628.628,0,0,0,.563-.422.2.2,0,0,1,.281,0c.282.141.985-.141.7-.422,0-.141.141-.141.282,0,.282,0,.422,0,.422-.141s.141-.141.282-.141c.282.141.422.141.282,0a.3.3,0,0,1,.281-.282,10.579,10.579,0,0,0,2.111-.422,31.568,31.568,0,0,1,4.926.141m221.686,0a5.224,5.224,0,0,0,1.267.282,5.737,5.737,0,0,1,.985.282c2.252.985,2.674,1.126,2.674,1.408h.282a.2.2,0,0,1,.282,0,.449.449,0,0,0,.422.422c.985.282,4.223,3.8,4.223,4.5a1.067,1.067,0,0,0,.282.563,14.187,14.187,0,0,1,2.111,5.912c0,.141-5.771.141-14.92.141H485.661v-.7c0-.282.141-.7.141-.845a2.61,2.61,0,0,0,.281-.985,7.583,7.583,0,0,1,.422-1.408,2.432,2.432,0,0,0,.281-.985c-.141,0,.141-.282.422-.7.141-.282.422-.7.422-.7,0-.563,1.971-2.815,3.237-3.941,1.689-1.267,4.223-2.815,3.941-2.393-.141.141.141.141.563-.141a2.61,2.61,0,0,1,.985-.282.731.731,0,0,0,.563-.282c0-.141.141-.141.281-.141.141.141.422,0,.7,0a14.37,14.37,0,0,1,4.926,0M336.463,128.2c2.393.282,5.489,1.126,5.771,1.548a1.055,1.055,0,0,0,.7.141c.422,0,.422.281.422,3.519,0,4.223,0,4.363-2.815,7.178a8.748,8.748,0,0,1-3.519,2.534,16.216,16.216,0,0,0-1.548.985c-.422.141-.422.141-.281-.141.281-.282.141-.282-.141.141-1.267.985-8.023,1.267-9.993.422-.7-.281-1.267-.563-1.267-.563-.141.141-.422-.141-.563-.422-.281-.282-.563-.422-.563-.282,0,1.126-2.956-3.519-3.1-4.926a5.454,5.454,0,0,0-.422-1.548.428.428,0,0,1,0-.563,2.378,2.378,0,0,0,.281-.7c-.141-.845,1.126-3.519,1.971-4.223a5.258,5.258,0,0,0,.985-.845c2.252-2.111,8.3-3.1,14.075-2.252" transform="translate(0)" fill="#f8f9fa"/>
    <path id="path1" d="M76.532,4.538c.141.282.422.563.563.563s.141,0,0-.141c-.141,0-.282-.282-.282-.422s-.141-.282-.422-.422-.282,0,.141.422M268.1,37.474c0,14.779,0,27.025.141,27.165.141.282.141-27.025,0-46.589-.141-4.223-.141,4.5-.141,19.424M90.608,12c-.563.422-.985.845-.845.845L90.889,12c.422-.563.845-.985.7-.985a5.612,5.612,0,0,0-.985.985m-47.152.7c-.563.282-.563.422-.141.282a4.686,4.686,0,0,0,.845-.422c.422-.422.422-.422-.7.141m192.972.141a1.075,1.075,0,0,0,.7.282c.422,0,.422,0,0-.282-.563-.282-.844-.282-.7,0M92.015,14.953c-.422.422-.563.563-.282.563.141,0,.282-.282.563-.563.282-.563.141-.563-.282,0m15.905,7.741c.422.282.845.422.7.141a3.077,3.077,0,0,0-.7-.422c-.422-.141-.422-.141,0,.282m-6.9.282c.7.563,1.267.7.7.282-.422-.282-.7-.563-.845-.563s-.141.141.141.282M33.6,24.665c-.422.422-.563.563-.282.422.422-.141,1.408-1.126,1.267-1.126s-.422.282-.985.7m83.326,1.971a1.984,1.984,0,0,0,.7.422,1.421,1.421,0,0,0,.7.282c0-.141-.282-.282-.7-.422-.422-.282-.7-.422-.7-.282m16.327.7a7.274,7.274,0,0,0,.985.845c.141-.141-1.408-1.689-1.548-1.689s.141.422.563.845m164.681.563c-.282.141-.422.141-.141.141a2.092,2.092,0,0,0,.845-.141c.281-.141.281-.141.141-.141a1.785,1.785,0,0,0-.845.141m109.928,0a1.486,1.486,0,0,0,.7.282c.7,0,.422-.141-.422-.422-.422,0-.563,0-.281.141m-305.716.422c0,.141.282.282.422.282.282.141.563.141.563,0s-.282-.282-.563-.282c-.141-.141-.422,0-.422,0m9.993,0c0,.141.422.282.7.282.422,0,.422,0,0-.282-.7-.282-.845-.282-.7,0m302.9,3.66a3.069,3.069,0,0,1,.7.563c.282.282.282.282,0-.141-.141-.282-.563-.7-.7-.7-.281-.141-.281,0,0,.282m-105,1.126c0,.141.845.563.985.422q0-.211-.422-.422c-.422-.141-.563-.141-.563,0m60.946.845.7.7c.141,0,.141-.141-.282-.563-.563-.7-.7-.7-.422-.141M23.75,34.94a2.43,2.43,0,0,0-.422.563c.141.141.422,0,.563-.282.563-.7.422-.845-.141-.282M12.771,39.585c-.7.7-.563.985,0,.141a1.286,1.286,0,0,0,.422-.7.975.975,0,0,0-.422.563M414.2,39.3c0,.563.422,1.126.422.7,0-.282-.141-.7-.282-.7-.141-.141-.141-.141-.141,0M11.5,41.274l-.422.845.422-.563c.563-.563.7-.985.563-.985s-.282.282-.563.7m39.27.7c-1.267.845-.563.7.985-.141a.138.138,0,0,0-.141-.141c0-.141-.422,0-.845.282m3.1.422a2.141,2.141,0,0,0,.845.563c.422,0,.282-.141-.7-.563l-.7-.422.563.422m37.159.282c-.422.141-.422.141.141.282.282.141.563.141.563,0h-.141c-.141,0-.141-.141-.141-.282.141-.282.141-.282-.422,0m7.319,0c.7.282,1.83.563,1.408.282a4.765,4.765,0,0,0-1.126-.422c-.563,0-.7,0-.282.141m140.612.141c2.393.141,6.334.141,8.867,0h-8.867m9.008,9.571v3.1a41.44,41.44,0,0,0,0-5.912v2.815m144.272-4.645c-.563.282-.563.282-.141.141.7-.141,1.408-.563,1.126-.563-.141,0-.563.282-.985.422M98.49,52.816c.141.141.563.141.845.141.985,0,.845,0-.141-.282-.563-.141-.7,0-.7.141M3.482,57.461c-.141.141-.141.422-.282.563,0,.141.141,0,.282-.141.422-.563.422-.845.282-.845s-.282.141-.282.422m118.655.563a1.456,1.456,0,0,0,.563.141c.282,0,.563,0,.563-.141a1.456,1.456,0,0,0-.563-.141c-.282-.141-.563,0-.563.141M414.48,61.261c-.281.563-.281.563,0,.563a1.067,1.067,0,0,0,.282-.563c.141-.7,0-.7-.282,0M247.829,66.469c0,5.208.141,5.771.141,1.408a14.846,14.846,0,0,0-.141-4.363,17.532,17.532,0,0,0,0,2.956m-39.411-1.83c.281.282.563.563.7.563s-.845-1.126-.985-1.126,0,.282.282.563m137.938,1.548a4.54,4.54,0,0,0,1.83,1.126,4.265,4.265,0,0,0-.985-.7l-.845-.422m92.193.985.845.845c.141,0-.141-.422-.563-.845s-.845-.845-.985-.845a6.24,6.24,0,0,0,.7.845M27.128,88.849c.282.422.563.845.7.845.422.282.141,0-.563-.845l-.7-.7.563.7m-4.082,1.971c0,.141.282.422.563.7s.422.422.422.282a1.286,1.286,0,0,0-.422-.7l-.563-.282M223.76,123.052c0,15.2,0,21.394.141,13.794V109.117c-.141-7.6-.141-1.267-.141,13.935m11.26-.141c0,15.2,0,21.394.141,13.794V109.117c-.141-7.6-.141-1.408-.141,13.794m202.966-21.394c-.422.282-.845.563-.845.7a8.373,8.373,0,0,0,.985-.422l.844-.563c0-.141,0-.141-.985.282m-95.29,0a4.484,4.484,0,0,0,1.126.845c1.126.563.985.282-.422-.563-.422-.282-.845-.422-.7-.282m143.85.422c-.845.422-.845.7.141.282.281-.282.7-.422.7-.563s-.141-.141-.845.282m-430.564.845a6.238,6.238,0,0,0,.7.845l.7.7-.563-.845c-.422-.563-.845-.985-.845-.7m291.077,1.83c.282.282.563.563.7.563.141-.141-.985-1.267-1.126-1.267s0,.282.422.7m58.835,1.267c.563.7,1.408,1.408,1.408,1.267a11.867,11.867,0,0,0-.985-1.126c-.985-.985-1.126-.985-.422-.141m26.6,0c-.282.422-.7.845-.845,1.126-.141.141,0,.141.281-.141a4.247,4.247,0,0,1,1.126-1.126c.281-.422.563-.7.422-.7s-.563.422-.985.845m113.447.563c-.422.563-.7.985-.563.985a10.245,10.245,0,0,0,.845-.985c.422-.422.7-.845.563-.845l-.844.845m-234.635,1.689c.422.845.844,1.408.844.985,0-.141-.141-.282-.281-.422-.141,0-.281-.422-.281-.845-.141-.282-.281-.7-.422-.7s0,.422.141.985m23.083-.282c.422.282.7.282.7,0,0-.141-.282-.141-.563-.141-.422,0-.422,0-.141.141m30.966,3.8c-.282.563-.282.845.141.422a1.067,1.067,0,0,0,.281-.563c0-.422-.141-.422-.422.141m69.391,1.408c-.281.422-.563.7-.422.7s1.267-1.126,1.126-1.267a5.5,5.5,0,0,0-.7.563m-58.272,1.83a2.431,2.431,0,0,0-.422.563c.141,0,.422-.282.7-.563a5.924,5.924,0,0,1,.281-.7,5.081,5.081,0,0,0-.563.7m96.7,5.349c-.141,1.267,0,1.267.281.141.141-.563.141-.985,0-.985l-.281.845M453.328,135.86l.141,14.638V136c.141-7.882,0-14.5-.141-14.5V135.86M77.518,127.274a4.977,4.977,0,0,0,.845.141c.422.141.563.141.282,0-.282-.281-1.408-.422-1.126-.141m428.875,14.357a6.232,6.232,0,0,0-1.267.7,11.707,11.707,0,0,0,2.815-1.267c.282-.282-.422,0-1.548.563M23.187,142.757c.422.422.7.845.845.845l-.563-.845c-.422-.422-.7-.845-.845-.845s.141.422.563.845m363.847-.563c.141.141.563.141,1.126.141.422,0,.844,0,.985-.141s-.281-.141-.985-.141c-.845,0-1.267,0-1.126.141m-335.7,14.5c.141.282,1.548.985,1.548.845l-.845-.563c-.422-.282-.7-.422-.7-.282" transform="translate(1.226 1.63)" fill="#f8f9fa"/>
    <path id="path2" d="M76.532,4.538c.141.282.422.563.563.563s.141,0,0-.141c-.141,0-.282-.282-.282-.422s-.141-.282-.422-.422-.282,0,.141.422M268.1,37.474c0,14.779,0,27.025.141,27.165.141.282.141-27.025,0-46.589-.141-4.223-.141,4.5-.141,19.424M90.608,12c-.563.422-.985.845-.845.845L90.889,12c.422-.563.845-.985.7-.985a5.612,5.612,0,0,0-.985.985m-47.152.7c-.563.282-.563.422-.141.282a4.686,4.686,0,0,0,.845-.422c.422-.422.422-.422-.7.141m192.972.141a1.075,1.075,0,0,0,.7.282c.422,0,.422,0,0-.282-.563-.282-.844-.282-.7,0M92.015,14.953c-.422.422-.563.563-.282.563.141,0,.282-.282.563-.563.282-.563.141-.563-.282,0m15.905,7.741c.422.282.845.422.7.141a3.077,3.077,0,0,0-.7-.422c-.422-.141-.422-.141,0,.282m-6.9.282c.7.563,1.267.7.7.282-.422-.282-.7-.563-.845-.563s-.141.141.141.282M33.6,24.665c-.422.422-.563.563-.282.422.422-.141,1.408-1.126,1.267-1.126s-.422.282-.985.7m83.326,1.971a1.984,1.984,0,0,0,.7.422,1.421,1.421,0,0,0,.7.282c0-.141-.282-.282-.7-.422-.422-.282-.7-.422-.7-.282m16.327.7a7.274,7.274,0,0,0,.985.845c.141-.141-1.408-1.689-1.548-1.689s.141.422.563.845m164.681.563c-.282.141-.422.141-.141.141a2.092,2.092,0,0,0,.845-.141c.281-.141.281-.141.141-.141a1.785,1.785,0,0,0-.845.141m109.928,0a1.486,1.486,0,0,0,.7.282c.7,0,.422-.141-.422-.422-.422,0-.563,0-.281.141m-305.716.422c0,.141.282.282.422.282.282.141.563.141.563,0s-.282-.282-.563-.282c-.141-.141-.422,0-.422,0m9.993,0c0,.141.422.282.7.282.422,0,.422,0,0-.282-.7-.282-.845-.282-.7,0m302.9,3.66a3.069,3.069,0,0,1,.7.563c.282.282.282.282,0-.141-.141-.282-.563-.7-.7-.7-.281-.141-.281,0,0,.282m-105,1.126c0,.141.845.563.985.422q0-.211-.422-.422c-.422-.141-.563-.141-.563,0m60.946.845.7.7c.141,0,.141-.141-.282-.563-.563-.7-.7-.7-.422-.141M23.75,34.94a2.43,2.43,0,0,0-.422.563c.141.141.422,0,.563-.282.563-.7.422-.845-.141-.282M12.771,39.585c-.7.7-.563.985,0,.141a1.286,1.286,0,0,0,.422-.7.975.975,0,0,0-.422.563M414.2,39.3c0,.563.422,1.126.422.7,0-.282-.141-.7-.282-.7-.141-.141-.141-.141-.141,0M11.5,41.274l-.422.845.422-.563c.563-.563.7-.985.563-.985s-.282.282-.563.7m39.27.7c-1.267.845-.563.7.985-.141a.138.138,0,0,0-.141-.141c0-.141-.422,0-.845.282m3.1.422a2.141,2.141,0,0,0,.845.563c.422,0,.282-.141-.7-.563l-.7-.422.563.422m37.159.282c-.422.141-.422.141.141.282.282.141.563.141.563,0h-.141c-.141,0-.141-.141-.141-.282.141-.282.141-.282-.422,0m7.319,0c.7.282,1.83.563,1.408.282a4.765,4.765,0,0,0-1.126-.422c-.563,0-.7,0-.282.141m140.612.141c2.393.141,6.334.141,8.867,0h-8.867m9.008,9.571v3.1a41.44,41.44,0,0,0,0-5.912v2.815m144.272-4.645c-.563.282-.563.282-.141.141.7-.141,1.408-.563,1.126-.563-.141,0-.563.282-.985.422M98.49,52.816c.141.141.563.141.845.141.985,0,.845,0-.141-.282-.563-.141-.7,0-.7.141M3.482,57.461c-.141.141-.141.422-.282.563,0,.141.141,0,.282-.141.422-.563.422-.845.282-.845s-.282.141-.282.422m118.655.563a1.456,1.456,0,0,0,.563.141c.282,0,.563,0,.563-.141a1.456,1.456,0,0,0-.563-.141c-.282-.141-.563,0-.563.141M414.48,61.261c-.281.563-.281.563,0,.563a1.067,1.067,0,0,0,.282-.563c.141-.7,0-.7-.282,0M247.829,66.469c0,5.208.141,5.771.141,1.408a14.846,14.846,0,0,0-.141-4.363,17.532,17.532,0,0,0,0,2.956m-39.411-1.83c.281.282.563.563.7.563s-.845-1.126-.985-1.126,0,.282.282.563m137.938,1.548a4.54,4.54,0,0,0,1.83,1.126,4.265,4.265,0,0,0-.985-.7l-.845-.422m92.193.985.845.845c.141,0-.141-.422-.563-.845s-.845-.845-.985-.845a6.24,6.24,0,0,0,.7.845M27.128,88.849c.282.422.563.845.7.845.422.282.141,0-.563-.845l-.7-.7.563.7m-4.082,1.971c0,.141.282.422.563.7s.422.422.422.282a1.286,1.286,0,0,0-.422-.7l-.563-.282M223.76,123.052c0,15.2,0,21.394.141,13.794V109.117c-.141-7.6-.141-1.267-.141,13.935m11.26-.141c0,15.2,0,21.394.141,13.794V109.117c-.141-7.6-.141-1.408-.141,13.794m202.966-21.394c-.422.282-.845.563-.845.7a8.373,8.373,0,0,0,.985-.422l.844-.563c0-.141,0-.141-.985.282m-95.29,0a4.484,4.484,0,0,0,1.126.845c1.126.563.985.282-.422-.563-.422-.282-.845-.422-.7-.282m143.85.422c-.845.422-.845.7.141.282.281-.282.7-.422.7-.563s-.141-.141-.845.282m-430.564.845a6.238,6.238,0,0,0,.7.845l.7.7-.563-.845c-.422-.563-.845-.985-.845-.7m291.077,1.83c.282.282.563.563.7.563.141-.141-.985-1.267-1.126-1.267s0,.282.422.7m58.835,1.267c.563.7,1.408,1.408,1.408,1.267a11.867,11.867,0,0,0-.985-1.126c-.985-.985-1.126-.985-.422-.141m26.6,0c-.282.422-.7.845-.845,1.126-.141.141,0,.141.281-.141a4.247,4.247,0,0,1,1.126-1.126c.281-.422.563-.7.422-.7s-.563.422-.985.845m113.447.563c-.422.563-.7.985-.563.985a10.245,10.245,0,0,0,.845-.985c.422-.422.7-.845.563-.845l-.844.845m-234.635,1.689c.422.845.844,1.408.844.985,0-.141-.141-.282-.281-.422-.141,0-.281-.422-.281-.845-.141-.282-.281-.7-.422-.7s0,.422.141.985m23.083-.282c.422.282.7.282.7,0,0-.141-.282-.141-.563-.141-.422,0-.422,0-.141.141m30.966,3.8c-.282.563-.282.845.141.422a1.067,1.067,0,0,0,.281-.563c0-.422-.141-.422-.422.141m69.391,1.408c-.281.422-.563.7-.422.7s1.267-1.126,1.126-1.267a5.5,5.5,0,0,0-.7.563m-58.272,1.83a2.431,2.431,0,0,0-.422.563c.141,0,.422-.282.7-.563a5.924,5.924,0,0,1,.281-.7,5.081,5.081,0,0,0-.563.7m96.7,5.349c-.141,1.267,0,1.267.281.141.141-.563.141-.985,0-.985l-.281.845M453.328,135.86l.141,14.638V136c.141-7.882,0-14.5-.141-14.5V135.86M77.518,127.274a4.977,4.977,0,0,0,.845.141c.422.141.563.141.282,0-.282-.281-1.408-.422-1.126-.141m428.875,14.357a6.232,6.232,0,0,0-1.267.7,11.707,11.707,0,0,0,2.815-1.267c.282-.282-.422,0-1.548.563M23.187,142.757c.422.422.7.845.845.845l-.563-.845c-.422-.422-.7-.845-.845-.845s.141.422.563.845m363.847-.563c.141.141.563.141,1.126.141.422,0,.844,0,.985-.141s-.281-.141-.985-.141c-.845,0-1.267,0-1.126.141m-335.7,14.5c.141.282,1.548.985,1.548.845l-.845-.563c-.422-.282-.7-.422-.7-.282" transform="translate(1.226 1.63)" fill="#f8f9fa"/>
    <path id="path3" d="M76.532,4.538c.141.282.422.563.563.563s.141,0,0-.141c-.141,0-.282-.282-.282-.422s-.141-.282-.422-.422-.282,0,.141.422M268.1,37.474c0,14.779,0,27.025.141,27.165.141.282.141-27.025,0-46.589-.141-4.223-.141,4.5-.141,19.424M90.608,12c-.563.422-.985.845-.845.845L90.889,12c.422-.563.845-.985.7-.985a5.612,5.612,0,0,0-.985.985m-47.152.7c-.563.282-.563.422-.141.282a4.686,4.686,0,0,0,.845-.422c.422-.422.422-.422-.7.141m192.972.141a1.075,1.075,0,0,0,.7.282c.422,0,.422,0,0-.282-.563-.282-.844-.282-.7,0M92.015,14.953c-.422.422-.563.563-.282.563.141,0,.282-.282.563-.563.282-.563.141-.563-.282,0m15.905,7.741c.422.282.845.422.7.141a3.077,3.077,0,0,0-.7-.422c-.422-.141-.422-.141,0,.282m-6.9.282c.7.563,1.267.7.7.282-.422-.282-.7-.563-.845-.563s-.141.141.141.282M33.6,24.665c-.422.422-.563.563-.282.422.422-.141,1.408-1.126,1.267-1.126s-.422.282-.985.7m83.326,1.971a1.984,1.984,0,0,0,.7.422,1.421,1.421,0,0,0,.7.282c0-.141-.282-.282-.7-.422-.422-.282-.7-.422-.7-.282m16.327.7a7.274,7.274,0,0,0,.985.845c.141-.141-1.408-1.689-1.548-1.689s.141.422.563.845m164.681.563c-.282.141-.422.141-.141.141a2.092,2.092,0,0,0,.845-.141c.281-.141.281-.141.141-.141a1.785,1.785,0,0,0-.845.141m109.928,0a1.486,1.486,0,0,0,.7.282c.7,0,.422-.141-.422-.422-.422,0-.563,0-.281.141m-305.716.422c0,.141.282.282.422.282.282.141.563.141.563,0s-.282-.282-.563-.282c-.141-.141-.422,0-.422,0m9.993,0c0,.141.422.282.7.282.422,0,.422,0,0-.282-.7-.282-.845-.282-.7,0m302.9,3.66a3.069,3.069,0,0,1,.7.563c.282.282.282.282,0-.141-.141-.282-.563-.7-.7-.7-.281-.141-.281,0,0,.282m-105,1.126c0,.141.845.563.985.422q0-.211-.422-.422c-.422-.141-.563-.141-.563,0m60.946.845.7.7c.141,0,.141-.141-.282-.563-.563-.7-.7-.7-.422-.141M23.75,34.94a2.43,2.43,0,0,0-.422.563c.141.141.422,0,.563-.282.563-.7.422-.845-.141-.282M12.771,39.585c-.7.7-.563.985,0,.141a1.286,1.286,0,0,0,.422-.7.975.975,0,0,0-.422.563M414.2,39.3c0,.563.422,1.126.422.7,0-.282-.141-.7-.282-.7-.141-.141-.141-.141-.141,0M11.5,41.274l-.422.845.422-.563c.563-.563.7-.985.563-.985s-.282.282-.563.7m39.27.7c-1.267.845-.563.7.985-.141a.138.138,0,0,0-.141-.141c0-.141-.422,0-.845.282m3.1.422a2.141,2.141,0,0,0,.845.563c.422,0,.282-.141-.7-.563l-.7-.422.563.422m37.159.282c-.422.141-.422.141.141.282.282.141.563.141.563,0h-.141c-.141,0-.141-.141-.141-.282.141-.282.141-.282-.422,0m7.319,0c.7.282,1.83.563,1.408.282a4.765,4.765,0,0,0-1.126-.422c-.563,0-.7,0-.282.141m140.612.141c2.393.141,6.334.141,8.867,0h-8.867m9.008,9.571v3.1a41.44,41.44,0,0,0,0-5.912v2.815m144.272-4.645c-.563.282-.563.282-.141.141.7-.141,1.408-.563,1.126-.563-.141,0-.563.282-.985.422M98.49,52.816c.141.141.563.141.845.141.985,0,.845,0-.141-.282-.563-.141-.7,0-.7.141M3.482,57.461c-.141.141-.141.422-.282.563,0,.141.141,0,.282-.141.422-.563.422-.845.282-.845s-.282.141-.282.422m118.655.563a1.456,1.456,0,0,0,.563.141c.282,0,.563,0,.563-.141a1.456,1.456,0,0,0-.563-.141c-.282-.141-.563,0-.563.141M414.48,61.261c-.281.563-.281.563,0,.563a1.067,1.067,0,0,0,.282-.563c.141-.7,0-.7-.282,0M247.829,66.469c0,5.208.141,5.771.141,1.408a14.846,14.846,0,0,0-.141-4.363,17.532,17.532,0,0,0,0,2.956m-39.411-1.83c.281.282.563.563.7.563s-.845-1.126-.985-1.126,0,.282.282.563m137.938,1.548a4.54,4.54,0,0,0,1.83,1.126,4.265,4.265,0,0,0-.985-.7l-.845-.422m92.193.985.845.845c.141,0-.141-.422-.563-.845s-.845-.845-.985-.845a6.24,6.24,0,0,0,.7.845M27.128,88.849c.282.422.563.845.7.845.422.282.141,0-.563-.845l-.7-.7.563.7m-4.082,1.971c0,.141.282.422.563.7s.422.422.422.282a1.286,1.286,0,0,0-.422-.7l-.563-.282M223.76,123.052c0,15.2,0,21.394.141,13.794V109.117c-.141-7.6-.141-1.267-.141,13.935m11.26-.141c0,15.2,0,21.394.141,13.794V109.117c-.141-7.6-.141-1.408-.141,13.794m202.966-21.394c-.422.282-.845.563-.845.7a8.373,8.373,0,0,0,.985-.422l.844-.563c0-.141,0-.141-.985.282m-95.29,0a4.484,4.484,0,0,0,1.126.845c1.126.563.985.282-.422-.563-.422-.282-.845-.422-.7-.282m143.85.422c-.845.422-.845.7.141.282.281-.282.7-.422.7-.563s-.141-.141-.845.282m-430.564.845a6.238,6.238,0,0,0,.7.845l.7.7-.563-.845c-.422-.563-.845-.985-.845-.7m291.077,1.83c.282.282.563.563.7.563.141-.141-.985-1.267-1.126-1.267s0,.282.422.7m58.835,1.267c.563.7,1.408,1.408,1.408,1.267a11.867,11.867,0,0,0-.985-1.126c-.985-.985-1.126-.985-.422-.141m26.6,0c-.282.422-.7.845-.845,1.126-.141.141,0,.141.281-.141a4.247,4.247,0,0,1,1.126-1.126c.281-.422.563-.7.422-.7s-.563.422-.985.845m113.447.563c-.422.563-.7.985-.563.985a10.245,10.245,0,0,0,.845-.985c.422-.422.7-.845.563-.845l-.844.845m-234.635,1.689c.422.845.844,1.408.844.985,0-.141-.141-.282-.281-.422-.141,0-.281-.422-.281-.845-.141-.282-.281-.7-.422-.7s0,.422.141.985m23.083-.282c.422.282.7.282.7,0,0-.141-.282-.141-.563-.141-.422,0-.422,0-.141.141m30.966,3.8c-.282.563-.282.845.141.422a1.067,1.067,0,0,0,.281-.563c0-.422-.141-.422-.422.141m69.391,1.408c-.281.422-.563.7-.422.7s1.267-1.126,1.126-1.267a5.5,5.5,0,0,0-.7.563m-58.272,1.83a2.431,2.431,0,0,0-.422.563c.141,0,.422-.282.7-.563a5.924,5.924,0,0,1,.281-.7,5.081,5.081,0,0,0-.563.7m96.7,5.349c-.141,1.267,0,1.267.281.141.141-.563.141-.985,0-.985l-.281.845M453.328,135.86l.141,14.638V136c.141-7.882,0-14.5-.141-14.5V135.86M77.518,127.274a4.977,4.977,0,0,0,.845.141c.422.141.563.141.282,0-.282-.281-1.408-.422-1.126-.141m428.875,14.357a6.232,6.232,0,0,0-1.267.7,11.707,11.707,0,0,0,2.815-1.267c.282-.282-.422,0-1.548.563M23.187,142.757c.422.422.7.845.845.845l-.563-.845c-.422-.422-.7-.845-.845-.845s.141.422.563.845m363.847-.563c.141.141.563.141,1.126.141.422,0,.844,0,.985-.141s-.281-.141-.985-.141c-.845,0-1.267,0-1.126.141m-335.7,14.5c.141.282,1.548.985,1.548.845l-.845-.563c-.422-.282-.7-.422-.7-.282" transform="translate(1.226 1.63)" fill="#f8f9fa"/>
    <path id="path4" d="M76.532,4.538c.141.282.422.563.563.563s.141,0,0-.141c-.141,0-.282-.282-.282-.422s-.141-.282-.422-.422-.282,0,.141.422M268.1,37.474c0,14.779,0,27.025.141,27.165.141.282.141-27.025,0-46.589-.141-4.223-.141,4.5-.141,19.424M90.608,12c-.563.422-.985.845-.845.845L90.889,12c.422-.563.845-.985.7-.985a5.612,5.612,0,0,0-.985.985m-47.152.7c-.563.282-.563.422-.141.282a4.686,4.686,0,0,0,.845-.422c.422-.422.422-.422-.7.141m192.972.141a1.075,1.075,0,0,0,.7.282c.422,0,.422,0,0-.282-.563-.282-.844-.282-.7,0M92.015,14.953c-.422.422-.563.563-.282.563.141,0,.282-.282.563-.563.282-.563.141-.563-.282,0m15.905,7.741c.422.282.845.422.7.141a3.077,3.077,0,0,0-.7-.422c-.422-.141-.422-.141,0,.282m-6.9.282c.7.563,1.267.7.7.282-.422-.282-.7-.563-.845-.563s-.141.141.141.282M33.6,24.665c-.422.422-.563.563-.282.422.422-.141,1.408-1.126,1.267-1.126s-.422.282-.985.7m83.326,1.971a1.984,1.984,0,0,0,.7.422,1.421,1.421,0,0,0,.7.282c0-.141-.282-.282-.7-.422-.422-.282-.7-.422-.7-.282m16.327.7a7.274,7.274,0,0,0,.985.845c.141-.141-1.408-1.689-1.548-1.689s.141.422.563.845m164.681.563c-.282.141-.422.141-.141.141a2.092,2.092,0,0,0,.845-.141c.281-.141.281-.141.141-.141a1.785,1.785,0,0,0-.845.141m109.928,0a1.486,1.486,0,0,0,.7.282c.7,0,.422-.141-.422-.422-.422,0-.563,0-.281.141m-305.716.422c0,.141.282.282.422.282.282.141.563.141.563,0s-.282-.282-.563-.282c-.141-.141-.422,0-.422,0m9.993,0c0,.141.422.282.7.282.422,0,.422,0,0-.282-.7-.282-.845-.282-.7,0m302.9,3.66a3.069,3.069,0,0,1,.7.563c.282.282.282.282,0-.141-.141-.282-.563-.7-.7-.7-.281-.141-.281,0,0,.282m-105,1.126c0,.141.845.563.985.422q0-.211-.422-.422c-.422-.141-.563-.141-.563,0m60.946.845.7.7c.141,0,.141-.141-.282-.563-.563-.7-.7-.7-.422-.141M23.75,34.94a2.43,2.43,0,0,0-.422.563c.141.141.422,0,.563-.282.563-.7.422-.845-.141-.282M12.771,39.585c-.7.7-.563.985,0,.141a1.286,1.286,0,0,0,.422-.7.975.975,0,0,0-.422.563M414.2,39.3c0,.563.422,1.126.422.7,0-.282-.141-.7-.282-.7-.141-.141-.141-.141-.141,0M11.5,41.274l-.422.845.422-.563c.563-.563.7-.985.563-.985s-.282.282-.563.7m39.27.7c-1.267.845-.563.7.985-.141a.138.138,0,0,0-.141-.141c0-.141-.422,0-.845.282m3.1.422a2.141,2.141,0,0,0,.845.563c.422,0,.282-.141-.7-.563l-.7-.422.563.422m37.159.282c-.422.141-.422.141.141.282.282.141.563.141.563,0h-.141c-.141,0-.141-.141-.141-.282.141-.282.141-.282-.422,0m7.319,0c.7.282,1.83.563,1.408.282a4.765,4.765,0,0,0-1.126-.422c-.563,0-.7,0-.282.141m140.612.141c2.393.141,6.334.141,8.867,0h-8.867m9.008,9.571v3.1a41.44,41.44,0,0,0,0-5.912v2.815m144.272-4.645c-.563.282-.563.282-.141.141.7-.141,1.408-.563,1.126-.563-.141,0-.563.282-.985.422M98.49,52.816c.141.141.563.141.845.141.985,0,.845,0-.141-.282-.563-.141-.7,0-.7.141M3.482,57.461c-.141.141-.141.422-.282.563,0,.141.141,0,.282-.141.422-.563.422-.845.282-.845s-.282.141-.282.422m118.655.563a1.456,1.456,0,0,0,.563.141c.282,0,.563,0,.563-.141a1.456,1.456,0,0,0-.563-.141c-.282-.141-.563,0-.563.141M414.48,61.261c-.281.563-.281.563,0,.563a1.067,1.067,0,0,0,.282-.563c.141-.7,0-.7-.282,0M247.829,66.469c0,5.208.141,5.771.141,1.408a14.846,14.846,0,0,0-.141-4.363,17.532,17.532,0,0,0,0,2.956m-39.411-1.83c.281.282.563.563.7.563s-.845-1.126-.985-1.126,0,.282.282.563m137.938,1.548a4.54,4.54,0,0,0,1.83,1.126,4.265,4.265,0,0,0-.985-.7l-.845-.422m92.193.985.845.845c.141,0-.141-.422-.563-.845s-.845-.845-.985-.845a6.24,6.24,0,0,0,.7.845M27.128,88.849c.282.422.563.845.7.845.422.282.141,0-.563-.845l-.7-.7.563.7m-4.082,1.971c0,.141.282.422.563.7s.422.422.422.282a1.286,1.286,0,0,0-.422-.7l-.563-.282M223.76,123.052c0,15.2,0,21.394.141,13.794V109.117c-.141-7.6-.141-1.267-.141,13.935m11.26-.141c0,15.2,0,21.394.141,13.794V109.117c-.141-7.6-.141-1.408-.141,13.794m202.966-21.394c-.422.282-.845.563-.845.7a8.373,8.373,0,0,0,.985-.422l.844-.563c0-.141,0-.141-.985.282m-95.29,0a4.484,4.484,0,0,0,1.126.845c1.126.563.985.282-.422-.563-.422-.282-.845-.422-.7-.282m143.85.422c-.845.422-.845.7.141.282.281-.282.7-.422.7-.563s-.141-.141-.845.282m-430.564.845a6.238,6.238,0,0,0,.7.845l.7.7-.563-.845c-.422-.563-.845-.985-.845-.7m291.077,1.83c.282.282.563.563.7.563.141-.141-.985-1.267-1.126-1.267s0,.282.422.7m58.835,1.267c.563.7,1.408,1.408,1.408,1.267a11.867,11.867,0,0,0-.985-1.126c-.985-.985-1.126-.985-.422-.141m26.6,0c-.282.422-.7.845-.845,1.126-.141.141,0,.141.281-.141a4.247,4.247,0,0,1,1.126-1.126c.281-.422.563-.7.422-.7s-.563.422-.985.845m113.447.563c-.422.563-.7.985-.563.985a10.245,10.245,0,0,0,.845-.985c.422-.422.7-.845.563-.845l-.844.845m-234.635,1.689c.422.845.844,1.408.844.985,0-.141-.141-.282-.281-.422-.141,0-.281-.422-.281-.845-.141-.282-.281-.7-.422-.7s0,.422.141.985m23.083-.282c.422.282.7.282.7,0,0-.141-.282-.141-.563-.141-.422,0-.422,0-.141.141m30.966,3.8c-.282.563-.282.845.141.422a1.067,1.067,0,0,0,.281-.563c0-.422-.141-.422-.422.141m69.391,1.408c-.281.422-.563.7-.422.7s1.267-1.126,1.126-1.267a5.5,5.5,0,0,0-.7.563m-58.272,1.83a2.431,2.431,0,0,0-.422.563c.141,0,.422-.282.7-.563a5.924,5.924,0,0,1,.281-.7,5.081,5.081,0,0,0-.563.7m96.7,5.349c-.141,1.267,0,1.267.281.141.141-.563.141-.985,0-.985l-.281.845M453.328,135.86l.141,14.638V136c.141-7.882,0-14.5-.141-14.5V135.86M77.518,127.274a4.977,4.977,0,0,0,.845.141c.422.141.563.141.282,0-.282-.281-1.408-.422-1.126-.141m428.875,14.357a6.232,6.232,0,0,0-1.267.7,11.707,11.707,0,0,0,2.815-1.267c.282-.282-.422,0-1.548.563M23.187,142.757c.422.422.7.845.845.845l-.563-.845c-.422-.422-.7-.845-.845-.845s.141.422.563.845m363.847-.563c.141.141.563.141,1.126.141.422,0,.844,0,.985-.141s-.281-.141-.985-.141c-.845,0-1.267,0-1.126.141m-335.7,14.5c.141.282,1.548.985,1.548.845l-.845-.563c-.422-.282-.7-.422-.7-.282" transform="translate(1.226 1.63)" fill="#f8f9fa"/>
  </g>
</svg>
