<svg xmlns="http://www.w3.org/2000/svg" width="1920" height="832.927" viewBox="0 0 1920 832.927"><defs><style>.a{fill:rgba(255,255,255,0.3);}.b{fill:rgba(255,255,255,0.6);}.c{fill:#f8f9fa;}</style></defs><path class="a" d="M1920,0V832.927H0V.363L897.317,779.17c24.674,21.414,35.446,26.938,48.293,30.557a69.271,69.271,0,0,0,38.579-.107c12.829-3.69,23.573-9.274,48.138-30.825Z"/><g transform="translate(0 79)"><path class="b" d="M1920,79V832.927H0V79L897.317,775.132c24.674,23.023,35.446,28.961,48.293,32.852a64.624,64.624,0,0,0,38.579-.116c12.829-3.965,23.573-9.968,48.138-33.139Z" transform="translate(0 -79)"/></g><path class="c" d="M1920,159V832.927H0V159L897.317,769.109c24.674,25.421,35.446,31.979,48.293,36.275a58.822,58.822,0,0,0,38.579-.126c12.829-4.382,23.573-11.008,48.138-36.594Z"/></svg>