<svg xmlns="http://www.w3.org/2000/svg" width="23.051" height="23.051" viewBox="0 0 23.051 23.051"><defs><style>.a{fill:#f6f7f8;}</style></defs><path class="a" d="M14.1,1.928A11.526,11.526,0,1,0,25.622,13.454,11.526,11.526,0,0,0,14.1,1.928Zm0,21.611a10.051,10.051,0,0,1-3.99-.821l5.248-5.9a.72.72,0,0,0,.182-.479V14.174a.72.72,0,0,0-.72-.72c-2.544,0-5.227-2.644-5.254-2.67a.72.72,0,0,0-.509-.211H6.172a.72.72,0,0,0-.72.72v4.322a.72.72,0,0,0,.4.644L8.334,17.5v4.23a10.091,10.091,0,0,1-3.351-12.6H7.613a.72.72,0,0,0,.509-.211L11,6.039a.72.72,0,0,0,.211-.509V3.787a10.113,10.113,0,0,1,7.3.6c-.093.079-.184.161-.271.248A4.323,4.323,0,0,0,21.3,12.014q.107,0,.214-.005a16.916,16.916,0,0,1-.189,8.382.719.719,0,0,0-.019.118A10.054,10.054,0,0,1,14.1,23.539Z" transform="translate(-2.571 -1.928)"/></svg>