<svg xmlns="http://www.w3.org/2000/svg" width="19.848" height="23.512" viewBox="0 0 19.848 23.512"><defs><style>.a{fill:#707070;}</style></defs><path class="a" d="M26.572,39.551a2.507,2.507,0,0,0-2.146-1.95,66.682,66.682,0,0,0-7.432-.275,66.7,66.7,0,0,0-7.433.275,2.507,2.507,0,0,0-2.144,1.95,21.251,21.251,0,0,0-.35,4.692,21.247,21.247,0,0,0,.346,4.692,2.507,2.507,0,0,0,2.145,1.95,66.688,66.688,0,0,0,7.432.275,66.64,66.64,0,0,0,7.433-.275,2.507,2.507,0,0,0,2.145-1.95,21.263,21.263,0,0,0,.347-4.692A21.279,21.279,0,0,0,26.572,39.551ZM12.728,40.716H11.292v7.633H9.957V40.716H8.547v-1.25h4.181Zm3.624,7.634h-1.2v-.722a1.922,1.922,0,0,1-1.371.813.736.736,0,0,1-.773-.492,3.378,3.378,0,0,1-.106-.984V41.73h1.2V46.6a3.735,3.735,0,0,0,.011.466c.029.186.12.281.281.281.241,0,.492-.185.758-.562V41.73h1.2v6.619Zm4.557-1.987a5.288,5.288,0,0,1-.121,1.334.95.95,0,0,1-.958.744,1.635,1.635,0,0,1-1.24-.732v.642h-1.2V39.465h1.2v2.9a1.625,1.625,0,0,1,1.24-.718.949.949,0,0,1,.958.747,5.083,5.083,0,0,1,.121,1.331Zm4.527-1.1h-2.4v1.173c0,.613.2.919.613.919a.515.515,0,0,0,.536-.481,7.546,7.546,0,0,0,.027-.813h1.224v.175c0,.387-.015.653-.026.773a1.709,1.709,0,0,1-.28.719,1.66,1.66,0,0,1-1.451.718,1.718,1.718,0,0,1-1.452-.678,2.564,2.564,0,0,1-.385-1.557V43.888a2.576,2.576,0,0,1,.371-1.56,1.705,1.705,0,0,1,1.437-.679,1.666,1.666,0,0,1,1.415.679,2.6,2.6,0,0,1,.371,1.56v1.37Z" transform="translate(-7.067 -27.647)"/><path class="a" d="M69.259,58.163q-.6,0-.6.918v.612h1.2v-.612C69.856,58.469,69.656,58.163,69.259,58.163Z" transform="translate(-52.687 -43.081)"/><path class="a" d="M52.1,58.163a.859.859,0,0,0-.6.292v4.034a.856.856,0,0,0,.6.3c.346,0,.522-.3.522-.893V59.066C52.625,58.469,52.449,58.163,52.1,58.163Z" transform="translate(-39.982 -43.081)"/><path class="a" d="M53.858,15.6a1.947,1.947,0,0,0,1.385-.821v.73h1.212V8.82H55.243v5.113c-.269.38-.523.567-.766.567-.162,0-.258-.1-.284-.284a2.81,2.81,0,0,1-.015-.471V8.82H52.97v5.29a3.38,3.38,0,0,0,.107.995A.744.744,0,0,0,53.858,15.6Z" transform="translate(-41.067 -6.533)"/><path class="a" d="M19.041,5.341V8.977h1.344V5.341L22,0H20.643l-.917,3.525L18.771,0H17.357c.283.832.578,1.668.862,2.5A22.113,22.113,0,0,1,19.041,5.341Z" transform="translate(-14.689)"/><path class="a" d="M37.1,15.37a1.652,1.652,0,0,0,1.414-.685,2.617,2.617,0,0,0,.376-1.573V10.77a2.622,2.622,0,0,0-.376-1.576,1.8,1.8,0,0,0-2.825,0,2.6,2.6,0,0,0-.379,1.576v2.343a2.593,2.593,0,0,0,.379,1.573A1.652,1.652,0,0,0,37.1,15.37Zm-.579-4.843c0-.619.188-.928.579-.928s.578.308.578.928v2.814c0,.619-.187.929-.578.929s-.579-.31-.579-.929Z" transform="translate(-27.989 -6.302)"/></svg>