<svg fill="#f48924"
  xmlns="http://www.w3.org/2000/svg" id="svg" width="134" height="40" viewBox="0 0 400 120.1">
  <style>.a{fill:#f88c24;}</style>
  <g id="svgg">
    <path id="path0" d="M74.9 0.4C73.9 0.6 73.6 0.8 73.6 1.1 73.3 2.3 73 4.8 73 5.1 73 5.5 72 6.2 71.2 6.2 71.1 6.2 70.8 6.3 70.7 6.4 70.6 6.5 70.5 6.5 70.5 6.4 70.5 6.4 70.2 6.5 69.9 6.7 69.6 6.9 69.3 7 69.2 6.9 69.1 6.9 69 6.9 69 7 69 7.1 68.8 7.2 68.6 7.3 67.7 7.6 64 10.8 64 11.4 64 11.5 63.8 11.8 63.6 12 63.1 12.6 63.1 12.8 63.4 13.1 63.6 13.3 64 15.8 63.9 15.9 63.8 15.9 63.5 15.9 63.2 15.7 62.1 15.3 59.2 15.6 56.6 16.3 55.8 16.5 55 16.7 54.8 16.7 54.7 16.8 54.1 17 53.6 17.3 53.1 17.6 52.3 18 51.7 18.3 51.1 18.6 50.3 19.2 49.9 19.6 49.5 20 49.1 20.3 49 20.3 48.9 20.3 48.8 20.4 48.8 20.6 48.8 20.7 48.8 20.8 48.7 20.8 48.5 20.7 47.6 21.7 47.6 21.9 47.7 21.9 47.6 22 47.5 22 47.3 22 46.1 23.7 45.8 24.6 45.6 25 45.4 25.5 45.3 25.6 45.2 25.7 45.2 25.9 45.2 26 45.2 26.2 45.1 26.3 45 26.2 44.6 26 45.2 26.8 46 27.6L46.8 28.4 44.9 28.5 42.9 28.6 42.9 30.9C42.9 32.1 42.9 33.2 42.9 33.2 42.8 33.2 39.6 31.6 38.5 31 38.1 30.8 37.8 30.7 37.7 30.8 37.5 31 36.5 31.5 36.5 31.4 36.5 31.4 36.4 31.4 36.3 31.5 36.2 31.6 35.9 31.8 35.8 31.9 35.4 32.2 35.4 32.2 36 32.7 36.6 33.2 38.5 34.5 38.6 34.5 38.7 34.5 39.3 35 39.7 35.4 39.9 35.6 40 35.6 39.9 35.5 39.8 35.3 39.9 35.3 40 35.5 40.3 35.9 43.6 37.9 44.7 38.4 45.1 38.6 45.5 38.8 45.6 38.9 45.8 39.1 46 39.1 46.1 39.1 46.2 39.1 46.3 39.1 46.4 39.3 46.4 39.4 46.4 39.5 46.4 39.5 46 39.5 44.2 38.9 44.1 38.8 44.1 38.7 44 38.6 44 38.7 44 38.8 43.7 38.7 43.4 38.5 43.1 38.3 42.7 38.2 42.6 38.3 42.4 38.3 42.3 38.3 42.3 38.2 42.3 38.1 42.2 38 42.1 38.1 41.9 38.1 41.8 38.1 41.8 38 41.8 38 41.5 37.8 41 37.6 39.7 37.1 39.6 37 39.2 36.9 38.9 36.8 38.1 36.4 37.3 36 36.5 35.6 35.7 35.3 35.7 35.3 35.3 35.3 35.5 66.7 35.8 67.4 35.9 67.7 36.1 68 36.2 68 36.3 68 36.3 68.1 36.3 68.3 36.3 68.4 36.4 68.5 36.5 68.5 36.6 68.5 36.7 68.7 36.7 68.9 36.8 69.2 38.7 71.8 39.7 72.9 40.4 73.8 43.1 76.5 43.2 76.5 43.3 76.5 43.7 76.8 44.1 77.3 44.5 77.7 44.9 78 45 77.9 45.1 77.8 45.2 77.9 45.1 78 45 78.1 45.1 78.2 45.1 78.2 45.2 78.2 45.4 78.3 45.5 78.4 45.9 78.8 47.8 80 48 80 48.1 80 48.2 80.1 48.2 80.1 48.2 80.2 48.7 80.5 49.3 80.8 49.8 81.1 50.3 81.5 50.4 81.6 50.4 81.7 50.5 81.7 50.5 81.6 50.5 81.6 50.8 81.7 51.2 81.9 51.5 82.1 51.9 82.3 52 82.3 52.1 82.3 52.4 82.5 52.7 82.7 53 82.8 53.7 83.1 54.3 83.3 54.8 83.5 55.8 83.9 56.6 84.2 57.9 84.7 58.4 84.8 58.8 84.9 58.9 84.9 59 84.9 59 85 59 85.1 59.7 85.3 60.4 85.4 60.5 85.4 60.7 85.5 60.8 85.6 62.1 86.1 68 87 72.3 87.3 76.6 87.6 82.9 87.1 85 86.2 85.7 85.9 88.3 85.1 88.4 85.2 88.4 85.2 88.6 85.1 88.7 85 88.9 84.8 89.1 84.7 89.2 84.8 89.2 84.8 89.3 84.8 89.4 84.7 89.4 84.6 90 84.3 90.7 84 91.4 83.7 92 83.4 92 83.3 92 83.2 92.1 83.2 92.1 83.2 92.3 83.3 93.6 82.5 93.9 82.2 94 82 94.1 81.8 94.1 81.8 94 81.8 94 81.7 94.1 81.6 94.2 81.5 94.3 81.3 94.2 81.3 94.2 81.2 94.2 81 94.3 80.8 94.4 80.6 94.5 80.4 94.6 80.2 94.6 80 94.7 79.6 94.9 79.2 95 78.8 95.1 78.3 95.1 78.3 95.1 78.2 95.2 78 95.2 77.8 95.4 77.5 96.3 74.1 96.8 72.1 97.1 71.3 97.3 70.5 97.3 70.5 97.4 70.5 97.4 70.3 97.4 70.1 97.4 70 97.4 69.8 97.5 69.8 97.6 69.8 97.7 69.7 97.7 69.5 97.8 69.3 98.1 68.1 98.4 66.9 98.8 65.7 99.1 64.6 99.1 64.4 99.2 64.1 99.8 61.9 100.7 58.8 100.9 58.1 101.1 57.5 101.1 57.4 101.1 57.3 101.2 57.1 101.2 57 101.5 56.2 101.8 55.2 101.9 54.9 102 54 102.7 52 102.9 52 103.1 52 103 52.4 102.8 53.5 102.6 54.4 102.5 55.3 102.4 55.5 102.4 55.9 102.1 57 101.9 58 101.9 58.2 101.7 58.9 101.6 59.6 101.4 60.7 100.8 63.1 100.8 63.4 100.7 63.5 100.6 63.8 100.5 64 100.4 64.4 100.2 65.3 100.1 66.4 100 66.6 100 66.8 100 66.8 100 66.8 100 66.9 99.9 67 99.9 67.1 99.8 67.7 99.7 68.3 99.5 68.8 99.4 69.3 99.4 69.4 99.4 69.5 98.9 71.6 98.4 74.2 97.9 76.7 97.5 78.9 97.4 79.1 97.3 79.5 97.5 79.6 98 79.3 98.2 79.2 98.3 79.1 98.2 79 98.2 78.9 98.2 78.8 98.3 78.8 98.4 78.8 99.1 78.2 99.8 77.5 101.4 75.8 101.7 75.5 101.5 75.4 101.5 75.4 101.6 75.3 101.7 75.3 101.9 75.3 102.1 75.2 102.1 75 102.2 74.9 102.3 74.7 102.5 74.5 102.6 74.4 102.7 74.3 102.6 74.3 102.5 74.3 102.5 74.3 102.6 74.2 102.7 74.1 103.2 73.4 103.8 72.7 104.3 71.9 104.9 71.1 105 70.8 105.2 70.6 105.3 70.3 105.2 70.1 105.2 70 105.2 69.8 105.3 69.8 105.4 69.8 105.5 69.7 105.5 69.5 105.5 69.4 105.6 68.9 105.7 68.4 105.8 68 105.9 67.4 105.9 67.3 105.9 67.1 106 66.6 106.1 66.3 106.2 65.9 106.3 65.4 106.4 65.1 106.7 63.4 107.8 58.2 108 57.9 108.1 57.7 108.2 57.2 108.2 56.8 108.3 56.4 108.4 55.8 108.5 55.6 108.6 55.3 108.7 55 108.6 54.8 108.6 54.7 108.7 54.4 108.8 54.2 108.9 53.9 109 53.4 109.1 53 109.1 52.5 109.2 52.1 109.2 52 109.3 51.9 109.4 51.6 109.4 51.3 109.5 50.5 109.7 49.9 110 48.4 110.2 47.7 110.5 46.1 110.7 44.9 111 43.8 111.2 42.7 111.3 42.5 111.5 42.3 111.5 42.2 111.4 42.2 111.3 42.3 111.3 42.1 111.4 41.9 111.6 41.6 111.7 41.1 111.7 40.7 111.8 40.3 111.9 39.9 111.9 39.9 112 39.8 112 39.4 112.1 39.1 112.3 38.1 112.3 37.8 112.4 37.7 112.5 37.6 112.5 37.3 112.6 37 112.6 36.5 113.1 34.1 113.4 32.8 114.3 29 114.3 28.3 113.7 27.7 113.5 27.6 113.4 27.4 113.4 27.3 113.4 27.1 112 25.5 110.3 23.8 109.3 22.8 108.5 22 108.5 22.1 108.5 22.1 108.2 21.8 107.8 21.4 107.3 21 107 20.7 107 20.7 106.9 20.7 106.5 20.3 106.1 19.9 105.6 19.5 105.2 19.2 105.1 19.2 105 19.2 104.8 19.1 104.8 19 104.8 19 104.4 18.6 103.9 18.2 103.5 17.9 103 17.5 102.8 17.3 102.7 17.1 102.5 17 102.4 17 102.3 17 102.2 16.9 102.2 16.9 102.2 16.8 101.6 16.4 100.9 15.9 100.2 15.5 99.7 15 99.7 15 99.7 14.9 99.6 14.8 99.5 14.8 99.4 14.8 99.2 14.7 99 14.5 98.8 14.3 98.6 14.2 98.5 14.3 98.4 14.3 98.3 14.3 98.4 14.2 98.5 14 98.1 13.7 97.7 13.7 97.6 13.7 97.5 13.6 97.6 13.5 97.7 13.4 97.4 13.2 97.2 13.2 97.1 13.2 96.7 12.9 96.1 12.4 95.5 11.9 94.7 11.4 94.6 11.5 94.5 11.5 94.5 11.5 94.5 11.4 94.5 11.3 94.2 11.1 93.9 10.9 93.6 10.8 93.3 10.6 93.3 10.5 93.3 10.4 93.2 10.3 93.1 10.3 92.9 10.3 92.8 10.3 92.8 10.2 92.8 10.1 92.8 10 92.7 10.1 92.6 10.1 92.4 10 92.3 9.8 92.2 9.7 92.1 9.5 91.9 9.5 91.8 9.5 91.6 9.4 91.5 9.3 91.2 9 89.4 7.8 89.2 7.8 89.1 7.8 89 7.8 89 7.7 88.9 7.6 88.5 7.3 88.1 7 87.6 6.7 87.2 6.4 87.2 6.3 87 6.1 85 5 84.9 5 84.7 5 84.7 4.9 84.7 4.9 84.7 4.8 84.4 4.6 84.1 4.4 83.1 3.9 82.5 3.6 82.3 3.3 82.1 3.1 81.9 3 81.7 3 81.6 3 81.5 2.9 81.5 2.8 81.5 2.7 81.3 2.6 81.1 2.5 80.9 2.4 80.6 2.2 80.4 2.1 76.6-0.2 76.7-0.2 74.9 0.4M56.1 1.6C55.4 2 55.2 2.3 55.1 3 55 3.3 55 3.5 54.9 3.5 54.9 3.5 54.1 3.6 53.1 3.8 51.3 4 49.6 4.2 48.9 4.4 48.7 4.4 48.2 4.5 47.8 4.6 47.4 4.7 47 4.8 46.9 4.8 46.8 4.9 46.6 4.9 46.4 4.9 45.6 5 42.1 6 42 6.2 42 6.2 41.8 6.2 41.6 6.2 41.2 6.1 41.2 6.2 41.3 6.3 41.3 6.5 41.3 6.5 41.2 6.4 41.1 6.4 40.8 6.4 40.6 6.5 39.9 6.8 38.2 7.5 37.8 7.6 37.2 7.8 34.3 9 34 9.2 33.9 9.3 33.8 9.3 33.8 9.3 33.8 9.2 33.7 9.2 33.6 9.3 33.3 9.6 32.6 9.9 31.2 10.7 30.6 10.9 30.1 11.2 30 11.3 30 11.4 29.7 11.5 29.3 11.7 28.1 12.3 26.6 13.2 26.5 13.3 26.5 13.4 26.4 13.5 26.3 13.5 26.2 13.5 25.9 13.7 25.7 13.9 25.5 14.2 24.9 14.6 24.5 14.8 24.1 15 23.5 15.4 23.3 15.6 22.6 16.1 21.7 16.9 21.4 17.1 21.3 17.2 21 17.4 20.8 17.6 19.6 18.5 16.4 21.5 15.2 22.9 12.8 25.5 11.8 26.8 10.9 28.1 10.5 28.7 10 29.4 9.8 29.6 9.6 29.8 9.5 30 9.5 30.1 9.5 30.2 9.3 30.5 9 30.8 8.8 31.1 8.6 31.5 8.6 31.5 8.6 31.5 8.3 32.1 8 32.6 7.6 33.2 7.3 33.7 7.3 33.8 7.3 33.9 7.1 34.1 6.9 34.4 6.7 34.6 6.5 34.8 6.6 34.8 6.6 34.8 6.6 35 6.4 35.2 6.3 35.4 6.2 35.7 6.3 35.7 6.3 35.8 6.3 35.8 6.2 35.8 6.1 35.8 6 35.9 6.1 36 6.1 36.1 6.1 36.2 6 36.2 5.9 36.2 5.9 36.2 5.9 36.3 6 36.4 5.9 36.5 5.9 36.5 5.7 36.6 4.8 38.2 4.8 38.5 4.8 38.6 4.7 38.9 4.6 39.2 3.9 40.7 3.7 41.4 3.7 41.7 3.7 41.8 3.6 42.1 3.4 42.3 2.9 43 1.8 46.7 1.3 49.3 1 51 1 51.1 0.9 51.5 0.1 55.6-0.1 64.4 0.7 69.3 0.8 69.8 0.9 70.6 0.9 71.1 1 71.5 1.1 72.4 1.3 73 1.4 73.6 1.6 74.2 1.6 74.3 1.7 75.4 2.6 78.5 2.7 78.4 2.8 78.3 2.8 78.4 2.8 78.6 2.7 78.7 2.8 79 2.9 79.2 3 79.4 3.1 79.7 3 79.8 3 79.9 3.1 80 3.2 80 3.3 80 3.3 80.1 3.3 80.2 3.2 80.4 3.2 80.5 3.3 80.5 3.4 80.6 3.6 81.1 3.8 81.7 4.2 82.9 4.8 84.3 5.5 85.7 5.7 86.2 5.9 86.6 5.9 86.7 5.9 86.7 6.1 87 6.3 87.3 6.4 87.7 6.6 88 6.6 88 6.6 88.1 6.7 88.3 6.9 88.5 7 88.7 7.2 88.9 7.2 88.9 7.2 89.1 8.7 91.7 8.8 91.8 8.9 91.9 9 92.2 9.2 92.5 9.3 92.8 9.5 93.1 9.7 93.2 9.9 93.3 10 93.4 9.9 93.5 9.9 93.6 9.9 93.7 10 93.7 10.1 93.8 11.3 95.5 11.3 95.6 11.3 95.7 11.6 96 11.9 96.4 12.2 96.7 12.5 97.1 12.5 97.1 12.5 97.2 13.1 97.9 13.5 98.3 13.7 98.5 14.1 99 14.6 99.6 15.6 100.8 16.7 102 17 102 17.1 102 17.3 102.3 17.6 102.6 18.1 103.4 18.8 104 20 105 20.5 105.4 21.3 106 21.7 106.4 22.6 107.3 24.1 108.3 24.3 108.3 24.4 108.3 24.5 108.4 24.5 108.5 24.5 108.5 24.8 108.8 25.1 109 25.4 109.2 25.8 109.5 26 109.7 26.2 109.9 26.4 110 26.5 109.9 26.6 109.9 26.7 109.9 26.7 110.1 26.7 110.2 26.8 110.3 26.9 110.3 27 110.3 27.4 110.5 27.8 110.8 28.4 111.2 29 111.5 31.1 112.6 31.5 112.9 32 113.1 32 113.2 32.2 113.5 33 113.8 33.2 113.7 33.3 113.7 33.3 113.7 33.3 113.8 33.3 113.9 33.6 114.1 33.9 114.2 34.2 114.3 34.9 114.6 35.6 114.9 36.2 115.2 37.4 115.7 38.1 115.9 38.9 116.2 39.5 116.4 39.5 116.5 39.5 116.6 39.6 116.7 39.6 116.6 39.7 116.6 39.8 116.6 39.9 116.7 40.2 116.8 40.3 116.8 40.8 116.9 41.1 117 41.4 117.1 41.4 117.2 41.5 117.3 41.7 117.3 42 117.3 42.2 117.3 42.5 117.4 42.6 117.5 42.7 117.6 43 117.7 43.3 117.7 43.9 117.9 44.1 117.9 44.5 118 48.2 119.4 59.9 120.4 66.1 119.8 68.4 119.6 67.5 119.3 64.8 119.4 63.6 119.4 62.7 119.4 62.7 119.3 62.7 119.2 62.1 119.2 61.5 119.2 60.8 119.2 60 119.1 59.8 119.1 58.7 119 57.4 118.8 55.3 118.5 54.2 118.3 53.1 118.1 52.9 118.1 50.8 117.8 45.8 116.2 42.3 114.7 42.1 114.7 41.9 114.6 41.8 114.6 41.6 114.5 41 114.3 40.4 114 40.1 113.8 39.3 113.5 38.7 113.2 38.1 112.9 37.5 112.6 37.4 112.4 37.2 112.3 37.1 112.2 37 112.3 36.9 112.3 36.8 112.2 36.7 112.1 36.6 111.9 36.3 111.8 36.2 111.8 36 111.8 35.8 111.7 35.8 111.6 35.7 111.4 35.5 111.3 35.4 111.3 35.2 111.3 35 111.3 35 111.2 34.9 111.1 34.5 110.9 34 110.6 33.4 110.3 32.8 109.9 32.5 109.7 32.3 109.4 31.7 109 31.2 108.8 30.8 108.5 30.4 108.2 30.3 108.1 30.2 108 30.2 108 30.2 108 30.2 108.1 30 108 29.7 107.7 29.5 107.5 29 107.2 28.7 107.1 28.4 106.9 28.2 106.7 28.3 106.6 28.3 106.6 28.3 106.5 28.2 106.5 28.1 106.5 27.8 106.3 27.6 106.1 27.4 105.9 27.2 105.8 27.2 105.8 27.1 105.8 26.8 105.5 26.4 105.1 26 104.7 25.5 104.3 25.3 104.2 25.1 104.1 24.9 104 24.9 103.9 25 103.8 24.8 103.7 24.7 103.6 24.3 103.4 23.2 102.4 23.2 102.2 23.2 102.2 22.5 101.4 21.6 100.5 20.7 99.6 19.5 98.3 18.9 97.5 18.3 96.7 17.6 95.9 17.3 95.6 17.1 95.3 16.8 95 16.7 94.8 16.7 94.6 16.6 94.5 16.5 94.5 16.4 94.5 16.3 94.4 16.3 94.3 16.3 94.2 16.2 93.9 16 93.8 15.8 93.6 15.7 93.3 15.7 93.2 15.7 93.1 15.6 93 15.5 93 15.4 93 15.3 92.9 15.3 92.8 15.3 92.6 15.3 92.5 15.2 92.5 15.1 92.5 14.9 92.1 14.7 91.7 14.5 91.2 14.2 90.9 14.1 90.9 14.1 91 14 90.9 14 90.8 14 90.7 13.8 90.3 13.5 89.9 13.3 89.5 12.9 88.9 12.7 88.5 12.6 88.1 12.4 87.8 12.3 87.8 12.2 87.8 12.2 87.7 12.2 87.5 12.2 87.3 12.1 87.2 12 87.2 11.9 87.2 11.8 87.1 11.9 87.1 12 86.9 11.4 85.6 11.1 85.5 11 85.4 11 85.3 11.1 85.3 11.1 85.3 11.1 85.2 11 85 10.4 84.1 8.1 77.8 8 76.9 8 76.8 7.9 76.5 7.7 76.2 7.6 75.9 7.5 75.5 7.5 75.2 7.5 75 7.4 74.8 7.3 74.8 7.2 74.7 7.2 74.5 7.2 74.3 7.2 73.9 7.1 73.6 7 73.2 5.2 68.6 5.4 53.1 7.3 47.5 7.4 47.1 7.5 46.8 7.4 46.7 7.4 46.7 7.4 46.5 7.5 46.4 7.6 46.3 7.8 45.7 8 44.9 8.2 44.2 8.4 43.4 8.5 43.3 8.6 43.1 8.7 42.6 8.8 42.2 9 41.8 9.1 41.3 9.2 41.3 9.2 41.2 9.5 40.5 9.8 39.8 10 39 10.3 38.3 10.4 38.2 10.8 37.7 11.2 36.8 11.1 36.8 11 36.8 11.1 36.7 11.2 36.5 11.3 36.4 11.5 36.1 11.6 35.8 11.7 35.6 11.8 35.2 12 35 12.1 34.8 12.4 34.3 12.6 34 13.1 32.9 13.5 32.3 13.8 32 13.9 31.8 14 31.7 13.9 31.7 13.9 31.7 14.1 31.3 14.5 30.8 14.8 30.3 15.2 29.7 15.3 29.5 15.4 29.3 15.6 29 15.7 28.9 16.3 28.2 17.5 26.5 17.5 26.4 17.5 26.3 17.7 26.1 17.9 25.9 18.1 25.7 18.6 25.1 19.1 24.6 20.6 22.8 23.7 19.7 25 18.6 25.3 18.3 25.9 17.8 26.2 17.5 26.6 17.1 27.4 16.5 28.1 16.1 28.7 15.6 29.6 15 30.1 14.6 30.5 14.2 31.3 13.7 31.8 13.3 32.3 13 32.8 12.7 32.8 12.6 32.8 12.6 32.9 12.5 33 12.6 33.1 12.6 33.2 12.6 33.3 12.4 33.3 12.3 33.4 12.2 33.5 12.2 33.6 12.3 33.8 12.2 34 12 34.2 11.8 34.3 11.7 34.3 11.8 34.3 11.9 36.2 10.8 36.6 10.5 36.8 10.3 37 10.2 37 10.2 37.1 10.2 37.8 9.9 38.5 9.5 39.3 9.2 40.2 8.8 40.5 8.7 40.8 8.5 41 8.4 41 8.3 41 8.2 41.1 8.2 41.1 8.2 41.2 8.3 41.5 8.2 41.7 8.1 42 8 42.2 7.9 42.2 7.9 42.2 8 42.4 7.9 42.7 7.8 42.9 7.6 43.2 7.5 43.2 7.5 43.2 7.5 43.6 7.4 43.9 7.2 44.6 6.9 47.5 5.9 48.1 5.7 48.3 5.7 49.2 5.4 50.3 5.2 51.3 4.9 52.3 4.6 52.6 4.6 53 4.5 54.5 4.2 54.9 4.2 55.2 4.1 55.5 4.2 55.5 4.3 55.5 5.5 57.9 5.6 58.6 4.5 59.8 2.7 57.9 0.5 56.1 1.6M76.5 3.3C76.8 3.5 77.4 3.8 77.7 4 78 4.2 78.3 4.3 78.4 4.2 78.5 4.2 78.5 4.2 78.5 4.3 78.5 4.4 78.6 4.5 78.8 4.5 79 4.5 79.2 4.6 79.3 4.7 79.3 4.8 79.7 5 80.1 5.2 80.6 5.4 81.2 5.8 81.6 6 82 6.2 82.4 6.5 82.6 6.6 82.8 6.7 83.4 7.1 84.1 7.5 84.7 7.9 85.3 8.2 85.3 8.2 85.3 8.1 85.5 8.2 85.7 8.4 85.9 8.6 86.2 8.8 86.3 8.9 86.5 8.9 86.6 9 86.7 9 86.7 9.1 87.3 9.5 88 9.9 88.6 10.3 89.2 10.8 89.2 10.9 89.2 11 89.3 11 89.4 10.9 89.5 10.8 89.6 10.9 89.7 11 89.8 11.2 90.3 11.5 90.7 11.8 91.2 12.1 91.7 12.5 91.8 12.6 92 12.7 92.5 13.1 92.9 13.4 93.4 13.8 94.1 14.4 94.5 14.7 95 15.1 95.3 15.3 95.4 15.3 95.4 15.3 95.7 15.6 96.1 15.9 96.5 16.3 96.7 16.5 96.8 16.5 96.8 16.4 98.4 17.9 99 18.5 99.2 18.8 99.5 19 99.6 19 99.7 19 99.8 19.1 99.8 19.2 99.8 19.4 102.4 21.9 102.5 21.9 102.6 21.8 102.7 21.9 102.7 22 102.7 22.1 103.1 22.6 103.6 23.1 104.1 23.6 104.9 24.5 105.4 25.2 105.9 25.9 106.5 26.7 106.8 27 108 28.2 108.4 28.9 108.2 29.6 108.1 30.5 107.5 32.8 107.3 33.3 107.2 33.6 107.1 34 107.1 34.3 107.1 34.7 107 35 107 35.1 106.9 35.2 106.9 35.4 106.9 35.6 106.9 35.8 106.9 36 106.8 36 106.8 36 106.7 36.1 106.7 36.2 106.7 36.3 106.5 37.5 106.2 38.8 105.9 40.2 105.5 41.9 105.4 42.6 105.1 43.9 105.1 44 104.7 44 104.4 44 104.1 44 104 44.1 103.6 44.1 102.3 44.3 100.2 44.5 96.4 44.9 86.3 44.8 81.9 44.2 76.5 43.6 70 42.5 69.6 42.2 69.5 42.1 69.3 42.1 69.1 42.1 69 42.1 68.8 42.1 68.8 42 68.8 41.9 68.6 41.8 68.2 41.8 67.9 41.7 67.5 41.7 67.3 41.6 67.2 41.6 66.5 41.4 65.8 41.3 65 41.1 64.3 40.9 64.1 40.8 63.9 40.8 63.3 40.6 62.8 40.4 60.8 40 58.6 39.3 57.4 38.9 56.8 38.6 56.2 38.4 56.1 38.5 56.1 38.5 56 38.4 56 38.3 56 38.2 55.9 38.2 55.7 38.3 55.5 38.3 55.3 38.3 55.3 38.2 55.3 38.1 55.2 38 55.1 38 55 38 54.6 37.9 54.4 37.8 54.1 37.7 53.8 37.6 53.8 37.6 52.7 37.2 50.1 36.3 48.3 35.5 48 35.4 47.7 35.3 47.7 35.3 47.6 35.3 47.4 35.2 47.3 35 46.8 34.8 47.1 34.8 48.3 35.1 48.8 35.2 49.4 35.4 49.5 35.4 49.7 35.4 49.8 35.4 49.8 35.5 49.8 35.5 50 35.6 50.1 35.6 50.3 35.6 50.6 35.7 50.8 35.7 51.6 35.9 52.9 36.2 53.9 36.4 54.5 36.6 55.2 36.7 55.5 36.7 55.9 36.8 56.2 36.8 56.3 36.9 56.4 36.9 56.8 37 57.3 37.1 57.7 37.1 58.3 37.3 58.7 37.3 59.2 37.5 64.1 38.4 65.3 38.6 65.7 38.7 66 38.7 66 38.8 66 38.9 66.2 38.9 66.4 38.9 67.1 39 67.9 39.2 68.5 39.3 68.8 39.4 69.1 39.5 69.2 39.4 69.2 39.4 69.5 39.4 69.7 39.5 70.1 39.6 71.5 39.9 72.9 40.1 73.2 40.1 73.5 40.2 73.7 40.2 73.9 40.3 80.6 41.3 83.2 41.7 87.5 42.3 88.5 42.4 88.9 42.4 89.1 42.4 89.3 42.4 89.3 42.5 89.3 42.6 89.6 42.6 90 42.6 90.3 42.6 90.7 42.6 90.9 42.7 91.2 42.9 93.9 43.1 96.2 43.1L97.9 43.1 97.9 42.6 97.9 42.1 96.4 42C93.9 41.9 93.3 41.9 90.8 41.6 90.4 41.5 89.6 41.5 89.1 41.4 88.5 41.4 87.6 41.2 86.9 41.2 86.3 41.1 84.4 40.8 82.8 40.6 78.9 40 71.3 38.8 71 38.7 70.9 38.7 70.6 38.6 70.4 38.6 70.2 38.5 69.9 38.5 69.6 38.4 69.4 38.4 69 38.3 68.8 38.3 68.6 38.2 68.2 38.2 68 38.1 67.8 38 67.4 38 67.1 37.9 66.8 37.9 66.6 37.8 66.6 37.8 66.6 37.8 66.4 37.8 66.1 37.7 65.8 37.7 65.6 37.7 65.5 37.7 65.5 37.6 65.4 37.6 64.6 37.4 59.1 36.4 53.5 35.3 52.9 35.1 52.5 35 52 34.9 51.9 34.9 51.8 35 51.7 34.9 51.7 34.8 51.7 34.7 51.5 34.7 51.3 34.7 51.1 34.7 50.8 34.7 50.7 34.6 50.6 34.5 50.4 34.5 50.4 34.6 50.3 34.6 50.2 34.6 50.1 34.5 49.9 34.4 49.6 34.3 49.3 34.2 49 34.2 48.3 34.1 47.7 33.9 47.1 33.8 46.4 33.6 46.2 33.6 43.2 33 43.4 33.2 43.5 31.1L43.5 29.3 45.5 29.3C47 29.3 48.2 29.5 51 30 53 30.3 55.9 30.9 57.6 31.2 59.2 31.4 60.7 31.7 60.9 31.8 61 31.9 61.3 31.9 61.5 31.9 61.7 31.8 61.8 31.9 61.8 32 61.8 32.1 62 32.2 62.2 32.1 62.4 32.1 62.8 32.2 63 32.2 63.5 32.3 64.9 32.6 65.5 32.7 65.7 32.8 67.4 33.1 69.2 33.4 71 33.7 72.6 34 72.9 34.1 74.3 34.3 79 35.2 80.2 35.5 80.4 35.5 80.8 35.6 81 35.6 81.3 35.6 81.5 35.6 81.4 35.7 81.4 35.7 81.5 35.8 81.8 35.8 82.3 35.8 82.8 35.9 83.2 36 83.4 36.1 91 37.5 95.6 38.3 97.8 38.6 98.2 38.7 98.4 38.5 98.6 38.1 98.4 37.8 98.1 37.7 97.9 37.7 97.6 37.7 97.5 37.6 97.4 37.5 94.3 36.8 93.1 36.6 92.9 36.6 92.5 36.5 92.4 36.4 92.2 36.4 91.9 36.3 91.7 36.3 91 36.2 87.5 35.4 86.9 35.2 86.6 35.1 86.3 35.1 86.3 35.1 86.2 35.2 86.2 35.1 86.2 35 86.2 34.9 86 34.8 85.8 34.9 85.5 35 85.3 34.9 85.3 34.9 85.3 34.8 85.2 34.7 85 34.7 84.8 34.8 84.5 34.7 84.4 34.7 84.2 34.5 81.6 33.9 77.8 33.1 76.2 32.8 74 32.3 72.8 32 71.6 31.7 70.5 31.5 70.4 31.4 70.3 31.4 70.2 31.4 70.1 31.3 69.9 31.2 68.7 31 68.1 30.9 67.9 30.9 67.7 30.9 67.8 30.8 67.8 30.7 67.3 30.6 66.6 30.5 66 30.4 65.2 30.2 64.9 30.2 64.6 30.1 64 29.9 63.6 29.9 63.1 29.8 61.9 29.5 60.9 29.3 58 28.6 55.8 28.1 55.7 28.1 55.7 28.2 55.4 28.1 55.1 27.9 54.8 27.8 54.4 27.7 54.2 27.8 54 27.8 53.8 27.8 53.8 27.7 53.8 27.6 53.6 27.5 53.3 27.4 52.1 27.3 46.7 26 46.5 25.9 46.5 25.9 46.6 25.6 46.8 25.4 47 25.1 47.1 24.8 47.1 24.8 47 24.8 47.1 24.6 47.2 24.5 47.4 24.4 47.5 24.2 47.5 24.1 47.5 24 48.1 23.4 48.8 22.7 49.5 22 50.1 21.4 50 21.3 50 21.2 50.1 21.2 50.1 21.2 50.2 21.2 50.6 20.9 50.9 20.7 51.4 20.2 54 18.9 54.4 18.8 54.5 18.8 54.9 18.7 55.3 18.5 55.7 18.3 56.3 18.1 56.5 18.1 56.7 18.2 56.8 18.1 56.8 18 56.8 17.9 56.9 17.8 57.1 17.9 57.2 17.9 57.3 17.9 57.3 17.9 57.3 17.8 57.6 17.7 57.9 17.7 58.2 17.7 58.8 17.6 59.2 17.5 60 17.3 62.9 17.4 63 17.6 63 17.7 64.5 18.3 66.2 18.8 68 19.4 69.6 20 69.9 20.1 70.5 20.3 71 20.5 71.4 20.6 71.6 20.6 72.1 20.8 72.5 20.9 72.9 21.1 73.4 21.2 73.7 21.3 73.9 21.3 74.1 21.4 74.2 21.5 74.2 21.6 74.4 21.7 74.5 21.6 74.6 21.5 74.7 21.5 74.6 21.6 74.5 21.8 74.6 21.8 74.8 21.9 75.2 21.9 75.4 21.9 75.7 22.1 75.9 22.2 78.5 23 81.3 23.9 82.1 24.2 82.9 24.5 83.1 24.6 83.4 24.8 83.5 24.8 83.4 24.7 83.3 24.6 83.5 24.6 83.7 24.8 84 24.9 84.2 25 84.2 24.9 84.2 24.9 84.3 24.9 84.4 24.9 84.5 25 84.6 25.1 84.7 25.1 84.7 25.1 85.1 25.2 85.4 25.4 86 25.6 88.1 26.3 92.2 27.5 93.1 27.8 94 28.1 94.1 28.2 94.2 28.3 94.4 28.3 94.5 28.3 94.6 28.2 94.7 28.2 94.8 28.3 94.8 28.4 94.9 28.5 95 28.4 95.1 28.4 95.2 28.4 95.2 28.5 95.2 28.6 95.7 28.8 96.4 29 97 29.2 97.9 29.5 98.2 29.6 98.6 29.7 98.8 29.8 98.8 29.7 98.8 29.7 98.9 29.7 99 29.8 99.6 30.3 100.3 30.2 100.5 29.7 100.7 29.4 100.8 29.2 100.9 29.2 100.9 29.2 100.9 29.1 100.9 28.9 100.8 28.8 100.9 28.7 101 28.7 101.2 28.7 101.2 28.1 101 27.9 100.9 27.8 100.7 27.7 100.6 27.8 100.4 27.8 100.3 27.8 100.3 27.7 100.3 27.6 99.6 27.2 99.2 27.2 99.1 27.2 99 27 98.8 26.9 98.7 26.8 98.1 26.5 97.6 26.3 97 26.1 96.4 25.8 96.2 25.7 96 25.6 95.8 25.5 95.8 25.5 95.7 25.5 95.2 25.3 94.7 25.1 94.2 24.9 93.7 24.7 93.6 24.7 93.6 24.7 93.5 24.6 93.5 24.5 93.5 24.3 92.5 24 92.5 24.1 92.5 24.2 92.4 24.1 92.3 24 92.3 23.9 92.1 23.7 92 23.7 91.9 23.7 91.3 23.5 89.6 22.7 88.8 22.3 88.1 22.1 88.1 22.1 88 22.2 88 22.1 88 22 88 21.9 87.9 21.8 87.8 21.8 87.7 21.8 87 21.6 86.4 21.2 85.7 20.9 85.2 20.7 85.1 20.7 85.1 20.7 84.7 20.5 84.3 20.3 82.9 19.6 80.6 18.5 79.6 18.2 79 18 78.5 17.7 78.4 17.6 78.3 17.4 78.2 17.4 78.1 17.4 78.1 17.5 77.7 17.4 77.4 17.1 77 16.9 76.7 16.7 76.6 16.7 76.5 16.7 75.9 16.5 75.3 16.2 74.6 15.9 74 15.6 73.9 15.6 73.8 15.6 73.5 15.4 73.2 15.3 72.8 15.2 72.2 14.8 71.6 14.6 71.1 14.4 70.6 14.2 70.5 14.2 70.4 14.2 70.3 14.1 70.2 13.9 70 13.8 69.8 13.7 69.7 13.7 69.6 13.8 69.5 13.8 69.4 13.7 69.3 13.5 67.7 12.7 67.3 12.6 66.5 12.4 66 12 66.2 11.8 66.7 11.4 67.2 10.9 67.2 10.8 67.1 10.6 69.4 8.8 69.6 8.8 69.7 8.8 69.9 8.7 70 8.6 70.1 8.5 70.3 8.4 70.4 8.4 70.5 8.4 71 8.2 71.4 8 72.5 7.5 74.8 7.3 75.2 7.7 75.3 7.9 75.4 8 75.5 8 75.6 8 76.5 8.5 77.6 9.1 78.6 9.7 79.8 10.4 80.1 10.5 80.4 10.7 80.8 11 81.1 11.2 81.3 11.5 81.6 11.7 81.7 11.7 81.9 11.7 82.1 11.8 82.3 12 82.4 12.2 82.6 12.3 82.7 12.3 82.9 12.3 85.5 14 85.8 14.4 86 14.5 86.2 14.6 86.4 14.6 86.5 14.5 86.6 14.6 86.6 14.7 86.5 14.7 86.9 15 87.4 15.3 87.9 15.7 88.3 16 88.3 16 88.3 16.1 88.4 16.2 88.6 16.2 88.7 16.2 88.8 16.2 88.9 16.3 88.9 16.4 89.3 16.7 89.8 17 90.2 17.3 91.1 18 91.8 18.5 92.4 19 93 19.4 93 19.4 93.1 19.4 93.3 19.5 93.4 19.8 93.6 20 93.8 20.2 93.9 20.2 94 20.2 94.4 20.4 94.7 20.8 95.1 21.1 95.4 21.3 95.4 21.3 95.5 21.3 95.5 21.4 95.5 21.5 95.5 21.5 95.8 21.8 96.1 22 96.3 22.2 96.6 22.5 96.7 22.6 96.8 22.7 96.9 22.8 97.1 22.8 97.2 22.8 97.9 23.4 98.7 24.2 100.2 25.7 100.1 25.6 100.1 25.3 100.1 25.1 100.1 25 100 25 99.9 25 99.8 24.8 99.7 24.7 99.7 24.5 99.6 24.4 99.5 24.4 99.4 24.5 99.3 24.4 99.2 24.2 99.2 24.1 98.7 23.5 98.2 23 97.7 22.5 96.6 21.5 95.8 20.7 95 20 94 19.1 93.5 18.7 93.1 18.4 92.5 17.8 92.1 17.5 91.7 17.1 91.4 16.9 91.3 16.9 91.2 17 91.2 17 91.2 16.9 91.3 16.8 91.1 16.6 90.9 16.5 90.6 16.4 90.3 16.1 90.1 15.9 89.9 15.7 89.5 15.4 89.3 15.3 89 15.1 88.7 14.8 88.5 14.7 87.4 13.7 85.6 12.3 85.4 12.3 85.4 12.3 85.2 12.2 85 12 84.8 11.8 84.6 11.7 84.5 11.8 84.4 11.8 84.3 11.8 84.3 11.7 84.3 11.6 83.9 11.3 83.4 11 82.9 10.7 82.5 10.4 82.5 10.3 82.5 10.2 82.4 10.2 82.3 10.2 82.1 10.2 82 10.1 82 10 82 9.9 80.4 8.8 80.2 8.7 80.1 8.7 79.7 8.5 79.2 8.1 78.7 7.8 78 7.4 77.7 7.3 77.4 7.1 77.1 6.9 77 6.8 76.8 6.7 76.4 6.4 76 6.1 75.3 5.7 75.3 5.7 75.3 5 75.4 2.9 75.5 2.8 76.5 3.3M62 5.7C61.9 5.8 61.2 5.8 60.3 5.9 58.9 6 58 6.1 57 6.4 56.8 6.5 56.4 6.5 56.3 6.5 55.8 6.5 49.3 8.2 48.3 8.6 48.2 8.7 48 8.7 47.9 8.8 47.3 8.9 46.5 9.2 46.5 9.3 46.5 9.4 46.4 9.5 46.4 9.5 46.3 9.5 46.2 9.5 46.1 9.5 46.1 9.5 45.9 9.6 45.9 9.6 45.4 9.7 45 9.9 45 10 45 10.1 44.9 10.1 44.8 10.1 44.5 9.9 38.9 12.9 36.3 14.7 35.5 15.2 34.8 15.7 34.7 15.7 34.6 15.7 34.5 15.7 34.5 15.8 34.5 15.9 34.4 16.1 34.2 16.1 34.1 16.2 33.8 16.3 33.7 16.5 32.9 17.2 31.5 18.4 30.7 19 30.2 19.4 29.8 19.7 29.8 19.8 29.8 19.9 29.8 20 29.7 20 29.6 20 29.1 20.5 28.6 21 28 21.6 27.3 22.3 27 22.7 26.6 23 26.3 23.4 26.3 23.5 26.3 23.6 26.3 23.6 26.2 23.6 26.1 23.5 25.9 23.6 25.9 23.8 25.8 24 25.7 24.2 25.7 24.2 25.6 24.2 25.3 24.5 25 24.9 24.8 25.3 24.2 25.9 23.9 26.3 23.5 26.7 23.2 27.2 23.2 27.3 23.2 27.3 22.9 27.7 22.7 28 22.4 28.3 22.2 28.6 22.2 28.7 22.2 28.8 22 29 21.8 29.2 21.7 29.4 21.5 29.7 21.5 29.8 21.5 29.9 21.4 30 21.3 30 21.3 30 21.1 30.1 21.1 30.3 21 30.5 20.9 30.8 20.7 30.9 20.3 31.3 19.5 32.8 18.7 34.5 18.4 35.2 17.8 36.5 17.4 37.4 17 38.3 16.6 39.1 16.6 39.2 16.6 39.4 16.5 39.5 16.5 39.5 16.4 39.5 16.3 39.7 16.3 39.9 16.3 40.1 16.3 40.3 16.2 40.3 16.1 40.3 16 40.4 16 40.5 16.1 40.7 16 41 15.7 41.8 15.6 41.9 15.5 42.3 15.4 42.6 15.3 42.9 15.3 43.1 15.3 43.2 14.7 45.2 14.6 50.4 15.1 52.9 15.4 54.7 16.3 57.7 16.5 57.8 16.6 57.8 16.6 57.9 16.6 58 16.5 58.1 16.5 58.2 16.6 58.2 16.7 58.2 16.8 58.3 16.8 58.5 16.8 58.7 16.9 59 17.1 59.1 17.2 59.3 17.6 60 18 60.8 18.4 61.6 18.9 62.3 19 62.5 19.1 62.6 19.3 62.9 19.5 63.2 19.6 63.4 19.9 63.8 20.1 64.1 20.4 64.4 20.9 65 21.3 65.4 21.6 65.9 22.2 66.6 22.6 67 23 67.4 23.3 67.8 23.3 67.9 23.3 68 23.4 68 23.5 67.9 23.6 67.9 23.7 67.9 23.7 68.1 23.7 68.2 23.8 68.4 23.9 68.5 24.1 68.6 25.8 70 26.8 71 27.1 71.3 28.1 72 28.9 72.6 29.7 73.2 30.5 73.7 30.6 73.9 31.1 74.3 32.5 75.1 32.5 75 32.5 75 32.6 75.1 32.7 75.2 32.8 75.3 33.6 75.8 34.3 76.2 35.1 76.6 35.8 77 35.8 77 36 77.2 37 77.7 37.3 77.7 37.5 77.7 37.5 77.7 37.3 77.8 37.2 77.9 37.1 78 37.3 78 37.5 78 37.7 78.1 38 78.2 38 78.2 38.1 78.2 38.2 78.2 38.3 78.2 38.3 78.2 38.3 78.3 38.3 78.4 38.4 78.5 38.5 78.4 38.6 78.4 38.7 78.4 38.7 78.5 38.7 78.6 39.9 79 40 78.9 40 78.9 39.7 78.4 39.2 78 38.7 77.5 38.3 77.1 38.3 77 38.3 77 38.1 76.8 37.9 76.5 37.6 76.3 37.2 75.7 36.8 75.3 36.5 74.9 36.2 74.5 36 74.4 35.9 74.3 35.8 74.1 35.8 74.1 35.8 74 35.7 73.9 35.6 73.7 34.3 72.1 32.9 70.2 32.9 70 32.9 70 32.5 69.3 32 68.5 31.2 67.1 29.5 63.5 29.5 63.2 29.5 63.1 29.3 62.7 29.2 62.3 29 61.9 28.8 61.4 28.7 61.2 28.7 61 28.5 60.5 28.4 60.2 28.3 60 28.1 59.6 28.1 59.4 28.1 59.2 28 58.9 27.9 58.7 26.3 54.6 25.7 44.9 26.7 39.7 26.9 39 27.4 36.6 27.4 36.4 27.4 36.3 27.5 36 27.6 35.7 27.7 35.4 27.8 35.2 27.9 35.2 28 35.2 28 35.1 28 35.1 27.9 35 28 34.7 28.1 34.5 28.2 34.2 28.3 33.9 28.2 33.8 28.2 33.7 28.2 33.7 28.4 33.7 28.5 33.7 28.5 33.6 28.4 33.6 28.4 33.5 28.4 33.4 28.5 33.3 28.6 33.1 28.7 32.9 28.7 32.7 28.8 32.6 28.9 32.2 29 31.8 29.1 31.5 29.2 31.2 29.2 31.1 29.2 31.1 29.2 31 29.3 31 29.4 31 29.6 30.7 29.7 30.3 29.8 29.9 30 29.5 30.1 29.4 30.2 29.2 30.3 29 30.3 28.9 30.3 28.6 31.1 27.2 31.5 26.7 31.7 26.5 31.8 26.3 31.7 26.3 31.7 26.2 31.7 26.2 31.8 26.2 31.9 26.2 32 26.1 31.9 26 31.9 25.9 31.9 25.8 32.1 25.8 32.2 25.7 32.3 25.5 32.3 25.3 32.3 25.1 32.4 25 32.5 25.1 32.6 25.1 32.7 25 32.8 24.7 32.9 24.5 33.3 23.9 33.6 23.5 34 22.9 34.4 22.5 35.5 21 35.7 20.8 35.8 20.6 35.8 20.5 35.8 20.4 35.9 20.3 36 20.3 36.1 20.3 36.9 19.5 37.9 18.5 39.8 16.7 40.6 16 41.8 15.3 42.1 15.1 42.5 14.8 42.7 14.7 42.8 14.5 43 14.4 43.1 14.4 43.3 14.3 43.5 14.2 43.7 14 43.8 13.9 44.3 13.6 44.6 13.4 45 13.2 45.4 13 45.5 12.9 45.7 12.7 45.8 12.7 45.8 12.7 45.8 12.8 46.2 12.6 46.7 12.4 47.9 11.7 51.2 10.3 52.6 9.8 53.2 9.6 54.1 9.4 54.4 9.2 54.8 9.1 55.8 8.9 56.8 8.7 57.7 8.5 58.5 8.3 58.7 8.2 58.9 8.1 59.1 8.1 60.4 7.9 60.9 7.9 61.3 7.8 61.3 7.7 61.4 7.6 61.7 7.6 62 7.6 62.3 7.6 63 7.5 63.5 7.4 64 7.4 64.7 7.3 65.1 7.3 65.5 7.2 65.9 7.1 66.1 7 66.2 6.8 66.6 6.5 67 6.3 67.5 6.1 67.8 5.9 67.8 5.8 67.8 5.7 62.1 5.6 62 5.7M188.2 28.9L188.3 49.3 188.7 50.2C189.4 51.4 190.3 52.2 191.6 52.6 192.1 52.7 192.8 52.9 193.1 53 193.8 53.2 194.3 53.2 194.4 53 194.5 52.9 194.8 52.8 195.2 52.8 195.6 52.8 196.2 52.8 196.5 52.7 196.8 52.6 197.3 52.5 197.6 52.4 198.6 52.2 199.1 52 199 51.8 199 51.7 198.9 51.4 198.9 51.3 198.7 49.5 198.5 49.3 197.6 49.6 195.3 50.3 193.1 50 192.4 48.8 192.2 48.5 192 48.4 192 48.4 192 48.6 191.6 47.8 191.5 47.5 191.5 47.3 191.4 38.5 191.4 27.8L191.4 8.5 189.8 8.5 188.2 8.5 188.2 28.9M238.9 8.7C238.9 8.8 238.9 18.7 238.9 30.8L238.9 52.6 240.5 52.6 242 52.6 242 49.8 242 47 242.5 47.5C242.7 47.7 242.9 48 242.9 48 242.9 48.2 245 50.2 245.7 50.7 246.1 51 246.3 51.1 246.3 51 246.2 50.9 246.2 50.9 246.5 51 246.7 51.1 246.8 51.3 246.7 51.4 246.7 51.4 246.7 51.5 246.9 51.5 247 51.5 247.5 51.7 248.1 52 248.6 52.3 249.5 52.6 249.9 52.7 250.4 52.8 250.9 52.9 251.1 53 251.2 53.1 251.4 53.2 251.5 53.1 251.5 53.1 251.7 53.1 251.9 53.2 252.1 53.3 252.2 53.3 252.1 53.2 252 53 252 53 252.3 53.1 252.6 53.3 255.3 53.3 255.3 53.2 255.3 53.1 255.5 53.1 255.7 53.1 255.9 53.1 256.3 53.1 256.6 53 260.4 51.8 261.8 51 263.8 49.1 264.6 48.3 265.4 47.4 265.6 47.2 266.1 46.6 267.5 43.8 267.5 43.5 267.5 43.4 267.6 43.1 267.7 43 267.8 42.9 267.8 42.8 267.8 42.8 267.7 42.8 267.7 42.7 267.9 42.5 268 42.4 268.2 42 268.2 41.7 268.3 41.5 268.3 41.3 268.3 41.3 268.3 41.3 268.4 41.1 268.4 40.9 268.9 39.3 268.9 33.7 268.5 33.7 268.4 33.7 268.4 33.4 268.4 33.2 268.5 32.9 268.4 32.7 268.4 32.7 268.3 32.7 268.2 32.5 268.2 32.2 268.2 32 268.1 31.7 268.1 31.5 268 31.4 267.9 31.2 267.9 31.2 267.6 30.1 265.7 26.5 264.8 25.6 263.2 23.8 262.1 22.8 261.8 22.8 261.6 22.8 261.5 22.8 261.5 22.7 261.5 22.6 260.9 22.2 260.2 21.9 259.5 21.6 258.8 21.2 258.6 21.1 258.4 21 258.3 21 258.4 21.2 258.5 21.4 258.5 21.4 258.3 21.2 258.1 21.1 257.9 21 257.6 20.9 257.4 20.9 257.1 20.8 256.9 20.7 256.5 20.6 252.9 20.5 252.2 20.7 251.8 20.8 251.4 20.9 251.1 20.9 250.9 20.9 250.6 21 250.5 21.1 250.4 21.2 250.1 21.3 250 21.3 249.3 21.3 245.7 23.5 245.7 23.9 245.7 24 245.6 24 245.5 23.9 245.4 23.9 245.3 23.9 245.3 24.1 245.3 24.2 245.3 24.3 245.2 24.3 245.1 24.2 244.9 24.3 244.8 24.5 244.7 24.7 244 25.4 243.4 26.1L242.3 27.2 242.3 17.9 242.3 8.5 240.7 8.5C239.5 8.5 239 8.6 238.9 8.7M308.2 28.5C308.2 39.6 308.3 48.8 308.4 49 308.4 49.2 308.5 49.5 308.6 49.7 308.6 49.9 308.8 50.2 309 50.4 309.2 50.6 309.3 50.8 309.3 50.9 309.3 51.4 311.8 52.8 312.7 52.8 313.1 52.8 313.4 52.9 313.4 53 313.5 53.1 313.8 53.2 314.1 53.1 319.5 52.2 319.3 52.3 319 50.9 318.7 49.4 318.6 49.3 317.8 49.6 316.6 49.9 315.1 50.1 314.1 49.8 313.3 49.6 311.9 48.6 312.1 48.3 312.1 48.2 312.1 48.2 312 48.2 311.8 48.2 311.8 48.2 311.7 28.2L311.6 8.6 309.9 8.5 308.2 8.5 308.2 28.5M161 9.4C161 9.4 160.5 9.5 159.9 9.6 158.7 9.7 157.3 10 157.1 10.2 157.1 10.3 157 10.4 156.9 10.3 156.5 10.3 156.2 10.4 155.9 10.6 155.8 10.7 155.6 10.8 155.4 10.8 155.1 10.8 152.5 12.2 152 12.6 151.8 12.8 151.5 13 151.4 13 151.3 13 150.3 13.9 148.8 15.4 147.8 16.5 147.4 17 147 17.6 146.8 18 146.4 18.5 146.2 18.9 145.9 19.2 145.7 19.6 145.7 19.7 145.7 19.9 145.5 20 145.4 20.1 145.3 20.2 145.1 20.4 145.1 20.5 145.1 20.7 145 20.9 144.9 20.9 144.9 21 144.8 21.2 144.8 21.4 144.8 21.5 144.8 21.7 144.7 21.7 144.6 21.7 144.4 22.1 144.3 22.7 144.3 22.7 144.2 22.8 144.1 23 143 24.6 142.4 31.2 143 34.8 143.5 37.6 145.3 42.5 145.9 42.5 145.9 42.5 146 42.6 145.9 42.7 145.9 42.7 145.9 42.9 146 42.9 146.1 43 146.3 43.3 146.4 43.5 146.6 43.8 147.1 44.6 147.6 45.2 148.1 45.8 148.5 46.4 148.5 46.5 148.5 46.6 148.6 46.7 148.6 46.7 148.7 46.7 149.3 47.2 150 47.8 150.7 48.5 151.3 49 151.4 49 151.5 49 151.7 49.1 151.8 49.3 154 51.7 162.1 53.6 166.2 52.6 166.8 52.5 167.5 52.3 167.6 52.3 167.7 52.3 169.3 51.7 170.9 51.1 171.1 51 171.3 50.9 171.3 50.9 171.3 50.8 171.6 50.6 171.9 50.5 172.2 50.4 172.8 50 173.3 49.6 173.7 49.2 174.3 48.8 174.5 48.7 174.7 48.5 175.4 47.9 176 47.4 176.5 46.8 177.1 46.3 177.1 46.3 177.1 46.3 177.2 47.7 177.2 49.5L177.1 52.6 178.6 52.6 180 52.7 180 42.2 180 31.7 173.8 31.7C170.4 31.7 167.6 31.6 167.5 31.6 167.5 31.6 167.4 32.2 167.4 33L167.3 34.3 172.2 34.3 177.2 34.3 177.2 38.3 177.2 42.3 175 44.5C173.8 45.7 172.7 46.7 172.7 46.7 172.6 46.7 171.9 47 171.2 47.5 170.4 48 169.7 48.3 169.6 48.3 169.4 48.3 169.3 48.4 169.3 48.5 169.3 48.6 169.3 48.7 169.2 48.6 168.9 48.6 168 48.9 168.1 49 168.1 49.1 167.9 49.2 167.6 49.2 167.3 49.3 166.5 49.4 165.8 49.6 163.4 50.1 159.8 49.8 158.2 49 158 48.9 157.8 48.9 157.7 48.9 157.5 49 157.5 49 157.5 48.9 157.6 48.7 157.5 48.6 156.2 48.2 154.7 47.6 150.2 43.8 150.2 43.1 150.2 43.1 150.1 43 149.9 42.9 149.8 42.9 149.6 42.6 149.4 42.2 149.2 41.9 149 41.7 149 41.7 148.9 41.7 148.8 41.6 148.9 41.5 148.9 41.5 148.6 40.9 148.3 40.2 147.9 39.5 147.6 38.8 147.6 38.8 147.5 38.7 147.4 38.4 147.3 38.1 147.2 37.8 147.1 37.5 147.1 37.4 147.1 37.3 146.9 36.8 146.7 36.2 146.6 35.7 146.4 35.1 146.5 34.9 146.5 34.7 146.4 34.5 146.4 34.5 146.3 34.5 146.2 34.2 146.2 33.9 146.3 33.6 146.2 33.3 146.1 33.3 145.9 33.3 146.1 28 146.3 27.8 146.3 27.8 146.4 27.6 146.4 27.3 146.5 27.1 146.6 26.6 146.7 26.3 146.8 25.9 146.9 25.5 146.9 25.3 147 24.9 147.4 23.8 148 22.4 148.4 21.6 148.7 20.9 148.7 20.9 148.7 20.8 148.9 20.5 149.2 20.2 149.4 19.8 149.7 19.4 149.7 19.3 149.7 19.2 149.7 19.2 149.8 19.2 149.8 19.3 150 19.2 150.2 18.9 151 17.7 151.3 17.3 152.2 16.6 152.8 16.1 153.3 15.7 153.4 15.5 153.6 15.4 153.7 15.4 153.7 15.4 153.7 15.5 153.8 15.5 153.8 15.3 153.9 15.1 154.1 15 154.2 15.1 154.2 15.1 154.3 15 154.4 14.9 154.5 14.8 154.6 14.7 154.7 14.7 154.8 14.8 154.8 14.8 154.8 14.7 154.8 14.6 154.9 14.5 155.1 14.5 155.2 14.5 155.3 14.4 155.3 14.3 155.3 14.2 155.4 14.2 155.5 14.3 155.6 14.3 155.7 14.3 155.7 14.2 155.7 13.7 159.2 12.7 161.5 12.6 163.7 12.4 167 12.9 168.6 13.6 168.9 13.7 169.2 13.8 169.3 13.9 169.5 13.9 169.7 14 169.9 14.2 170.1 14.4 170.3 14.5 170.5 14.5 170.6 14.5 171.2 14.9 171.8 15.3 172.4 15.8 173 16.2 173 16.2 173.1 16.2 173.2 16.2 173.1 16.3 173 16.4 173.6 17 173.8 17 173.9 17 175.4 19.2 176 20.3 176.2 20.6 176.6 20.4 178.1 19.5 179.1 18.9 179.1 18.5 178.2 17.5 178.1 17.3 178 17.2 178.1 17.2 178.2 17.2 178.1 17.1 177.9 16.9 177.7 16.8 177.6 16.7 177.7 16.7 177.8 16.7 177.6 16.4 177.3 16.1 175.7 14.2 174.8 13.4 174.8 13.5 174.7 13.5 174.7 13.4 174.7 13.3 174.7 13.1 174.5 13 174.4 13 174.2 13 173.9 12.8 173.7 12.6 173.5 12.4 173.2 12.2 173.1 12.2 173 12.2 172.8 12.1 172.8 12 172.7 11.8 170.7 10.9 169.8 10.7 169.4 10.5 169 10.4 168.8 10.2 168.7 10.1 168.5 10 168.3 10 168.2 10 167.6 9.9 167 9.8 166 9.5 161.2 9.2 161 9.4M66 14.3C66.1 14.5 67.7 15.2 67.9 15.2 67.9 15.2 68 15.2 68 15.3 68 15.4 68.1 15.5 68.3 15.5 68.5 15.5 68.7 15.6 68.7 15.6 68.8 15.7 68.9 15.8 69 15.8 69.1 15.8 71.5 16.9 72 17.2 72.2 17.3 72.4 17.3 72.5 17.3 72.6 17.3 72.9 17.5 73.2 17.7 73.5 17.9 73.8 18.1 73.8 18.1 73.9 18.1 74.2 18.2 74.5 18.4 74.8 18.5 75 18.6 75 18.6 75 18.5 75.2 18.6 75.4 18.8 75.5 18.9 75.7 19.1 75.7 19 75.8 19 76.4 19.2 77.9 19.9 78.6 20.2 79.6 20.7 80.3 21 80.9 21.3 81.3 21.5 81.1 21.5 80.9 21.5 80.4 21.3 79.6 21 79.4 20.9 79.1 20.8 79 20.8 78.8 20.8 78.6 20.7 78.6 20.6 78.5 20.6 78.4 20.6 78.2 20.6 78 20.7 78 20.7 78.1 20.5 78.2 20.4 78.1 20.3 78 20.3 77.9 20.4 77.6 20.3 77.5 20.3 77 20.1 71.3 18.3 71 18.3 70.9 18.3 70.7 18.3 70.5 18.2 70 17.9 68.6 17.5 68.3 17.4 68.1 17.4 68 17.4 68 17.3 68 17.2 68 17.2 67.9 17.2 67.8 17.3 67.7 17.3 67.6 17.2 67.5 17.1 67 16.9 66.4 16.7 65.4 16.4 65.4 16.5 65.3 15 65.2 14 65.6 13.7 66 14.3M214.6 20.6C214.6 20.6 214.3 20.7 214.1 20.7 206.8 21.9 201.1 29.1 201.2 37.2 201.2 38.3 201.2 39.1 201.3 39.1 201.4 39.1 201.4 39.3 201.4 39.6 201.5 41 203.3 45.7 204 46.6 204.5 47.1 204.7 47.3 204.7 47.4 204.7 47.6 207.7 50.5 208.1 50.7 209.9 51.7 211.2 52.3 211.5 52.4 211.8 52.5 212.5 52.6 213.1 52.8 213.8 53 214.3 53.1 214.3 53 214.3 53 214.4 53 214.5 53.1 214.8 53.3 218.3 53.4 218.3 53.2 218.3 53.1 218.5 53.1 218.8 53.1 219.2 53.1 219.3 53.1 221.9 52.2 222.8 51.9 223.8 51.5 224 51.3 224.2 51.1 224.3 51 224.3 51.1 224.3 51.6 227.9 48.3 228.7 47.1 229 46.7 229.2 46.3 229.3 46.3 229.4 46.2 229.5 46.1 229.4 46 229.4 45.9 229.5 45.7 229.7 45.5 229.9 45.3 230 45.1 230 45 230 44.9 230.1 44.7 230.3 44.6 230.4 44.4 230.5 44.2 230.4 44.2 230.4 44.1 230.4 44 230.5 44 230.7 44 231.6 41 231.8 39.7 232.4 36 231.4 30.6 229.9 28.6 229.7 28.3 229.5 28 229.5 27.9 229.5 27.6 227.8 25.5 226.9 24.7 225.5 23.4 225.3 23.3 225.3 23.5 225.3 23.5 225.2 23.5 225.2 23.3 225.1 23.1 224.9 23 224.8 23.1 224.7 23.1 224.7 23.1 224.7 23 224.7 22.9 224.5 22.8 224.2 22.6 224 22.5 223.6 22.3 223.4 22.2 223.2 22.1 222.6 21.9 222.1 21.7 221.5 21.5 220.9 21.2 220.8 21.2 220.1 20.9 219.1 20.7 218.8 20.8 218.7 20.8 218.5 20.7 218.4 20.7 218.3 20.5 214.8 20.4 214.6 20.6M284.5 20.7C284 20.8 283.4 20.9 283.3 21 283.1 21.1 282.3 21.3 281.5 21.6 278.6 22.4 274.1 25.2 275.5 25.2 275.6 25.2 275.7 25.2 275.6 25.3 275.6 25.5 276.2 26.7 276.4 26.7 276.5 26.7 276.5 26.7 276.4 26.8 276.2 27.2 278.4 26.1 278.8 25.7 278.9 25.6 279 25.6 279.2 25.5 279.3 25.5 279.5 25.4 279.7 25.2 279.9 25.1 280 25 280 25.1 280 25.2 280.1 25.1 280.3 25 282.7 23 290.8 22.9 292.2 24.9 292.3 25 292.3 25 292.3 25 292.3 24.4 295 28 295 28.5 295 28.7 295.1 28.9 295.3 29 295.4 29.1 295.5 29.4 295.5 29.6 295.5 29.8 295.5 30.1 295.6 30.4 295.8 30.7 295.8 31.7 295.8 33.3L295.8 35.7 294.8 35.2C294.2 35 293.5 34.8 293.1 34.8 292.7 34.8 292.4 34.7 292.3 34.6 292.3 34.6 291.9 34.5 291.5 34.4 291.1 34.4 290.4 34.3 289.9 34.2 289.5 34.1 287.9 34.1 286.4 34.1 283 34.1 282.8 34.2 282.8 34.3 282.8 34.4 282.7 34.4 282.5 34.4 282.4 34.4 282.1 34.5 282 34.6 281.8 34.7 281.8 34.7 281.9 34.5 282 34.4 281.9 34.4 281.5 34.6 281.3 34.7 281 34.8 281 34.7 280.8 34.6 277.4 36.1 276.9 36.6 276.4 36.9 274.7 38.6 274.5 38.9 274.4 39.1 274.2 39.5 274 39.8 273.8 40 273.7 40.3 273.7 40.5 273.8 40.6 273.8 40.6 273.7 40.6 273.5 40.5 273.3 41.5 273.4 41.7 273.5 41.8 273.4 41.8 273.3 41.8 273.2 41.8 273.2 42.4 273.2 43.5 273.2 44.8 273.3 45.4 273.7 46.9 273.9 47.6 274 47.8 274.2 47.8 274.3 47.8 274.3 47.9 274.3 48 274.2 48.1 274.4 48.4 274.7 48.7 274.9 49 275.2 49.3 275.2 49.4 275.2 49.6 276.8 51.2 277.4 51.4 277.7 51.6 278.3 51.9 278.7 52.1 279.4 52.5 280.7 52.9 281.7 53.1 282.5 53.3 285.4 53.3 285.6 53.2 285.7 53.1 285.9 53 286.1 53 286.5 53.1 288.9 52.6 289.5 52.3 289.7 52.2 290 52.1 290.1 52.1 290.3 52 290.8 51.8 291.2 51.6 291.7 51.4 292.1 51.2 292.3 51.2 292.4 51.2 292.6 51.1 292.6 50.9 292.7 50.8 292.8 50.7 292.9 50.8 292.9 50.8 293 50.8 293 50.7 293 50.6 293.2 50.5 293.5 50.4 293.8 50.2 294 50.1 293.9 50 293.9 49.9 293.9 49.8 294 49.8 294.1 49.8 294.7 49.3 295.3 48.7L296.3 47.7 296.3 49.1C296.3 51.7 297.2 52.7 299.3 52.6L300.4 52.6 300.5 51.1 300.5 49.7 300 49.6C299.3 49.5 299.3 49.6 299.3 40.5 299.3 35 299.3 32 299.2 32 299.1 32 299 31.7 299 31.3 299 29.8 297.9 26 297.5 26 297.4 26 297.3 26 297.4 25.9 297.4 25.8 297.3 25.5 297.1 25.2 296.4 24.4 295 22.9 295 23.1 295 23.2 294.9 23 294.7 22.8 294.5 22.6 294.3 22.5 294.3 22.6 294.3 22.7 294.2 22.6 294 22.5 293.3 21.8 290.6 20.8 289.4 20.8 289 20.8 288.7 20.7 288.7 20.6 288.7 20.5 285.7 20.5 284.5 20.7M217.8 23.7C219.6 23.9 222.2 24.8 221.9 25.1 221.8 25.1 221.9 25.2 222 25.2 222.5 25.2 225.6 27.9 225.9 28.5 225.9 28.7 226.1 28.8 226.1 28.8 226.2 28.8 226.4 29.1 226.5 29.3 226.6 29.6 226.8 29.8 226.9 29.8 226.9 29.8 227 29.9 227 30 226.9 30 227.1 30.4 227.3 30.9 227.5 31.3 227.7 31.8 227.7 31.9 227.7 32 227.7 32.2 227.8 32.3 228.7 33.3 228.7 40.4 227.9 41.6 227.8 41.7 227.7 42 227.6 42.2 227.5 42.7 226.9 43.7 226 45.2 225.4 46.2 222.2 49 221.9 48.7 221.9 48.7 221.8 48.7 221.8 48.8 221.8 48.9 221.8 49 221.7 48.9 221.6 48.9 221.5 48.9 221.5 48.9 221.5 49.3 219.6 49.9 217.8 50.1 215.8 50.4 212.5 49.8 211.7 49.1 211.5 48.9 211.3 48.8 211.3 48.8 211.2 48.8 211.1 48.8 211 48.7 210.8 48.6 210.2 48.1 209.6 47.7 208.3 46.7 207.4 45.8 207.2 45.3 207.2 45.1 207.1 45 207 45 206.9 45 206.8 44.9 206.8 44.8 206.8 44.6 206.7 44.4 206.5 44.2 206.3 44 206.2 43.8 206.3 43.8 206.3 43.7 206.3 43.7 206.2 43.7 206.1 43.7 206 43.6 206.1 43.5 206.1 43.4 206.1 43.3 206 43.3 205.9 43.3 205.9 43.3 205.9 43.2 205.9 43.1 205.8 42.7 205.6 42.3 205.4 41.9 205.2 41.5 205.3 41.5 205.3 41.5 205.3 41.4 205.2 41.3 205.1 41.1 205 40.9 204.9 40.6 204.6 38.9 204.5 38.3 204.5 37.1 204.5 35.6 204.9 33.1 205.2 32.7 205.3 32.6 205.4 32.4 205.4 32.3 205.4 32.2 205.6 31.8 205.8 31.4 206 31 206.1 30.7 205.9 30.8 205.8 30.8 205.9 30.8 206 30.6 206.2 30.5 206.3 30.3 206.3 30.2 206.3 30.1 206.5 29.9 206.6 29.7 206.8 29.5 206.9 29.3 206.9 29.2 206.9 28.7 209.7 25.8 210.2 25.8 210.3 25.8 210.3 25.7 210.2 25.6 210.2 25.5 210.2 25.5 210.3 25.5 210.5 25.7 211.4 25.1 211.2 24.9 211.1 24.9 211.2 24.8 211.3 24.8 211.3 24.9 211.8 24.7 212.3 24.5 213.2 24.1 214.5 23.8 216.3 23.5 216.3 23.5 217.1 23.6 217.8 23.7M256.3 23.9C257.7 24.3 258.6 24.7 258.7 24.9 258.8 25.1 258.9 25.1 259 25.1 259.1 25 259.2 25.1 259.3 25.3 259.4 25.5 259.5 25.5 259.5 25.4 259.5 25.3 259.7 25.5 260 25.8 260.3 26 260.5 26.2 260.5 26.1 260.5 26.1 260.7 26.3 261 26.6 262.1 27.6 262.6 28.3 262.5 28.4 262.5 28.4 262.6 28.5 262.7 28.6 262.9 28.7 263.1 29 263.3 29.4 263.4 29.7 263.6 30 263.7 30 263.8 30 263.8 30.1 263.8 30.1 263.8 30.3 264 30.9 264.4 31.3 264.5 31.6 264.7 32 264.7 32.2 264.8 32.4 264.9 33.1 265.1 33.7 265.7 36.7 265.3 41.7 264.3 42.4 264.2 42.4 264.1 42.5 264.2 42.5 264.3 42.5 264.2 42.7 264 42.9 263.8 43.2 263.7 43.4 263.8 43.5 263.8 43.6 263.7 43.7 263.6 43.7 263.4 43.8 263.3 43.9 263.3 44.1 263.3 44.4 263.1 44.7 262.6 45.1 262.5 45.3 262.3 45.5 262.3 45.6 262.3 46 259.9 48.2 259.4 48.3 259.2 48.3 259 48.4 258.9 48.6 258.8 48.7 258.6 48.8 258.4 48.8 258.3 48.8 258.2 48.9 258.2 49 258.3 49.1 258.2 49.1 258.1 49.1 258 49 257.8 49 257.8 49.1 257.8 49.5 256.1 50 254.3 50.2 252.8 50.3 251.1 50.1 249.7 49.6 249.1 49.3 248.5 49.1 248.4 49.1 246.9 48.7 243.7 45.8 242.9 44L242.3 42.9 242.3 37.2C242.3 31.9 242.4 31.6 242.7 31 242.9 30.7 243.1 30.3 243.1 30.1 243.2 30 243.3 29.8 243.4 29.8 243.4 29.8 243.5 29.7 243.5 29.6 243.5 29.5 243.8 29.2 244.1 28.8 244.4 28.5 244.7 28.2 244.7 28.1 244.7 28.1 245 27.7 245.5 27.3 245.9 26.9 246.4 26.4 246.6 26.3 246.8 26.1 247 25.9 247.1 25.9 247.2 25.9 247.4 25.7 247.5 25.6 247.7 25.4 247.9 25.3 247.9 25.3 248 25.3 248.3 25.1 248.6 24.9 250.6 23.6 253.6 23.2 256.3 23.9M49.8 27.8C50.8 28 51.7 28.2 51.8 28.2 52 28.3 52.3 28.4 52.6 28.5 52.8 28.6 53.4 28.7 53.8 28.7 54.2 28.7 54.5 28.8 54.5 28.9 54.5 29 54.6 29 54.8 29 55 29 55.5 29.1 56.1 29.2 56.6 29.4 57.2 29.5 57.5 29.6 57.7 29.6 59.4 30 61.3 30.4 63.2 30.8 64.9 31.2 65.2 31.3 65.5 31.3 66.2 31.5 66.7 31.6 67.2 31.8 67.8 31.9 68 31.9 68.2 31.9 68.4 32 68.4 32 68.6 32.2 66.8 32 66.5 31.9 66.4 31.8 66.1 31.8 66 31.7 65.9 31.7 65.5 31.7 65.3 31.6 64.3 31.4 63.8 31.3 63.7 31.3 63.6 31.2 61 30.7 59.8 30.6 59.6 30.5 58.9 30.4 58.2 30.3 57.5 30.1 56.6 30 56.2 29.9 55.8 29.9 55.3 29.8 55.1 29.7 54.8 29.6 54.5 29.6 51.3 29 48.4 28.5 47.9 28.3 47.5 27.5 47.4 27.3 47.4 27.2 47.6 27.3 47.8 27.3 48.7 27.5 49.8 27.8M290.7 36.7C292.9 37.1 294.3 37.5 295.4 37.9L295.8 38 295.8 41.3C295.7 44.7 295.7 45 295.5 45 295.4 45 295.2 45.3 295 45.6 294.2 46.7 291.3 49.2 291.3 48.7 291.3 48.7 291 48.9 290.7 49.1 287.6 51 281.5 50.9 279.3 49 279.1 48.7 278.6 48.3 278.3 48 276.2 46.2 275.8 42.2 277.4 40.1 277.6 39.8 277.8 39.4 277.8 39.3 277.8 39.2 277.9 39.2 278 39.2 278.2 39.2 278.2 39.2 278.2 39 278.2 38.9 278.3 38.8 278.4 38.8 278.5 38.8 278.7 38.7 278.8 38.6 279.3 38 282.2 36.9 283.7 36.7 284.1 36.7 284.5 36.6 284.5 36.5 284.6 36.5 290 36.6 290.7 36.7M113.6 43.3C113.6 43.5 113.3 44.7 113 46.1 112.5 48.5 112.5 49 112.7 50.5 113.4 53.9 113 61.4 112 65.4 111.9 65.8 111.7 66.5 111.6 67.1 111.5 67.6 111.3 68.1 111.2 68.2 111.1 68.3 111 68.5 111 68.7 111 68.8 110.9 69.2 110.7 69.6 110.5 70 110.1 70.8 109.8 71.5 109.4 72.6 108.9 73.5 108 75.2 107.9 75.5 107.7 75.7 107.7 75.7 107.6 75.7 107.5 75.8 107.5 75.9 107.5 76.1 107.4 76.2 107.4 76.2 107.3 76.2 107.1 76.4 107 76.6 106.9 76.9 106.7 77.1 106.7 77.2 106.6 77.2 106.3 77.7 105.8 78.3 105.4 78.9 105 79.5 104.9 79.6 104.8 79.6 104.7 79.8 104.7 79.8 104.7 80.2 100 84.6 98.4 85.8 98.2 85.9 97.9 86.2 97.8 86.3 97.7 86.3 97.4 86.5 97.2 86.6 96.1 87.2 95.8 87.4 95.8 87.5 95.8 87.6 95.8 87.7 95.7 87.6 95.7 87.6 95.3 87.8 94.8 88.1 94.4 88.4 94 88.7 93.9 88.7 93.9 88.7 93.2 88.9 92.5 89.3 91.1 89.9 88.1 91.2 87.6 91.3 87.1 91.4 87 91.4 86.4 91.7 86.1 91.8 85.8 91.9 85.6 91.9 85.4 92 85 92.1 84.7 92.2 84.3 92.2 83.9 92.4 83.6 92.4 83.3 92.4 82.4 92.6 81.7 92.7 75.8 93.7 66.9 93.7 60.7 92.6 59.1 92.3 56.1 91.6 55.8 91.5 55.6 91.4 55.5 91.3 55.4 91.4 55.3 91.4 55.2 91.4 55.1 91.3 55.1 91.3 54.9 91.3 54.9 91.3 54.8 91.2 54.6 91.2 54.5 91.1 54.4 91.1 53.7 90.9 53 90.7 51.7 90.3 47.6 89 46.8 88.6 46.5 88.5 46.1 88.3 45.9 88.3 45.7 88.2 45.5 88.1 45.5 88 45.5 87.9 45.2 87.8 44.9 87.8 44.6 87.7 44.3 87.6 44.3 87.5 44.3 87.4 44.3 87.3 44.2 87.3 44.1 87.3 43.6 87.1 43 86.9 42.5 86.6 42 86.5 42 86.5 41.9 86.5 41.8 86.4 41.8 86.3 41.8 86.2 41.8 86.2 41.7 86.2 41.5 86.3 39.5 85.2 38.6 84.5 38.3 84.3 38 84.2 38 84.3 37.9 84.3 37.7 84.2 37.4 83.9 37.2 83.7 36.9 83.5 36.8 83.5 36.6 83.5 36.5 83.4 36.5 83.3 36.5 83.2 36.4 83.2 36.3 83.2 36.2 83.2 36.1 83.1 36 83 35.8 82.9 35.3 82.5 34.7 82.2 34.2 81.9 33.4 81.4 33.1 81.1 32.8 80.9 32.4 80.5 32.2 80.4 30.3 79 28.4 77.6 27.6 76.8 27.4 76.5 27.2 76.3 27.2 76.4 27.2 76.4 25.9 75.2 24.3 73.6 22.7 72 21.4 70.7 21.4 70.7 21.4 70.6 21.1 70.3 20.8 69.9 20.4 69.5 19.9 68.9 19.8 68.7 19.6 68.5 19.3 68.1 19.1 67.9 18.2 67 17.9 66.6 18.2 66.7 18.3 66.8 18.2 66.7 17.9 66.4 17.6 66.1 17.3 65.8 17.3 65.8 17.3 65.7 17 65.2 16.5 64.6 16.1 64 15.6 63.3 15.3 62.9 15.1 62.6 14.9 62.2 14.8 62.2 14.7 62.2 14.7 62 14.7 61.9 14.7 61.8 14.6 61.7 14.5 61.7 14.4 61.7 14.3 61.6 14.3 61.4 14.3 61.3 14.3 61.2 14.2 61.2 14.1 61.2 14 61.1 14 60.9 14 60.8 13.9 60.7 13.9 60.7 13.8 60.7 13.6 60.4 13.4 60.2 13.3 59.9 13.1 59.7 13 59.8 12.8 59.8 12.9 63.1 13.1 63.8 13.2 64.1 13.3 66 13.4 66.8 13.4 66.9 13.4 67 13.5 67 13.5 67 13.6 67.2 13.6 67.4 13.6 67.8 13.7 68.4 14.1 70 14.2 70.7 14.4 71.4 14.4 71.6 14.5 71.8 14.7 72.5 14.8 73.2 15 73.9 15.2 74.6 15.3 74.9 15.3 75.2 15.5 75.6 15.6 75.9 15.7 76.2 15.9 76.6 15.9 76.8 16 77.4 16.4 78.4 16.5 78.6 16.6 78.7 16.7 78.9 16.7 79 16.7 79.2 16.7 79.3 16.8 79.3 16.9 79.3 16.9 79.5 17 79.7 17 79.9 17.1 80.1 17.2 80.2 17.3 80.2 17.3 80.4 17.3 80.5 17.2 80.6 17.3 80.7 17.4 80.7 17.6 80.8 17.7 80.9 17.7 81.1 17.7 81.2 17.7 81.5 17.8 81.6 17.9 81.8 18.2 82.5 18.5 83.1 18.8 83.8 19.1 84.3 19.2 84.3 19.3 84.3 19.3 84.4 19.3 84.5 19.2 84.6 19.2 84.7 19.3 84.7 19.4 84.7 19.5 84.9 19.6 85.2 19.6 85.4 19.8 85.7 19.9 85.7 19.9 85.7 20 85.7 19.9 85.8 19.9 85.9 20.1 86.3 20.4 86.7 20.7 87.2 21.1 87.7 21.3 88 21.8 89 22.7 90.3 22.9 90.3 23 90.3 23 90.4 22.9 90.5 22.9 90.6 22.9 90.7 23 90.7 23.1 90.7 23.2 90.8 23.2 90.9 23.2 91 23.6 91.6 24.1 92.2 24.6 92.9 25.2 93.6 25.3 93.7 25.5 93.9 25.8 94.3 26.1 94.6 26.4 94.9 26.7 95.2 26.7 95.3 26.7 95.4 26.8 95.6 27 95.7 27.2 95.8 27.3 96 27.3 96.1 27.3 96.2 27.4 96.3 27.5 96.3 27.6 96.3 28.1 96.9 28.8 97.5 30.3 99.2 30.8 99.7 31.6 100.3 32 100.6 32.5 101 32.7 101.2 33 101.5 33.5 101.9 33.9 102.1 34.2 102.4 34.5 102.6 34.5 102.7 34.5 102.7 35.5 103.5 36.7 104.3 37.9 105.1 39.1 105.8 39.3 106 39.6 106.2 40.1 106.5 40.5 106.7 40.9 106.9 41.3 107.1 41.3 107.2 41.4 107.3 44.1 108.6 45.2 109.1 45.6 109.2 46 109.4 46 109.5 46 109.6 46.1 109.7 46.1 109.6 46.2 109.6 46.6 109.8 47 109.9 48.1 110.5 49.7 111 49.7 110.9 49.7 110.8 49.8 110.9 49.9 111 50 111.1 50.5 111.3 51.1 111.4 53.1 112 57.1 113 57.4 113.1 57.6 113.1 57.9 113.2 58 113.2 58.1 113.3 58.2 113.3 58.3 113.2 58.4 113.2 58.6 113.2 58.7 113.3 58.9 113.4 59.4 113.5 60 113.6 60.6 113.6 61.3 113.7 61.7 113.8 64.7 114.2 74.2 114.2 75.2 113.7 75.3 113.6 75.5 113.5 75.5 113.6 75.6 113.6 76.1 113.6 76.7 113.5 77.3 113.4 77.9 113.3 78.1 113.3 78.3 113.2 78.7 113.1 79 113 79.3 112.9 80.3 112.7 81.2 112.5 82 112.3 83 112 83.3 111.9 83.6 111.8 83.9 111.7 83.9 111.7 84.1 111.7 85.1 111.4 85.6 111.2 86 111.1 86.4 110.9 86.5 110.9 87.1 110.8 89.4 109.8 89.7 109.6 89.9 109.4 90.1 109.3 90.1 109.4 90.2 109.5 90.3 109.4 90.4 109.4 90.4 109.3 91.4 108.7 92.7 108.1 95.1 106.9 95.2 106.9 96.5 106 97.1 105.6 97.9 105.1 98.4 104.8 98.9 104.5 99.5 104 99.8 103.8 100 103.5 100.4 103.2 100.7 103.1 100.9 103 101.2 102.7 101.4 102.5 101.6 102.3 102 101.9 102.3 101.7 103.1 101 105.3 98.8 106 98 106.3 97.6 106.8 97.1 107 96.9 107.2 96.7 107.3 96.5 107.3 96.4 107.3 96.3 107.6 96 107.9 95.7 108.2 95.4 108.6 94.9 108.7 94.6 108.9 94.3 109.1 93.9 109.3 93.8 109.5 93.6 109.7 93.4 109.7 93.2 109.7 93.1 109.7 93 109.8 93 110 92.9 111.7 90.2 111.6 90.2 111.5 90.2 111.7 90 111.9 89.7 112.1 89.5 112.3 89.2 112.2 89.2 112.2 89.1 112.3 88.9 112.4 88.8 112.6 88.7 112.7 88.6 112.7 88.5 112.7 88.4 113 87.7 113.3 87 113.7 86.3 114 85.5 114.1 85.3 114.2 85.1 114.4 84.5 114.6 84.1 115.2 82.7 115.8 81 115.7 80.8 115.7 80.7 115.7 80.7 115.8 80.7 115.9 80.7 116.3 79.4 116.6 78.3 117.2 75.8 117.4 74.8 117.7 72.9 117.9 71.7 118.1 69.8 118.1 68.7 118.2 67.6 118.3 66.7 118.4 66.7 118.6 66.7 118.3 60.8 117.8 57.3 117.6 55.5 116.9 51.9 116.6 50.7 116.4 50.2 116.3 49.6 116.2 49.4 116.1 48.6 115.3 46.2 115.1 46 115 45.9 115 45.8 115.1 45.8 115.2 45.8 115.1 45.7 115 45.6 114.9 45.4 114.7 45.2 114.7 45.1 114.6 44 113.8 42.7 113.6 43.3M143.8 65.5L143.8 69 151.9 69 160 69 160 88.6 160 108.2 164 108.2 167.9 108.2 167.9 88.6 167.8 69 175.9 69 184 69 184 65.5 184 62 163.9 62 143.8 62 143.8 65.5M298.6 62.2C298.5 62.3 298.5 72.7 298.5 85.3L298.6 108.1 302.5 108.1 306.5 108.2 306.5 97.5C306.5 86.2 306.6 85.2 307.3 84.7 307.4 84.6 307.5 84.4 307.7 84.2 307.9 83.7 309.1 82.3 309.9 81.4 310.4 80.9 313 79.4 313.5 79.2 313.6 79.2 314.1 79.1 314.4 79 318.4 78 322.1 80.4 322.6 84.2 322.6 84.6 322.7 85 322.8 85 322.8 85.1 322.9 85.6 322.9 86.2 322.9 86.8 322.9 87.3 323 87.4 323.1 87.5 323.2 91.7 323.1 97.9L323.1 108.2 326.9 108.1 330.8 108.1 330.7 95.8C330.7 83.6 330.7 81.8 330.5 81.8 330.4 81.8 330.3 81.6 330.3 81.4 330.3 81.1 330.2 80.2 329.9 79.2 329.9 79.1 329.8 79 329.8 78.9 329.6 77.8 328 75 327.5 74.9 327.3 74.8 327.2 74.7 327.2 74.5 327.2 74.4 327.1 74.3 327.1 74.4 327 74.4 326.8 74.2 326.5 73.9 324.6 71.8 320.1 71.2 314.9 72.3 313.5 72.6 309.3 75 309.3 75.5 309.3 75.6 309.2 75.7 309.1 75.7 308.9 75.7 308.8 75.7 308.9 75.8 308.9 75.8 308.8 76.1 308.5 76.3 308.2 76.6 307.7 77.2 307.3 77.7L306.5 78.7 306.5 70.4 306.5 62 302.6 62C299.6 62 298.6 62.1 298.6 62.2M195 71.9C194 72 192.9 72.2 192.4 72.4 192 72.5 191.6 72.7 191.5 72.7 191.1 72.7 189.1 73.5 188.3 74.1 187.9 74.3 187.2 74.8 186.8 75 186.2 75.4 184.4 77.1 183.3 78.3 182.8 78.8 182.1 80 181.9 80.5 181.8 80.7 181.7 80.8 181.7 80.8 181.6 80.8 181.5 81.1 181.3 81.5 181.2 81.9 181 82.3 180.8 82.5 180.6 82.7 180.5 83 180.6 83.1 180.6 83.2 180.6 83.3 180.5 83.3 180.3 83.3 180 84.3 180.1 84.5 180.1 84.5 180.1 84.7 180 84.8 179.9 84.9 179.8 85 179.9 85 180 85 180 85.1 179.9 85.2 179.2 86.1 179 91.9 179.6 94.6 179.8 95.5 179.9 96.2 180 96.2 180.1 96.2 180.2 96.4 180.2 96.7 180.3 97.1 180.6 97.8 180.9 98.3 181.2 98.9 181.5 99.3 181.4 99.3 181.2 99.3 183.3 102.6 184 103.2 184.1 103.3 184.3 103.6 184.5 103.8 185.4 104.6 187.1 105.8 187.2 105.7 187.3 105.7 187.3 105.7 187.3 105.8 187.2 105.9 188.5 106.8 188.7 106.7 188.8 106.7 188.8 106.7 188.8 106.8 188.8 107 189.3 107.2 189.6 107.2 189.6 107.1 189.8 107.2 189.8 107.3 190 107.5 193.1 108.5 194.4 108.7 197.9 109.2 203 108.6 205.6 107.5 205.8 107.4 206.1 107.3 206.3 107.2 206.5 107.2 206.7 107.1 206.7 107 206.7 106.9 206.7 106.9 206.8 106.9 206.9 107 207.2 106.8 207.4 106.6 207.7 106.4 207.9 106.2 208 106.3 208.1 106.3 208.2 106.3 208.2 106.2 208.2 106.1 208.2 106 208.3 106 208.6 106 209.6 105.3 210.4 104.5 210.7 104.2 211.1 103.8 211.2 103.7 211.6 103.4 212.3 102.5 212.3 102.4 212.3 102.4 212.5 102.2 212.7 102 213.1 101.5 213.7 100.4 213.9 99.9 214 99.6 213.9 99.5 213.5 99.4 213.2 99.3 212.4 99.1 211.8 98.9 211.2 98.7 210.7 98.6 210.7 98.6 210.7 98.6 210.4 98.6 210.2 98.4 209.9 98.3 209.7 98.2 209.7 98.3 209.7 98.3 209.5 98.3 209.4 98.2 209.1 98 208.6 97.9 207.7 97.7 207.3 97.6 207.2 97.7 206.7 98.6 206.5 99.1 205.9 99.8 205.5 100.2 205.1 100.5 204.6 101 204.3 101.2 204.1 101.4 203.7 101.6 203.6 101.6 203.4 101.7 203 101.9 202.8 102 201.3 103.1 197.4 103.4 195 102.7 194.4 102.5 193.8 102.2 193.8 102.2 193.8 102.1 193.6 102 193.3 101.9 193.1 101.9 192.8 101.7 192.8 101.5 192.7 101.4 192.6 101.3 192.6 101.4 192.5 101.4 192.3 101.3 192 101.1 191.8 100.9 191.5 100.7 191.5 100.7 191.2 100.7 189.9 99.2 189.5 98.4 189.3 98 188.9 97.5 188.8 97.3 188.6 97.1 188.4 96.9 188.4 96.8 188.5 96.7 188.3 96.3 188.1 95.8 188 95.6 187.9 95.3 187.9 95.2 187.9 95 187.8 94.6 187.7 94.3 187.3 92.9 185.8 93 201.8 93 215.9 92.9 216.1 92.9 216.1 92.6 216.3 91.4 216.2 88.2 215.9 86.4 215.9 86.1 215.8 85.8 215.8 85.7 215.8 85.5 215.7 85.3 215.7 85.3 215.6 85.2 215.4 84.6 215.3 84.1 215.1 83.5 214.7 82.6 214.4 81.9 214.1 81.2 213.8 80.6 213.8 80.5 213.8 80.5 213.6 80.2 213.4 79.9 213.2 79.7 213.1 79.5 213.1 79.5 213.2 79.5 213 79.3 212.8 79 212.6 78.8 212.1 78.2 211.7 77.7 210.8 76.6 209.4 75.4 207.9 74.5 207.3 74.2 206.8 73.9 206.8 73.8 206.8 73.7 206.8 73.7 206.7 73.8 206.6 73.8 206.5 73.8 206.5 73.7 206.5 73.6 206.4 73.5 206.3 73.6 206.2 73.6 206.2 73.6 206.2 73.5 206.2 73.4 206.1 73.3 206.1 73.4 206 73.5 205.8 73.4 205.6 73.3 204.9 72.9 203.7 72.4 202.6 72.3 202.4 72.2 201.9 72.1 201.5 72 200.2 71.7 196.9 71.7 195 71.9M234.3 71.8C232.3 72 229.6 72.5 228.5 73 228.4 73 228.1 73.1 227.8 73.1 227.6 73.2 227.2 73.3 227 73.5 226.8 73.6 226.5 73.8 226.4 73.8 226.1 73.8 223.5 75.1 222.5 75.8 221.4 76.5 221.3 76.6 221.9 77.3 222.1 77.5 222.3 77.8 222.3 77.9 222.3 78 222.7 78.8 223.1 79.6 223.5 80.5 223.8 81.3 223.8 81.3 223.8 81.6 224.3 81.5 224.5 81.2 224.7 81 225.1 80.7 225.6 80.5 226 80.2 226.8 79.8 227.2 79.6 227.7 79.4 228.2 79.1 228.3 79 228.4 78.8 228.6 78.8 228.6 78.8 228.8 78.9 230 78.4 229.9 78.3 229.8 78.2 229.9 78.2 230 78.2 230.1 78.3 230.4 78.2 230.8 78.1 231.1 77.9 231.5 77.8 231.7 77.8 231.9 77.8 232.2 77.7 232.3 77.6 232.7 77.3 237.1 77.3 237.8 77.5 238 77.6 238.4 77.7 238.6 77.7 238.7 77.7 238.9 77.7 239 77.8 239 77.9 239.4 78.1 239.8 78.3 240.7 78.7 242.5 80.1 242.5 80.5 242.5 80.6 242.7 80.8 242.9 81 243.1 81.2 243.1 81.3 243 81.2 242.8 81.1 242.8 81.2 242.9 81.3 243.5 82.1 243.9 83.6 244 85.7L244.1 87.8 243.4 87.6C243.1 87.4 242.7 87.4 242.7 87.4 242.6 87.5 242.5 87.4 242.5 87.4 242.5 87.3 242.3 87.2 242 87.1 241.7 87.1 240.9 86.9 240.3 86.8 236.5 85.9 229.2 86.2 227.2 87.4 227 87.6 226.8 87.6 226.8 87.6 226.8 87.5 226.7 87.6 226.5 87.7 226.4 87.9 226.2 88 226.1 87.9 226.1 87.8 226 87.9 226 88 226 88.1 226 88.2 225.9 88.1 225.8 88.1 225.7 88.1 225.5 88.2 225.2 88.5 224.6 88.8 224.3 88.9 224.1 89 224 89.1 224 89.2 224 89.3 223.9 89.3 223.8 89.3 223.6 89.3 223.5 89.4 223.4 89.5 223.3 89.7 223 90 222.7 90.2 222.4 90.5 222.2 90.7 222.3 90.7 222.4 90.7 222.2 90.8 222 90.9 221.8 91 221.6 91.2 221.6 91.3 221.6 91.4 221.6 91.5 221.5 91.5 221.4 91.5 221.3 91.6 221.3 91.8 221.3 91.9 221.3 92 221.2 92 220.9 92 220 93.9 219.7 95.2 219.2 97.5 219.6 100.8 220.6 102.6 220.8 102.9 221.1 103.4 221.2 103.7 221.4 104.1 221.6 104.3 221.7 104.3 221.8 104.3 221.8 104.4 221.8 104.5 221.8 105 224.9 107.4 225.2 107.2 225.3 107.2 225.3 107.2 225.3 107.3 225.2 107.4 225.2 107.5 225.3 107.5 225.6 107.6 225.7 107.6 226.1 107.8 228.9 109.3 235.3 109.1 239 107.4 239.7 107.1 240.3 106.8 240.4 106.8 240.4 106.8 240.5 106.8 240.5 106.7 240.5 106.6 240.6 106.5 240.7 106.6 240.8 106.6 240.8 106.6 240.8 106.5 240.8 106.4 240.9 106.3 241.1 106.3 241.2 106.3 241.3 106.3 241.4 106.2 241.4 106.1 241.9 105.7 242.6 105.1 243.2 104.6 244 103.9 244.4 103.5L245 102.9 245.1 104C245.2 105.2 245.4 106.2 245.7 106.2 245.8 106.2 245.8 106.2 245.8 106.3 245.6 106.6 246.6 107.6 247.4 108 248.2 108.4 251.9 108.6 253.2 108.3L253.6 108.2 253.6 104.9 253.6 101.6 253.1 101.4C251.8 101 251.8 101 251.8 93.5 251.8 87.4 251.6 82.6 251.4 82.3 251.3 82.2 251.2 81.9 251.2 81.6 251.2 81.3 251.1 81 251 80.8 250.9 80.6 250.8 80.4 250.8 80.2 250.8 80 250.8 79.8 250.7 79.8 250.6 79.8 250.3 79.4 250.1 78.8 249.8 78.3 249.6 77.8 249.5 77.8 249.4 77.8 249.3 77.7 249.3 77.5 249.2 77.1 248 75.7 248 75.9 248 76 247.7 75.7 247.3 75.3 246.9 74.9 246.2 74.4 245.8 74.2 245.4 73.9 245.1 73.7 245.1 73.6 245.2 73.5 245.2 73.5 245.1 73.6 244.9 73.6 244.6 73.5 244.2 73.3 243.9 73 243.5 72.8 243.4 72.8 243.3 72.8 242.8 72.7 242.2 72.5 240.5 72 236.5 71.6 234.3 71.8M275.7 71.7C275.6 71.8 274.9 71.8 274.2 71.9 273.4 72 272.3 72.1 271.8 72.3 271.3 72.4 270.7 72.6 270.4 72.7 270.1 72.7 269.7 72.9 269.4 73 269.1 73.1 268.9 73.2 268.8 73.2 268.5 73.3 267.2 74.1 267.2 74.2 267.2 74.3 267.1 74.3 266.9 74.3 266.8 74.3 266.4 74.6 266 74.9 265.6 75.2 265.1 75.5 264.8 75.7 263.6 76.5 260.5 80.1 260.8 80.5 260.8 80.6 260.8 80.7 260.7 80.7 260.5 80.7 259.9 81.8 260 82 260 82.1 259.9 82.2 259.8 82.2 259.7 82.2 259.7 82.2 259.8 82.3 259.8 82.4 259.8 82.5 259.7 82.5 259.6 82.5 259.5 82.6 259.5 82.6 259.6 82.7 259.5 83.1 259.3 83.5 257.6 88.1 257.8 94.1 259.8 98.1 260.1 98.8 260.4 99.5 260.4 99.5 260.4 99.6 260.5 99.7 260.6 99.8 260.7 99.9 260.9 100.2 261.1 100.5 261.2 100.8 261.6 101.4 261.9 101.8 262.3 102.1 262.5 102.5 262.5 102.6 262.5 102.7 262.8 103 263.3 103.5 263.7 103.9 264 104.2 264 104.1 264 104.1 264.2 104.2 264.5 104.5 264.8 104.8 265.1 105 265.1 105 265.2 105 265.5 105.2 265.8 105.5 266.6 106.2 267.2 106.6 267.6 106.7 267.8 106.7 268 106.8 268 106.8 269.8 108.6 277.9 109.4 282.2 108.2 282.7 108.1 283.3 108 283.5 107.9 283.7 107.9 284.1 107.7 284.3 107.6 284.5 107.4 284.7 107.4 284.7 107.4 284.7 107.5 285.7 107 285.9 106.8 285.9 106.7 286 106.7 286 106.7 286 106.8 286.2 106.7 286.4 106.5 286.7 106.3 286.8 106.2 286.7 106.3 286.7 106.5 286.9 106.3 287.3 106 288.3 105.1 288.4 105.1 288.7 105 288.9 104.9 289 104.8 289 104.7 289 104.6 289.3 104.4 289.6 104.2 289.9 104 290.2 103.7 290.2 103.6 290.2 103.4 290.2 103.3 290.3 103.3 290.4 103.3 290.9 102.8 291.3 102 291.8 101.3 292.2 100.7 292.3 100.6 292.4 100.5 292.4 100.3 292.4 100.3 292.3 100.2 292.3 100.2 292.4 100.2 292.5 100.2 292.6 100 292.6 99.9 292.6 99.6 289.5 98.4 288.8 98.5 288.6 98.5 288.5 98.4 288.6 98.4 288.6 98.3 287.4 97.8 286.8 97.8 286.8 97.7 286.4 97.6 286 97.5 285.3 97.3 285.2 97.3 284.9 97.6 284.8 97.7 284.7 97.8 284.7 97.8 284.9 97.8 283.7 99.3 283.1 99.9 282.6 100.3 280.1 101.7 279.9 101.7 279.8 101.7 278.9 101.9 278.8 102 278.2 102.3 274.7 102.3 274.7 102 274.7 101.9 274.5 101.8 274.4 101.8 274.2 101.8 273.8 101.7 273.4 101.6 273.1 101.4 272.6 101.3 272.5 101.2 272.3 101.2 272.2 101 272.2 101 272.2 100.9 272.1 100.8 272.1 100.9 271.8 101.1 269.6 99.2 268.8 98 268.4 97.5 268.1 97 268 97 267.7 96.8 266.9 94.8 266.6 93.6 265.7 90.5 266.5 85.1 268 83.5 268.1 83.3 268.2 83.2 268.1 83.2 268 83.2 268.2 82.9 268.5 82.7 268.8 82.4 269 82.1 269 82.1 269 82 269.4 81.6 269.9 81.1 271.1 79.9 272.9 79.1 275.1 78.6 277.3 78.1 281.9 79.4 283 80.9 283.1 81 283.4 81.4 283.7 81.7 284 81.9 284.1 82.2 284.1 82.2 284 82.2 284.1 82.3 284.3 82.5 284.5 82.7 284.7 82.9 284.7 82.9 284.6 83.3 288.8 82.3 289.2 81.9 289.2 81.8 289.5 81.7 289.8 81.7 290.4 81.7 292.3 80.8 292.3 80.6 292.3 80.5 291.9 79.8 291.4 79 290.9 78.3 290.5 77.6 290.5 77.5 290.5 77.4 290.4 77.3 290.4 77.3 290.3 77.3 289.8 76.9 289.2 76.3 288.2 75.3 286 73.8 285.7 73.8 285.6 73.8 285.5 73.8 285.6 73.7 285.6 73.6 285.6 73.5 285.5 73.5 285.3 73.5 285.1 73.4 284.8 73.3 283.1 72.4 276.2 71.2 275.7 71.7M353.2 71.8C352.6 71.9 351.8 72 351.5 72.1 351.2 72.2 350.8 72.2 350.8 72.3 350.7 72.3 350.5 72.3 350.5 72.3 350.4 72.4 350 72.5 349.4 72.6 347.8 72.9 342.5 76.1 342.6 76.7 342.7 76.8 342.6 76.8 342.5 76.8 342.4 76.7 342.2 76.9 342 77.2 341.8 77.5 341.3 78 341 78.3 340.7 78.7 340.6 79 340.6 79.1 340.7 79.1 340.6 79.2 340.4 79.2 340.3 79.2 340.2 79.2 340.2 79.3 340.3 79.4 340.2 79.5 340.1 79.6 339.9 79.6 339.8 79.8 339.8 79.9 339.8 80.1 339.8 80.2 339.7 80.2 339.6 80.2 339.5 80.3 339.5 80.4 339.5 80.5 339.2 81.1 338.9 81.7 338.1 83.3 336.8 87.6 337.1 88 337.1 88.1 337.1 88.3 337 88.4 336.8 88.7 336.9 93.8 337.2 93.8 337.2 93.8 337.2 93.9 337.3 94.1 337.4 94.9 337.9 96.5 338.2 97.3 338.4 97.8 338.6 98.5 338.7 98.8 338.9 99.1 339 99.4 339.1 99.5 339.2 99.5 339.3 99.7 339.3 99.8 339.5 100.9 342.9 104.7 344.5 105.6 344.6 105.7 344.8 105.8 344.8 105.8 345 106.1 346.1 106.7 345.9 106.5 345.9 106.4 345.9 106.4 346.1 106.4 346.2 106.5 346.3 106.6 346.2 106.7 346.2 106.8 348.8 107.9 349.6 108.1 349.8 108.1 350.2 108.2 350.4 108.3 352.6 108.9 356.6 109 359.3 108.6 360.8 108.3 363.8 107.4 364 107.1 364.1 107 364.2 107 364.3 107 364.5 107 365.9 106.3 366.1 106.1 366.2 106 366.5 105.7 366.8 105.5 367.2 105.3 367.7 104.9 368.1 104.5 368.5 104.2 368.8 103.9 368.9 103.8 369.5 103.4 371.1 101.1 371.4 100.2 371.7 99.6 371.6 99.3 371 99.3 370.9 99.3 370.3 99.2 369.8 99 369.2 98.8 368.6 98.6 368.4 98.6 368.2 98.5 368 98.5 367.8 98.4 367.7 98.4 367.6 98.3 367.6 98.3 367.6 98.3 366.9 98.1 366.6 98.1 366.5 98.1 366.4 98 366.4 98 366.5 97.9 365.7 97.7 365.2 97.7 365 97.7 364.8 98 364.6 98.4 364.3 99 363.1 100.3 362.1 101.1 359.5 103.3 354.6 103.7 351.4 102.1 351.1 101.9 350.7 101.8 350.7 101.8 350.6 101.8 350.4 101.6 350.2 101.4 350 101.2 349.7 101 349.7 101 349.5 101 347.5 99.1 347.2 98.5 346.1 96.7 345.3 94.5 345.3 93.4L345.3 93 359.6 93 373.8 93 373.9 91.3C374 90.4 374 89.3 373.9 88.9 373.9 88.4 373.8 87.7 373.8 87.3 373.6 86.2 373.3 84.8 373.1 84.6 373.1 84.5 373 84.3 373.1 84.3 373.4 84 370.4 78.4 369.8 78 369.7 78 369.4 77.7 369.1 77.4 368.6 76.7 366.4 74.8 366.2 74.8 366.1 74.8 365.7 74.6 365.3 74.3 364.9 74.1 364.5 73.8 364.4 73.8 364.3 73.8 364.2 73.7 364.2 73.6 364.2 73.5 364.1 73.5 364.1 73.6 364 73.6 363.8 73.6 363.7 73.5 363.4 73.2 361.9 72.7 360.3 72.2 358.5 71.8 355.1 71.6 353.2 71.8M396.3 72.2C395.9 72.2 395.2 72.4 394.9 72.6 393.6 73.1 392.4 73.8 392.2 74 392.1 74.1 391.7 74.4 391.3 74.7 390.6 75.1 388.6 77.2 388.3 77.8 388.2 78 387.8 78.5 387.5 78.9L387 79.7 387 76.1 386.9 72.4 383.4 72.4 379.8 72.3 379.8 90.2 379.8 108.2 383.8 108.2 387.7 108.2 387.7 97.2 387.7 86.2 388.2 85.2C388.9 83.9 391 81.7 391.6 81.6 391.7 81.5 392 81.4 392.1 81.3 393 80.4 397 79.2 399.3 79.2L400 79.2 400 75.6 399.9 72.1 398.5 72.1C397.7 72.1 396.7 72.1 396.3 72.2M199.8 77.7C200 77.8 200.3 77.8 200.3 77.8 200.4 77.9 200.5 77.9 200.6 77.9 200.7 77.9 201 78.1 201.4 78.2 201.8 78.4 202.1 78.5 202.1 78.4 202.2 78.4 202.3 78.4 202.4 78.5 202.7 78.8 204.4 79.8 204.5 79.8 204.7 79.8 206.2 81.4 206.2 81.6 206.2 81.7 206.2 81.8 206.3 81.8 206.4 81.8 206.6 82.1 206.7 82.3 206.8 82.6 206.9 82.8 207 82.8 207.1 82.8 207.2 83 207.2 83.2 207.2 83.4 207.2 83.5 207.3 83.5 207.4 83.5 207.5 83.6 207.5 83.6 207.4 83.7 207.5 84 207.7 84.3 207.8 84.7 207.9 85 207.9 85 207.9 85 208 85.4 208.1 85.8 208.2 86.1 208.3 86.5 208.4 86.6 208.9 87.3 208.9 87.3 197.8 87.3L187.3 87.3 187.3 87C187.3 86.4 187.9 84.4 188.2 84 188.3 83.8 188.5 83.4 188.6 83.1 189.1 82.1 190.1 80.8 191 80.1 191.5 79.7 192 79.3 192.1 79.2 192.2 79.1 192.4 79 192.6 78.9 192.8 78.9 193 78.7 193 78.6 193 78.6 193.1 78.5 193.2 78.6 193.4 78.7 193.9 78.5 193.7 78.3 193.7 78.2 193.8 78.2 193.9 78.3 194.1 78.3 194.2 78.3 194.2 78.2 194.2 78.1 194.3 78.1 194.4 78.1 194.6 78.2 194.7 78.2 194.6 78.1 194.6 78 194.7 77.9 194.8 77.9 195.4 77.8 196.2 77.7 196.3 77.6 196.4 77.5 198.9 77.6 199.8 77.7M357.3 77.7C357.6 77.8 358 77.9 358.2 77.9 358.3 77.9 358.6 78 358.9 78.1 360.5 78.8 360.8 78.9 360.8 79.1 360.8 79.1 360.9 79.1 361 79.1 361.1 79 361.2 79.1 361.2 79.1 361.2 79.2 361.3 79.4 361.5 79.4 362.2 79.6 364.5 82.1 364.5 82.6 364.5 82.7 364.6 82.9 364.7 83 365.3 83.8 366.2 86.1 366.2 87.2 366.2 87.3 362.1 87.3 355.6 87.3L345.1 87.3 345.1 86.8C345.1 86.6 345.2 86.3 345.2 86.2 345.3 86 345.4 85.7 345.4 85.5 345.4 85.3 345.6 84.8 345.7 84.5 345.9 84.1 345.9 83.8 345.9 83.8 345.8 83.8 346 83.6 346.2 83.3 346.3 83.1 346.5 82.8 346.5 82.8 346.5 82.4 347.9 80.8 348.8 80 350 79.1 351.8 78 351.6 78.3 351.5 78.4 351.7 78.4 352 78.2 352.2 78.1 352.5 78 352.7 78 352.9 78 353 77.9 353.1 77.8 353.1 77.7 353.2 77.7 353.3 77.7 353.4 77.8 353.6 77.7 353.8 77.7 354.2 77.5 356.5 77.5 357.3 77.7M239.1 91.1C240.8 91.3 243 91.9 243.2 92.2 243.3 92.3 243.5 92.3 243.7 92.3 244 92.3 244 92.5 244 94.8 244 97.8 244 97.9 242 99.9 241.2 100.8 240.9 101 239.5 101.7 239 102 238.5 102.3 238.4 102.4 238.1 102.5 238.1 102.5 238.2 102.3 238.4 102.1 238.3 102.1 238.1 102.4 237.2 103.1 232.4 103.3 231 102.7 230.5 102.5 230.1 102.3 230.1 102.3 230 102.4 229.8 102.2 229.7 102 229.5 101.8 229.3 101.7 229.3 101.8 229.3 102.6 227.2 99.3 227.1 98.3 227 97.8 226.9 97.3 226.8 97.2 226.7 97.1 226.7 96.9 226.8 96.8 226.9 96.6 227 96.4 227 96.3 226.9 95.7 227.8 93.8 228.4 93.3 228.6 93.2 228.9 92.9 229.1 92.7 230.7 91.2 235 90.5 239.1 91.1"></path>
    <path id="path1" d="M55.3 4.4C55.4 4.6 55.6 4.8 55.7 4.8 55.8 4.8 55.8 4.8 55.7 4.7 55.6 4.7 55.5 4.5 55.5 4.4 55.5 4.3 55.4 4.2 55.2 4.1 55 4 55 4.1 55.3 4.4M191.4 27.8C191.4 38.3 191.4 47 191.5 47.1 191.6 47.3 191.6 27.9 191.5 14 191.4 11 191.4 17.2 191.4 27.8M65.3 9.7C64.9 10 64.6 10.3 64.7 10.3 64.7 10.3 65.1 10 65.5 9.7 65.8 9.3 66.1 9 66 9 66 9 65.6 9.3 65.3 9.7M31.8 10.2C31.4 10.4 31.4 10.5 31.7 10.4 31.9 10.3 32.2 10.2 32.3 10.1 32.6 9.8 32.6 9.8 31.8 10.2M168.9 10.3C169 10.4 169.2 10.5 169.4 10.5 169.7 10.5 169.7 10.5 169.4 10.3 169 10.1 168.8 10.1 168.9 10.3M66.3 11.8C66 12.1 65.9 12.2 66.1 12.2 66.2 12.2 66.3 12 66.5 11.8 66.7 11.4 66.6 11.4 66.3 11.8M77.6 17.3C77.9 17.5 78.2 17.6 78.1 17.4 78 17.3 77.8 17.2 77.6 17.1 77.3 17 77.3 17 77.6 17.3M72.7 17.5C73.2 17.9 73.6 18 73.2 17.7 72.9 17.5 72.7 17.3 72.6 17.3 72.5 17.3 72.5 17.4 72.7 17.5M24.8 18.7C24.5 19 24.4 19.1 24.6 19 24.9 18.9 25.6 18.2 25.5 18.2 25.4 18.2 25.2 18.4 24.8 18.7M84 20.1C84 20.1 84.2 20.3 84.5 20.4 84.8 20.6 85 20.6 85 20.6 85 20.5 84.8 20.4 84.5 20.3 84.2 20.1 84 20 84 20.1M95.6 20.6C96 21 96.3 21.2 96.3 21.2 96.4 21.1 95.3 20 95.2 20 95.1 20 95.3 20.3 95.6 20.6M212.6 21C212.4 21.1 212.3 21.1 212.5 21.1 212.6 21.1 212.9 21.1 213.1 21 213.3 20.9 213.3 20.9 213.2 20.9 213 20.9 212.8 20.9 212.6 21M290.7 21C290.8 21.1 291.1 21.2 291.2 21.2 291.7 21.2 291.5 21.1 290.9 20.9 290.6 20.9 290.5 20.9 290.7 21M73.5 21.3C73.5 21.4 73.7 21.5 73.8 21.5 74 21.6 74.2 21.6 74.2 21.5 74.2 21.4 74 21.3 73.8 21.3 73.7 21.2 73.5 21.3 73.5 21.3M80.6 21.3C80.6 21.4 80.9 21.5 81.1 21.5 81.4 21.5 81.4 21.5 81.1 21.3 80.6 21.1 80.5 21.1 80.6 21.3M295.8 23.9C296 24 296.2 24.2 296.3 24.3 296.5 24.5 296.5 24.5 296.3 24.2 296.2 24 295.9 23.7 295.8 23.7 295.6 23.6 295.6 23.7 295.8 23.9M221.2 24.7C221.2 24.8 221.8 25.1 221.9 25 221.9 24.9 221.8 24.8 221.6 24.7 221.3 24.6 221.2 24.6 221.2 24.7M264.5 25.3C264.7 25.5 264.9 25.7 265 25.8 265.1 25.8 265.1 25.7 264.8 25.4 264.4 24.9 264.3 24.9 264.5 25.3M17.8 26C17.6 26.2 17.5 26.4 17.5 26.4 17.6 26.5 17.8 26.4 17.9 26.2 18.3 25.7 18.2 25.6 17.8 26M10 29.3C9.5 29.8 9.6 30 10 29.4 10.2 29.2 10.3 29 10.3 28.9 10.3 28.9 10.1 29 10 29.3M295.2 29.1C295.2 29.5 295.5 29.9 295.5 29.6 295.5 29.4 295.4 29.1 295.3 29.1 295.2 29 295.2 29 295.2 29.1M9.1 30.5L8.8 31.1 9.1 30.7C9.5 30.3 9.6 30 9.5 30 9.4 30 9.3 30.2 9.1 30.5M37 31C36.1 31.6 36.6 31.5 37.7 30.9 37.7 30.9 37.7 30.8 37.6 30.8 37.6 30.7 37.3 30.8 37 31M39.2 31.3C39.4 31.5 39.7 31.7 39.8 31.7 40.1 31.7 40 31.6 39.3 31.3L38.8 31 39.2 31.3M65.6 31.5C65.3 31.6 65.3 31.6 65.7 31.7 65.9 31.8 66.1 31.8 66.1 31.7 66.2 31.7 66.1 31.7 66 31.7 65.9 31.7 65.9 31.6 65.9 31.5 66 31.3 66 31.3 65.6 31.5M70.8 31.5C71.3 31.7 72.1 31.9 71.8 31.7 71.7 31.6 71.3 31.5 71 31.4 70.6 31.4 70.5 31.4 70.8 31.5M170.7 31.6C172.4 31.7 175.2 31.7 177 31.6 178.7 31.6 177.3 31.6 173.8 31.6 170.4 31.6 169 31.6 170.7 31.6M177.1 38.4C177.1 40.7 177.1 41.7 177.1 40.6 177.2 39.4 177.2 37.6 177.1 36.4 177.1 35.2 177.1 36.1 177.1 38.4M279.6 35.1C279.2 35.3 279.2 35.3 279.5 35.2 280 35.1 280.5 34.8 280.3 34.8 280.2 34.8 279.9 35 279.6 35.1M70.9 38.7C71 38.8 71.3 38.8 71.5 38.8 72.2 38.8 72.1 38.8 71.4 38.6 71 38.5 70.9 38.6 70.9 38.7M3.4 42C3.3 42.1 3.3 42.3 3.2 42.4 3.2 42.5 3.3 42.4 3.4 42.3 3.7 41.9 3.7 41.7 3.6 41.7 3.5 41.7 3.4 41.8 3.4 42M87.7 42.4C87.7 42.4 87.9 42.5 88.1 42.5 88.3 42.5 88.5 42.5 88.5 42.4 88.5 42.4 88.3 42.3 88.1 42.3 87.9 42.2 87.7 42.3 87.7 42.4M295.4 44.7C295.2 45.1 295.2 45.1 295.4 45.1 295.5 45 295.6 44.8 295.6 44.7 295.7 44.2 295.6 44.2 295.4 44.7M177 48.4C177 52.1 177.1 52.5 177.1 49.4 177.2 47.7 177.1 46.3 177 46.3 177 46.3 176.9 47.3 177 48.4M149 47.1C149.2 47.3 149.4 47.5 149.5 47.5 149.6 47.5 148.9 46.7 148.8 46.7 148.7 46.7 148.8 46.9 149 47.1M247 48.2C247.2 48.5 248.3 49.1 248.3 49 248.3 49 248 48.7 247.6 48.5 247.2 48.3 247 48.2 247 48.2M312.5 48.9C312.8 49.2 313.1 49.5 313.1 49.5 313.2 49.5 313 49.2 312.7 48.9 312.4 48.6 312.1 48.3 312 48.3 312 48.3 312.2 48.6 312.5 48.9M20.2 64.3C20.4 64.6 20.6 64.9 20.7 64.9 21 65.1 20.8 64.9 20.3 64.3L19.8 63.8 20.2 64.3M17.3 65.7C17.3 65.8 17.5 66 17.7 66.2 17.9 66.4 18 66.5 18 66.4 18 66.3 17.9 66.1 17.7 65.9 17.5 65.8 17.3 65.7 17.3 65.7M159.9 88.6C159.9 99.4 159.9 103.8 160 98.4 160 92.9 160 84.1 160 78.7 159.9 73.3 159.9 77.8 159.9 88.6M167.9 88.5C167.9 99.3 167.9 103.7 168 98.3 168 92.9 168 84.1 168 78.7 167.9 73.3 167.9 77.7 167.9 88.5M312.1 73.3C311.8 73.5 311.5 73.7 311.5 73.8 311.5 73.8 311.8 73.7 312.2 73.5 312.5 73.3 312.8 73.1 312.8 73.1 312.8 73 312.8 73 312.1 73.3M244.4 73.3C244.5 73.4 244.8 73.7 245.2 73.9 246 74.3 245.9 74.1 244.9 73.5 244.6 73.3 244.3 73.2 244.4 73.3M346.6 73.6C346 73.9 346 74.1 346.7 73.8 346.9 73.6 347.2 73.5 347.2 73.4 347.2 73.3 347.1 73.3 346.6 73.6M40.7 74.2C40.7 74.2 40.9 74.5 41.2 74.8L41.7 75.3 41.3 74.7C41 74.3 40.7 74 40.7 74.2M247.5 75.5C247.7 75.7 247.9 75.9 248 75.9 248.1 75.8 247.3 75 247.2 75 247.1 75 247.2 75.2 247.5 75.5M289.3 76.4C289.7 76.9 290.3 77.4 290.3 77.3 290.3 77.3 290 76.9 289.6 76.5 288.9 75.8 288.8 75.8 289.3 76.4M308.2 76.4C308 76.7 307.7 77 307.6 77.2 307.5 77.3 307.6 77.3 307.8 77.1 307.9 76.9 308.3 76.5 308.6 76.3 308.8 76 309 75.8 308.9 75.8 308.8 75.8 308.5 76.1 308.2 76.4M388.8 76.8C388.5 77.2 388.3 77.5 388.4 77.5 388.4 77.5 388.7 77.2 389 76.8 389.3 76.5 389.5 76.2 389.4 76.2 389.4 76.2 389.1 76.5 388.8 76.8M222.1 78C222.4 78.6 222.7 79 222.7 78.7 222.7 78.6 222.6 78.5 222.5 78.4 222.4 78.4 222.3 78.1 222.3 77.8 222.2 77.6 222.1 77.3 222 77.3 221.9 77.3 222 77.6 222.1 78M238.5 77.8C238.8 78 239 78 239 77.8 239 77.7 238.8 77.7 238.6 77.7 238.3 77.7 238.3 77.7 238.5 77.8M260.5 80.5C260.3 80.9 260.3 81.1 260.6 80.8 260.7 80.7 260.8 80.5 260.8 80.4 260.8 80.1 260.7 80.1 260.5 80.5M309.8 81.5C309.6 81.8 309.4 82 309.5 82 309.6 82 310.4 81.2 310.3 81.1 310.3 81.1 310 81.3 309.8 81.5M268.4 82.8C268.2 83 268.1 83.2 268.1 83.2 268.2 83.2 268.4 83 268.6 82.8 268.7 82.5 268.8 82.3 268.8 82.3 268.8 82.3 268.6 82.5 268.4 82.8M337.1 86.6C337 87.5 337.1 87.5 337.3 86.7 337.4 86.3 337.4 86 337.3 86 337.3 86 337.2 86.3 337.1 86.6M323 97.7L323.1 108.1 323.1 97.8C323.2 92.2 323.1 87.5 323 87.5 323 87.4 323 92 323 97.7M56 91.6C56.1 91.6 56.3 91.7 56.6 91.7 56.9 91.8 57 91.8 56.8 91.7 56.6 91.5 55.8 91.4 56 91.6M360.7 101.8C360.2 102 359.8 102.3 359.8 102.3 359.8 102.4 361.6 101.6 361.8 101.4 362 101.2 361.5 101.4 360.7 101.8M17.4 102.6C17.7 102.9 17.9 103.2 18 103.2 18 103.2 17.8 102.9 17.6 102.6 17.3 102.3 17.1 102 17 102 16.9 102 17.1 102.3 17.4 102.6M275.9 102.2C276 102.3 276.3 102.3 276.7 102.3 277 102.3 277.3 102.3 277.4 102.2 277.5 102.1 277.2 102.1 276.7 102.1 276.1 102.1 275.8 102.1 275.9 102.2M37.4 112.5C37.5 112.7 38.5 113.2 38.5 113.1 38.5 113.1 38.2 112.9 37.9 112.7 37.6 112.5 37.4 112.4 37.4 112.5" class="a"></path>
    <path id="path2" d="M55.3 4.4C55.4 4.6 55.6 4.8 55.7 4.8 55.8 4.8 55.8 4.8 55.7 4.7 55.6 4.7 55.5 4.5 55.5 4.4 55.5 4.3 55.4 4.2 55.2 4.1 55 4 55 4.1 55.3 4.4M191.4 27.8C191.4 38.3 191.4 47 191.5 47.1 191.6 47.3 191.6 27.9 191.5 14 191.4 11 191.4 17.2 191.4 27.8M65.3 9.7C64.9 10 64.6 10.3 64.7 10.3 64.7 10.3 65.1 10 65.5 9.7 65.8 9.3 66.1 9 66 9 66 9 65.6 9.3 65.3 9.7M31.8 10.2C31.4 10.4 31.4 10.5 31.7 10.4 31.9 10.3 32.2 10.2 32.3 10.1 32.6 9.8 32.6 9.8 31.8 10.2M168.9 10.3C169 10.4 169.2 10.5 169.4 10.5 169.7 10.5 169.7 10.5 169.4 10.3 169 10.1 168.8 10.1 168.9 10.3M66.3 11.8C66 12.1 65.9 12.2 66.1 12.2 66.2 12.2 66.3 12 66.5 11.8 66.7 11.4 66.6 11.4 66.3 11.8M77.6 17.3C77.9 17.5 78.2 17.6 78.1 17.4 78 17.3 77.8 17.2 77.6 17.1 77.3 17 77.3 17 77.6 17.3M72.7 17.5C73.2 17.9 73.6 18 73.2 17.7 72.9 17.5 72.7 17.3 72.6 17.3 72.5 17.3 72.5 17.4 72.7 17.5M24.8 18.7C24.5 19 24.4 19.1 24.6 19 24.9 18.9 25.6 18.2 25.5 18.2 25.4 18.2 25.2 18.4 24.8 18.7M84 20.1C84 20.1 84.2 20.3 84.5 20.4 84.8 20.6 85 20.6 85 20.6 85 20.5 84.8 20.4 84.5 20.3 84.2 20.1 84 20 84 20.1M95.6 20.6C96 21 96.3 21.2 96.3 21.2 96.4 21.1 95.3 20 95.2 20 95.1 20 95.3 20.3 95.6 20.6M212.6 21C212.4 21.1 212.3 21.1 212.5 21.1 212.6 21.1 212.9 21.1 213.1 21 213.3 20.9 213.3 20.9 213.2 20.9 213 20.9 212.8 20.9 212.6 21M290.7 21C290.8 21.1 291.1 21.2 291.2 21.2 291.7 21.2 291.5 21.1 290.9 20.9 290.6 20.9 290.5 20.9 290.7 21M73.5 21.3C73.5 21.4 73.7 21.5 73.8 21.5 74 21.6 74.2 21.6 74.2 21.5 74.2 21.4 74 21.3 73.8 21.3 73.7 21.2 73.5 21.3 73.5 21.3M80.6 21.3C80.6 21.4 80.9 21.5 81.1 21.5 81.4 21.5 81.4 21.5 81.1 21.3 80.6 21.1 80.5 21.1 80.6 21.3M295.8 23.9C296 24 296.2 24.2 296.3 24.3 296.5 24.5 296.5 24.5 296.3 24.2 296.2 24 295.9 23.7 295.8 23.7 295.6 23.6 295.6 23.7 295.8 23.9M221.2 24.7C221.2 24.8 221.8 25.1 221.9 25 221.9 24.9 221.8 24.8 221.6 24.7 221.3 24.6 221.2 24.6 221.2 24.7M264.5 25.3C264.7 25.5 264.9 25.7 265 25.8 265.1 25.8 265.1 25.7 264.8 25.4 264.4 24.9 264.3 24.9 264.5 25.3M17.8 26C17.6 26.2 17.5 26.4 17.5 26.4 17.6 26.5 17.8 26.4 17.9 26.2 18.3 25.7 18.2 25.6 17.8 26M10 29.3C9.5 29.8 9.6 30 10 29.4 10.2 29.2 10.3 29 10.3 28.9 10.3 28.9 10.1 29 10 29.3M295.2 29.1C295.2 29.5 295.5 29.9 295.5 29.6 295.5 29.4 295.4 29.1 295.3 29.1 295.2 29 295.2 29 295.2 29.1M9.1 30.5L8.8 31.1 9.1 30.7C9.5 30.3 9.6 30 9.5 30 9.4 30 9.3 30.2 9.1 30.5M37 31C36.1 31.6 36.6 31.5 37.7 30.9 37.7 30.9 37.7 30.8 37.6 30.8 37.6 30.7 37.3 30.8 37 31M39.2 31.3C39.4 31.5 39.7 31.7 39.8 31.7 40.1 31.7 40 31.6 39.3 31.3L38.8 31 39.2 31.3M65.6 31.5C65.3 31.6 65.3 31.6 65.7 31.7 65.9 31.8 66.1 31.8 66.1 31.7 66.2 31.7 66.1 31.7 66 31.7 65.9 31.7 65.9 31.6 65.9 31.5 66 31.3 66 31.3 65.6 31.5M70.8 31.5C71.3 31.7 72.1 31.9 71.8 31.7 71.7 31.6 71.3 31.5 71 31.4 70.6 31.4 70.5 31.4 70.8 31.5M170.7 31.6C172.4 31.7 175.2 31.7 177 31.6 178.7 31.6 177.3 31.6 173.8 31.6 170.4 31.6 169 31.6 170.7 31.6M177.1 38.4C177.1 40.7 177.1 41.7 177.1 40.6 177.2 39.4 177.2 37.6 177.1 36.4 177.1 35.2 177.1 36.1 177.1 38.4M279.6 35.1C279.2 35.3 279.2 35.3 279.5 35.2 280 35.1 280.5 34.8 280.3 34.8 280.2 34.8 279.9 35 279.6 35.1M70.9 38.7C71 38.8 71.3 38.8 71.5 38.8 72.2 38.8 72.1 38.8 71.4 38.6 71 38.5 70.9 38.6 70.9 38.7M3.4 42C3.3 42.1 3.3 42.3 3.2 42.4 3.2 42.5 3.3 42.4 3.4 42.3 3.7 41.9 3.7 41.7 3.6 41.7 3.5 41.7 3.4 41.8 3.4 42M87.7 42.4C87.7 42.4 87.9 42.5 88.1 42.5 88.3 42.5 88.5 42.5 88.5 42.4 88.5 42.4 88.3 42.3 88.1 42.3 87.9 42.2 87.7 42.3 87.7 42.4M295.4 44.7C295.2 45.1 295.2 45.1 295.4 45.1 295.5 45 295.6 44.8 295.6 44.7 295.7 44.2 295.6 44.2 295.4 44.7M177 48.4C177 52.1 177.1 52.5 177.1 49.4 177.2 47.7 177.1 46.3 177 46.3 177 46.3 176.9 47.3 177 48.4M149 47.1C149.2 47.3 149.4 47.5 149.5 47.5 149.6 47.5 148.9 46.7 148.8 46.7 148.7 46.7 148.8 46.9 149 47.1M247 48.2C247.2 48.5 248.3 49.1 248.3 49 248.3 49 248 48.7 247.6 48.5 247.2 48.3 247 48.2 247 48.2M312.5 48.9C312.8 49.2 313.1 49.5 313.1 49.5 313.2 49.5 313 49.2 312.7 48.9 312.4 48.6 312.1 48.3 312 48.3 312 48.3 312.2 48.6 312.5 48.9M20.2 64.3C20.4 64.6 20.6 64.9 20.7 64.9 21 65.1 20.8 64.9 20.3 64.3L19.8 63.8 20.2 64.3M17.3 65.7C17.3 65.8 17.5 66 17.7 66.2 17.9 66.4 18 66.5 18 66.4 18 66.3 17.9 66.1 17.7 65.9 17.5 65.8 17.3 65.7 17.3 65.7M159.9 88.6C159.9 99.4 159.9 103.8 160 98.4 160 92.9 160 84.1 160 78.7 159.9 73.3 159.9 77.8 159.9 88.6M167.9 88.5C167.9 99.3 167.9 103.7 168 98.3 168 92.9 168 84.1 168 78.7 167.9 73.3 167.9 77.7 167.9 88.5M312.1 73.3C311.8 73.5 311.5 73.7 311.5 73.8 311.5 73.8 311.8 73.7 312.2 73.5 312.5 73.3 312.8 73.1 312.8 73.1 312.8 73 312.8 73 312.1 73.3M244.4 73.3C244.5 73.4 244.8 73.7 245.2 73.9 246 74.3 245.9 74.1 244.9 73.5 244.6 73.3 244.3 73.2 244.4 73.3M346.6 73.6C346 73.9 346 74.1 346.7 73.8 346.9 73.6 347.2 73.5 347.2 73.4 347.2 73.3 347.1 73.3 346.6 73.6M40.7 74.2C40.7 74.2 40.9 74.5 41.2 74.8L41.7 75.3 41.3 74.7C41 74.3 40.7 74 40.7 74.2M247.5 75.5C247.7 75.7 247.9 75.9 248 75.9 248.1 75.8 247.3 75 247.2 75 247.1 75 247.2 75.2 247.5 75.5M289.3 76.4C289.7 76.9 290.3 77.4 290.3 77.3 290.3 77.3 290 76.9 289.6 76.5 288.9 75.8 288.8 75.8 289.3 76.4M308.2 76.4C308 76.7 307.7 77 307.6 77.2 307.5 77.3 307.6 77.3 307.8 77.1 307.9 76.9 308.3 76.5 308.6 76.3 308.8 76 309 75.8 308.9 75.8 308.8 75.8 308.5 76.1 308.2 76.4M388.8 76.8C388.5 77.2 388.3 77.5 388.4 77.5 388.4 77.5 388.7 77.2 389 76.8 389.3 76.5 389.5 76.2 389.4 76.2 389.4 76.2 389.1 76.5 388.8 76.8M222.1 78C222.4 78.6 222.7 79 222.7 78.7 222.7 78.6 222.6 78.5 222.5 78.4 222.4 78.4 222.3 78.1 222.3 77.8 222.2 77.6 222.1 77.3 222 77.3 221.9 77.3 222 77.6 222.1 78M238.5 77.8C238.8 78 239 78 239 77.8 239 77.7 238.8 77.7 238.6 77.7 238.3 77.7 238.3 77.7 238.5 77.8M260.5 80.5C260.3 80.9 260.3 81.1 260.6 80.8 260.7 80.7 260.8 80.5 260.8 80.4 260.8 80.1 260.7 80.1 260.5 80.5M309.8 81.5C309.6 81.8 309.4 82 309.5 82 309.6 82 310.4 81.2 310.3 81.1 310.3 81.1 310 81.3 309.8 81.5M268.4 82.8C268.2 83 268.1 83.2 268.1 83.2 268.2 83.2 268.4 83 268.6 82.8 268.7 82.5 268.8 82.3 268.8 82.3 268.8 82.3 268.6 82.5 268.4 82.8M337.1 86.6C337 87.5 337.1 87.5 337.3 86.7 337.4 86.3 337.4 86 337.3 86 337.3 86 337.2 86.3 337.1 86.6M323 97.7L323.1 108.1 323.1 97.8C323.2 92.2 323.1 87.5 323 87.5 323 87.4 323 92 323 97.7M56 91.6C56.1 91.6 56.3 91.7 56.6 91.7 56.9 91.8 57 91.8 56.8 91.7 56.6 91.5 55.8 91.4 56 91.6M360.7 101.8C360.2 102 359.8 102.3 359.8 102.3 359.8 102.4 361.6 101.6 361.8 101.4 362 101.2 361.5 101.4 360.7 101.8M17.4 102.6C17.7 102.9 17.9 103.2 18 103.2 18 103.2 17.8 102.9 17.6 102.6 17.3 102.3 17.1 102 17 102 16.9 102 17.1 102.3 17.4 102.6M275.9 102.2C276 102.3 276.3 102.3 276.7 102.3 277 102.3 277.3 102.3 277.4 102.2 277.5 102.1 277.2 102.1 276.7 102.1 276.1 102.1 275.8 102.1 275.9 102.2M37.4 112.5C37.5 112.7 38.5 113.2 38.5 113.1 38.5 113.1 38.2 112.9 37.9 112.7 37.6 112.5 37.4 112.4 37.4 112.5" class="a"></path>
    <path id="path3" d="M55.3 4.4C55.4 4.6 55.6 4.8 55.7 4.8 55.8 4.8 55.8 4.8 55.7 4.7 55.6 4.7 55.5 4.5 55.5 4.4 55.5 4.3 55.4 4.2 55.2 4.1 55 4 55 4.1 55.3 4.4M191.4 27.8C191.4 38.3 191.4 47 191.5 47.1 191.6 47.3 191.6 27.9 191.5 14 191.4 11 191.4 17.2 191.4 27.8M65.3 9.7C64.9 10 64.6 10.3 64.7 10.3 64.7 10.3 65.1 10 65.5 9.7 65.8 9.3 66.1 9 66 9 66 9 65.6 9.3 65.3 9.7M31.8 10.2C31.4 10.4 31.4 10.5 31.7 10.4 31.9 10.3 32.2 10.2 32.3 10.1 32.6 9.8 32.6 9.8 31.8 10.2M168.9 10.3C169 10.4 169.2 10.5 169.4 10.5 169.7 10.5 169.7 10.5 169.4 10.3 169 10.1 168.8 10.1 168.9 10.3M66.3 11.8C66 12.1 65.9 12.2 66.1 12.2 66.2 12.2 66.3 12 66.5 11.8 66.7 11.4 66.6 11.4 66.3 11.8M77.6 17.3C77.9 17.5 78.2 17.6 78.1 17.4 78 17.3 77.8 17.2 77.6 17.1 77.3 17 77.3 17 77.6 17.3M72.7 17.5C73.2 17.9 73.6 18 73.2 17.7 72.9 17.5 72.7 17.3 72.6 17.3 72.5 17.3 72.5 17.4 72.7 17.5M24.8 18.7C24.5 19 24.4 19.1 24.6 19 24.9 18.9 25.6 18.2 25.5 18.2 25.4 18.2 25.2 18.4 24.8 18.7M84 20.1C84 20.1 84.2 20.3 84.5 20.4 84.8 20.6 85 20.6 85 20.6 85 20.5 84.8 20.4 84.5 20.3 84.2 20.1 84 20 84 20.1M95.6 20.6C96 21 96.3 21.2 96.3 21.2 96.4 21.1 95.3 20 95.2 20 95.1 20 95.3 20.3 95.6 20.6M212.6 21C212.4 21.1 212.3 21.1 212.5 21.1 212.6 21.1 212.9 21.1 213.1 21 213.3 20.9 213.3 20.9 213.2 20.9 213 20.9 212.8 20.9 212.6 21M290.7 21C290.8 21.1 291.1 21.2 291.2 21.2 291.7 21.2 291.5 21.1 290.9 20.9 290.6 20.9 290.5 20.9 290.7 21M73.5 21.3C73.5 21.4 73.7 21.5 73.8 21.5 74 21.6 74.2 21.6 74.2 21.5 74.2 21.4 74 21.3 73.8 21.3 73.7 21.2 73.5 21.3 73.5 21.3M80.6 21.3C80.6 21.4 80.9 21.5 81.1 21.5 81.4 21.5 81.4 21.5 81.1 21.3 80.6 21.1 80.5 21.1 80.6 21.3M295.8 23.9C296 24 296.2 24.2 296.3 24.3 296.5 24.5 296.5 24.5 296.3 24.2 296.2 24 295.9 23.7 295.8 23.7 295.6 23.6 295.6 23.7 295.8 23.9M221.2 24.7C221.2 24.8 221.8 25.1 221.9 25 221.9 24.9 221.8 24.8 221.6 24.7 221.3 24.6 221.2 24.6 221.2 24.7M264.5 25.3C264.7 25.5 264.9 25.7 265 25.8 265.1 25.8 265.1 25.7 264.8 25.4 264.4 24.9 264.3 24.9 264.5 25.3M17.8 26C17.6 26.2 17.5 26.4 17.5 26.4 17.6 26.5 17.8 26.4 17.9 26.2 18.3 25.7 18.2 25.6 17.8 26M10 29.3C9.5 29.8 9.6 30 10 29.4 10.2 29.2 10.3 29 10.3 28.9 10.3 28.9 10.1 29 10 29.3M295.2 29.1C295.2 29.5 295.5 29.9 295.5 29.6 295.5 29.4 295.4 29.1 295.3 29.1 295.2 29 295.2 29 295.2 29.1M9.1 30.5L8.8 31.1 9.1 30.7C9.5 30.3 9.6 30 9.5 30 9.4 30 9.3 30.2 9.1 30.5M37 31C36.1 31.6 36.6 31.5 37.7 30.9 37.7 30.9 37.7 30.8 37.6 30.8 37.6 30.7 37.3 30.8 37 31M39.2 31.3C39.4 31.5 39.7 31.7 39.8 31.7 40.1 31.7 40 31.6 39.3 31.3L38.8 31 39.2 31.3M65.6 31.5C65.3 31.6 65.3 31.6 65.7 31.7 65.9 31.8 66.1 31.8 66.1 31.7 66.2 31.7 66.1 31.7 66 31.7 65.9 31.7 65.9 31.6 65.9 31.5 66 31.3 66 31.3 65.6 31.5M70.8 31.5C71.3 31.7 72.1 31.9 71.8 31.7 71.7 31.6 71.3 31.5 71 31.4 70.6 31.4 70.5 31.4 70.8 31.5M170.7 31.6C172.4 31.7 175.2 31.7 177 31.6 178.7 31.6 177.3 31.6 173.8 31.6 170.4 31.6 169 31.6 170.7 31.6M177.1 38.4C177.1 40.7 177.1 41.7 177.1 40.6 177.2 39.4 177.2 37.6 177.1 36.4 177.1 35.2 177.1 36.1 177.1 38.4M279.6 35.1C279.2 35.3 279.2 35.3 279.5 35.2 280 35.1 280.5 34.8 280.3 34.8 280.2 34.8 279.9 35 279.6 35.1M70.9 38.7C71 38.8 71.3 38.8 71.5 38.8 72.2 38.8 72.1 38.8 71.4 38.6 71 38.5 70.9 38.6 70.9 38.7M3.4 42C3.3 42.1 3.3 42.3 3.2 42.4 3.2 42.5 3.3 42.4 3.4 42.3 3.7 41.9 3.7 41.7 3.6 41.7 3.5 41.7 3.4 41.8 3.4 42M87.7 42.4C87.7 42.4 87.9 42.5 88.1 42.5 88.3 42.5 88.5 42.5 88.5 42.4 88.5 42.4 88.3 42.3 88.1 42.3 87.9 42.2 87.7 42.3 87.7 42.4M295.4 44.7C295.2 45.1 295.2 45.1 295.4 45.1 295.5 45 295.6 44.8 295.6 44.7 295.7 44.2 295.6 44.2 295.4 44.7M177 48.4C177 52.1 177.1 52.5 177.1 49.4 177.2 47.7 177.1 46.3 177 46.3 177 46.3 176.9 47.3 177 48.4M149 47.1C149.2 47.3 149.4 47.5 149.5 47.5 149.6 47.5 148.9 46.7 148.8 46.7 148.7 46.7 148.8 46.9 149 47.1M247 48.2C247.2 48.5 248.3 49.1 248.3 49 248.3 49 248 48.7 247.6 48.5 247.2 48.3 247 48.2 247 48.2M312.5 48.9C312.8 49.2 313.1 49.5 313.1 49.5 313.2 49.5 313 49.2 312.7 48.9 312.4 48.6 312.1 48.3 312 48.3 312 48.3 312.2 48.6 312.5 48.9M20.2 64.3C20.4 64.6 20.6 64.9 20.7 64.9 21 65.1 20.8 64.9 20.3 64.3L19.8 63.8 20.2 64.3M17.3 65.7C17.3 65.8 17.5 66 17.7 66.2 17.9 66.4 18 66.5 18 66.4 18 66.3 17.9 66.1 17.7 65.9 17.5 65.8 17.3 65.7 17.3 65.7M159.9 88.6C159.9 99.4 159.9 103.8 160 98.4 160 92.9 160 84.1 160 78.7 159.9 73.3 159.9 77.8 159.9 88.6M167.9 88.5C167.9 99.3 167.9 103.7 168 98.3 168 92.9 168 84.1 168 78.7 167.9 73.3 167.9 77.7 167.9 88.5M312.1 73.3C311.8 73.5 311.5 73.7 311.5 73.8 311.5 73.8 311.8 73.7 312.2 73.5 312.5 73.3 312.8 73.1 312.8 73.1 312.8 73 312.8 73 312.1 73.3M244.4 73.3C244.5 73.4 244.8 73.7 245.2 73.9 246 74.3 245.9 74.1 244.9 73.5 244.6 73.3 244.3 73.2 244.4 73.3M346.6 73.6C346 73.9 346 74.1 346.7 73.8 346.9 73.6 347.2 73.5 347.2 73.4 347.2 73.3 347.1 73.3 346.6 73.6M40.7 74.2C40.7 74.2 40.9 74.5 41.2 74.8L41.7 75.3 41.3 74.7C41 74.3 40.7 74 40.7 74.2M247.5 75.5C247.7 75.7 247.9 75.9 248 75.9 248.1 75.8 247.3 75 247.2 75 247.1 75 247.2 75.2 247.5 75.5M289.3 76.4C289.7 76.9 290.3 77.4 290.3 77.3 290.3 77.3 290 76.9 289.6 76.5 288.9 75.8 288.8 75.8 289.3 76.4M308.2 76.4C308 76.7 307.7 77 307.6 77.2 307.5 77.3 307.6 77.3 307.8 77.1 307.9 76.9 308.3 76.5 308.6 76.3 308.8 76 309 75.8 308.9 75.8 308.8 75.8 308.5 76.1 308.2 76.4M388.8 76.8C388.5 77.2 388.3 77.5 388.4 77.5 388.4 77.5 388.7 77.2 389 76.8 389.3 76.5 389.5 76.2 389.4 76.2 389.4 76.2 389.1 76.5 388.8 76.8M222.1 78C222.4 78.6 222.7 79 222.7 78.7 222.7 78.6 222.6 78.5 222.5 78.4 222.4 78.4 222.3 78.1 222.3 77.8 222.2 77.6 222.1 77.3 222 77.3 221.9 77.3 222 77.6 222.1 78M238.5 77.8C238.8 78 239 78 239 77.8 239 77.7 238.8 77.7 238.6 77.7 238.3 77.7 238.3 77.7 238.5 77.8M260.5 80.5C260.3 80.9 260.3 81.1 260.6 80.8 260.7 80.7 260.8 80.5 260.8 80.4 260.8 80.1 260.7 80.1 260.5 80.5M309.8 81.5C309.6 81.8 309.4 82 309.5 82 309.6 82 310.4 81.2 310.3 81.1 310.3 81.1 310 81.3 309.8 81.5M268.4 82.8C268.2 83 268.1 83.2 268.1 83.2 268.2 83.2 268.4 83 268.6 82.8 268.7 82.5 268.8 82.3 268.8 82.3 268.8 82.3 268.6 82.5 268.4 82.8M337.1 86.6C337 87.5 337.1 87.5 337.3 86.7 337.4 86.3 337.4 86 337.3 86 337.3 86 337.2 86.3 337.1 86.6M323 97.7L323.1 108.1 323.1 97.8C323.2 92.2 323.1 87.5 323 87.5 323 87.4 323 92 323 97.7M56 91.6C56.1 91.6 56.3 91.7 56.6 91.7 56.9 91.8 57 91.8 56.8 91.7 56.6 91.5 55.8 91.4 56 91.6M360.7 101.8C360.2 102 359.8 102.3 359.8 102.3 359.8 102.4 361.6 101.6 361.8 101.4 362 101.2 361.5 101.4 360.7 101.8M17.4 102.6C17.7 102.9 17.9 103.2 18 103.2 18 103.2 17.8 102.9 17.6 102.6 17.3 102.3 17.1 102 17 102 16.9 102 17.1 102.3 17.4 102.6M275.9 102.2C276 102.3 276.3 102.3 276.7 102.3 277 102.3 277.3 102.3 277.4 102.2 277.5 102.1 277.2 102.1 276.7 102.1 276.1 102.1 275.8 102.1 275.9 102.2M37.4 112.5C37.5 112.7 38.5 113.2 38.5 113.1 38.5 113.1 38.2 112.9 37.9 112.7 37.6 112.5 37.4 112.4 37.4 112.5" class="a"></path>
    <path id="path4" d="M55.3 4.4C55.4 4.6 55.6 4.8 55.7 4.8 55.8 4.8 55.8 4.8 55.7 4.7 55.6 4.7 55.5 4.5 55.5 4.4 55.5 4.3 55.4 4.2 55.2 4.1 55 4 55 4.1 55.3 4.4M191.4 27.8C191.4 38.3 191.4 47 191.5 47.1 191.6 47.3 191.6 27.9 191.5 14 191.4 11 191.4 17.2 191.4 27.8M65.3 9.7C64.9 10 64.6 10.3 64.7 10.3 64.7 10.3 65.1 10 65.5 9.7 65.8 9.3 66.1 9 66 9 66 9 65.6 9.3 65.3 9.7M31.8 10.2C31.4 10.4 31.4 10.5 31.7 10.4 31.9 10.3 32.2 10.2 32.3 10.1 32.6 9.8 32.6 9.8 31.8 10.2M168.9 10.3C169 10.4 169.2 10.5 169.4 10.5 169.7 10.5 169.7 10.5 169.4 10.3 169 10.1 168.8 10.1 168.9 10.3M66.3 11.8C66 12.1 65.9 12.2 66.1 12.2 66.2 12.2 66.3 12 66.5 11.8 66.7 11.4 66.6 11.4 66.3 11.8M77.6 17.3C77.9 17.5 78.2 17.6 78.1 17.4 78 17.3 77.8 17.2 77.6 17.1 77.3 17 77.3 17 77.6 17.3M72.7 17.5C73.2 17.9 73.6 18 73.2 17.7 72.9 17.5 72.7 17.3 72.6 17.3 72.5 17.3 72.5 17.4 72.7 17.5M24.8 18.7C24.5 19 24.4 19.1 24.6 19 24.9 18.9 25.6 18.2 25.5 18.2 25.4 18.2 25.2 18.4 24.8 18.7M84 20.1C84 20.1 84.2 20.3 84.5 20.4 84.8 20.6 85 20.6 85 20.6 85 20.5 84.8 20.4 84.5 20.3 84.2 20.1 84 20 84 20.1M95.6 20.6C96 21 96.3 21.2 96.3 21.2 96.4 21.1 95.3 20 95.2 20 95.1 20 95.3 20.3 95.6 20.6M212.6 21C212.4 21.1 212.3 21.1 212.5 21.1 212.6 21.1 212.9 21.1 213.1 21 213.3 20.9 213.3 20.9 213.2 20.9 213 20.9 212.8 20.9 212.6 21M290.7 21C290.8 21.1 291.1 21.2 291.2 21.2 291.7 21.2 291.5 21.1 290.9 20.9 290.6 20.9 290.5 20.9 290.7 21M73.5 21.3C73.5 21.4 73.7 21.5 73.8 21.5 74 21.6 74.2 21.6 74.2 21.5 74.2 21.4 74 21.3 73.8 21.3 73.7 21.2 73.5 21.3 73.5 21.3M80.6 21.3C80.6 21.4 80.9 21.5 81.1 21.5 81.4 21.5 81.4 21.5 81.1 21.3 80.6 21.1 80.5 21.1 80.6 21.3M295.8 23.9C296 24 296.2 24.2 296.3 24.3 296.5 24.5 296.5 24.5 296.3 24.2 296.2 24 295.9 23.7 295.8 23.7 295.6 23.6 295.6 23.7 295.8 23.9M221.2 24.7C221.2 24.8 221.8 25.1 221.9 25 221.9 24.9 221.8 24.8 221.6 24.7 221.3 24.6 221.2 24.6 221.2 24.7M264.5 25.3C264.7 25.5 264.9 25.7 265 25.8 265.1 25.8 265.1 25.7 264.8 25.4 264.4 24.9 264.3 24.9 264.5 25.3M17.8 26C17.6 26.2 17.5 26.4 17.5 26.4 17.6 26.5 17.8 26.4 17.9 26.2 18.3 25.7 18.2 25.6 17.8 26M10 29.3C9.5 29.8 9.6 30 10 29.4 10.2 29.2 10.3 29 10.3 28.9 10.3 28.9 10.1 29 10 29.3M295.2 29.1C295.2 29.5 295.5 29.9 295.5 29.6 295.5 29.4 295.4 29.1 295.3 29.1 295.2 29 295.2 29 295.2 29.1M9.1 30.5L8.8 31.1 9.1 30.7C9.5 30.3 9.6 30 9.5 30 9.4 30 9.3 30.2 9.1 30.5M37 31C36.1 31.6 36.6 31.5 37.7 30.9 37.7 30.9 37.7 30.8 37.6 30.8 37.6 30.7 37.3 30.8 37 31M39.2 31.3C39.4 31.5 39.7 31.7 39.8 31.7 40.1 31.7 40 31.6 39.3 31.3L38.8 31 39.2 31.3M65.6 31.5C65.3 31.6 65.3 31.6 65.7 31.7 65.9 31.8 66.1 31.8 66.1 31.7 66.2 31.7 66.1 31.7 66 31.7 65.9 31.7 65.9 31.6 65.9 31.5 66 31.3 66 31.3 65.6 31.5M70.8 31.5C71.3 31.7 72.1 31.9 71.8 31.7 71.7 31.6 71.3 31.5 71 31.4 70.6 31.4 70.5 31.4 70.8 31.5M170.7 31.6C172.4 31.7 175.2 31.7 177 31.6 178.7 31.6 177.3 31.6 173.8 31.6 170.4 31.6 169 31.6 170.7 31.6M177.1 38.4C177.1 40.7 177.1 41.7 177.1 40.6 177.2 39.4 177.2 37.6 177.1 36.4 177.1 35.2 177.1 36.1 177.1 38.4M279.6 35.1C279.2 35.3 279.2 35.3 279.5 35.2 280 35.1 280.5 34.8 280.3 34.8 280.2 34.8 279.9 35 279.6 35.1M70.9 38.7C71 38.8 71.3 38.8 71.5 38.8 72.2 38.8 72.1 38.8 71.4 38.6 71 38.5 70.9 38.6 70.9 38.7M3.4 42C3.3 42.1 3.3 42.3 3.2 42.4 3.2 42.5 3.3 42.4 3.4 42.3 3.7 41.9 3.7 41.7 3.6 41.7 3.5 41.7 3.4 41.8 3.4 42M87.7 42.4C87.7 42.4 87.9 42.5 88.1 42.5 88.3 42.5 88.5 42.5 88.5 42.4 88.5 42.4 88.3 42.3 88.1 42.3 87.9 42.2 87.7 42.3 87.7 42.4M295.4 44.7C295.2 45.1 295.2 45.1 295.4 45.1 295.5 45 295.6 44.8 295.6 44.7 295.7 44.2 295.6 44.2 295.4 44.7M177 48.4C177 52.1 177.1 52.5 177.1 49.4 177.2 47.7 177.1 46.3 177 46.3 177 46.3 176.9 47.3 177 48.4M149 47.1C149.2 47.3 149.4 47.5 149.5 47.5 149.6 47.5 148.9 46.7 148.8 46.7 148.7 46.7 148.8 46.9 149 47.1M247 48.2C247.2 48.5 248.3 49.1 248.3 49 248.3 49 248 48.7 247.6 48.5 247.2 48.3 247 48.2 247 48.2M312.5 48.9C312.8 49.2 313.1 49.5 313.1 49.5 313.2 49.5 313 49.2 312.7 48.9 312.4 48.6 312.1 48.3 312 48.3 312 48.3 312.2 48.6 312.5 48.9M20.2 64.3C20.4 64.6 20.6 64.9 20.7 64.9 21 65.1 20.8 64.9 20.3 64.3L19.8 63.8 20.2 64.3M17.3 65.7C17.3 65.8 17.5 66 17.7 66.2 17.9 66.4 18 66.5 18 66.4 18 66.3 17.9 66.1 17.7 65.9 17.5 65.8 17.3 65.7 17.3 65.7M159.9 88.6C159.9 99.4 159.9 103.8 160 98.4 160 92.9 160 84.1 160 78.7 159.9 73.3 159.9 77.8 159.9 88.6M167.9 88.5C167.9 99.3 167.9 103.7 168 98.3 168 92.9 168 84.1 168 78.7 167.9 73.3 167.9 77.7 167.9 88.5M312.1 73.3C311.8 73.5 311.5 73.7 311.5 73.8 311.5 73.8 311.8 73.7 312.2 73.5 312.5 73.3 312.8 73.1 312.8 73.1 312.8 73 312.8 73 312.1 73.3M244.4 73.3C244.5 73.4 244.8 73.7 245.2 73.9 246 74.3 245.9 74.1 244.9 73.5 244.6 73.3 244.3 73.2 244.4 73.3M346.6 73.6C346 73.9 346 74.1 346.7 73.8 346.9 73.6 347.2 73.5 347.2 73.4 347.2 73.3 347.1 73.3 346.6 73.6M40.7 74.2C40.7 74.2 40.9 74.5 41.2 74.8L41.7 75.3 41.3 74.7C41 74.3 40.7 74 40.7 74.2M247.5 75.5C247.7 75.7 247.9 75.9 248 75.9 248.1 75.8 247.3 75 247.2 75 247.1 75 247.2 75.2 247.5 75.5M289.3 76.4C289.7 76.9 290.3 77.4 290.3 77.3 290.3 77.3 290 76.9 289.6 76.5 288.9 75.8 288.8 75.8 289.3 76.4M308.2 76.4C308 76.7 307.7 77 307.6 77.2 307.5 77.3 307.6 77.3 307.8 77.1 307.9 76.9 308.3 76.5 308.6 76.3 308.8 76 309 75.8 308.9 75.8 308.8 75.8 308.5 76.1 308.2 76.4M388.8 76.8C388.5 77.2 388.3 77.5 388.4 77.5 388.4 77.5 388.7 77.2 389 76.8 389.3 76.5 389.5 76.2 389.4 76.2 389.4 76.2 389.1 76.5 388.8 76.8M222.1 78C222.4 78.6 222.7 79 222.7 78.7 222.7 78.6 222.6 78.5 222.5 78.4 222.4 78.4 222.3 78.1 222.3 77.8 222.2 77.6 222.1 77.3 222 77.3 221.9 77.3 222 77.6 222.1 78M238.5 77.8C238.8 78 239 78 239 77.8 239 77.7 238.8 77.7 238.6 77.7 238.3 77.7 238.3 77.7 238.5 77.8M260.5 80.5C260.3 80.9 260.3 81.1 260.6 80.8 260.7 80.7 260.8 80.5 260.8 80.4 260.8 80.1 260.7 80.1 260.5 80.5M309.8 81.5C309.6 81.8 309.4 82 309.5 82 309.6 82 310.4 81.2 310.3 81.1 310.3 81.1 310 81.3 309.8 81.5M268.4 82.8C268.2 83 268.1 83.2 268.1 83.2 268.2 83.2 268.4 83 268.6 82.8 268.7 82.5 268.8 82.3 268.8 82.3 268.8 82.3 268.6 82.5 268.4 82.8M337.1 86.6C337 87.5 337.1 87.5 337.3 86.7 337.4 86.3 337.4 86 337.3 86 337.3 86 337.2 86.3 337.1 86.6M323 97.7L323.1 108.1 323.1 97.8C323.2 92.2 323.1 87.5 323 87.5 323 87.4 323 92 323 97.7M56 91.6C56.1 91.6 56.3 91.7 56.6 91.7 56.9 91.8 57 91.8 56.8 91.7 56.6 91.5 55.8 91.4 56 91.6M360.7 101.8C360.2 102 359.8 102.3 359.8 102.3 359.8 102.4 361.6 101.6 361.8 101.4 362 101.2 361.5 101.4 360.7 101.8M17.4 102.6C17.7 102.9 17.9 103.2 18 103.2 18 103.2 17.8 102.9 17.6 102.6 17.3 102.3 17.1 102 17 102 16.9 102 17.1 102.3 17.4 102.6M275.9 102.2C276 102.3 276.3 102.3 276.7 102.3 277 102.3 277.3 102.3 277.4 102.2 277.5 102.1 277.2 102.1 276.7 102.1 276.1 102.1 275.8 102.1 275.9 102.2M37.4 112.5C37.5 112.7 38.5 113.2 38.5 113.1 38.5 113.1 38.2 112.9 37.9 112.7 37.6 112.5 37.4 112.4 37.4 112.5" class="a"></path>
  </g>
</svg>
