<svg fill="#0a8ea0" id="svg" version="1.1"
  xmlns="http://www.w3.org/2000/svg"
  xmlns:xlink="http://www.w3.org/1999/xlink" width="134px" height="40px" viewBox="0, 0, 400,122.81488121918423">
  <g id="svgg">
    <path id="path0" d="M58.547 0.117 C 58.019 0.219,57.333 1.102,57.333 1.679 C 57.333 2.003,57.249 2.167,57.081 2.167 C 56.942 2.167,56.699 2.234,56.539 2.316 C 56.380 2.398,54.975 2.626,53.417 2.821 C 49.552 3.306,43.833 4.523,43.833 4.860 C 43.833 4.937,43.724 5.000,43.590 5.000 C 43.153 5.000,38.152 6.705,37.926 6.931 C 37.805 7.052,37.656 7.100,37.594 7.039 C 37.532 6.977,37.430 7.007,37.366 7.105 C 37.302 7.203,36.762 7.477,36.167 7.715 C 34.954 8.198,32.639 9.306,31.500 9.948 C 28.782 11.480,28.074 11.892,28.000 11.982 C 27.875 12.135,26.020 13.333,25.908 13.333 C 25.781 13.333,24.631 14.193,24.417 14.448 C 24.325 14.557,23.823 14.932,23.302 15.282 C 21.053 16.788,13.940 23.513,14.196 23.890 C 14.226 23.934,14.056 24.122,13.819 24.308 C 13.583 24.495,13.058 25.082,12.653 25.613 C 12.248 26.144,11.560 27.026,11.125 27.573 C 10.690 28.119,10.333 28.633,10.333 28.714 C 10.333 28.795,10.007 29.286,9.609 29.806 C 8.810 30.848,7.333 33.335,7.333 33.640 C 7.333 33.746,7.260 33.833,7.170 33.833 C 6.997 33.833,5.079 37.709,4.901 38.418 C 4.844 38.647,4.740 38.833,4.671 38.833 C 4.487 38.833,3.988 40.107,3.169 42.667 C 2.772 43.904,2.374 44.965,2.283 45.025 C 2.192 45.084,2.164 45.253,2.220 45.400 C 2.277 45.547,2.261 45.667,2.186 45.667 C 2.018 45.667,1.306 48.595,0.849 51.167 C -0.165 56.870,-0.302 64.914,0.514 70.833 C 0.899 73.622,2.051 78.981,2.304 79.160 C 2.375 79.209,2.648 79.962,2.910 80.833 C 3.585 83.068,4.511 85.535,4.775 85.799 C 4.899 85.922,5.049 86.219,5.109 86.458 C 5.293 87.194,6.988 90.667,7.162 90.667 C 7.253 90.667,7.373 90.851,7.430 91.075 C 7.486 91.300,7.862 92.020,8.266 92.675 C 8.670 93.329,9.000 93.919,9.000 93.984 C 9.000 94.050,9.142 94.256,9.316 94.442 C 9.489 94.629,10.041 95.412,10.542 96.182 C 11.043 96.953,11.651 97.765,11.893 97.987 C 12.135 98.210,12.333 98.462,12.333 98.548 C 12.333 99.155,18.511 105.624,21.417 108.061 C 22.425 108.906,23.475 109.737,23.750 109.907 C 24.025 110.077,24.550 110.473,24.917 110.786 C 25.916 111.641,29.408 113.866,31.007 114.668 C 31.782 115.057,32.454 115.431,32.500 115.499 C 32.613 115.667,34.131 116.425,35.191 116.843 C 35.667 117.030,36.662 117.472,37.403 117.824 C 38.621 118.403,40.673 119.126,43.417 119.943 C 43.967 120.107,44.454 120.291,44.500 120.353 C 44.727 120.659,50.842 121.831,54.500 122.270 C 58.428 122.741,69.500 122.653,69.500 122.151 C 69.500 122.068,68.656 121.999,67.625 121.998 C 63.005 121.994,54.720 121.040,52.833 120.295 C 52.604 120.205,51.592 119.913,50.583 119.646 C 48.412 119.073,44.952 117.968,44.833 117.810 C 44.788 117.749,43.887 117.351,42.833 116.925 C 41.779 116.499,40.603 115.986,40.219 115.784 C 39.250 115.273,36.371 113.770,35.667 113.406 C 35.346 113.241,35.008 113.021,34.917 112.918 C 34.721 112.698,33.386 111.833,33.242 111.833 C 33.129 111.833,31.749 110.898,31.349 110.551 C 31.203 110.424,30.451 109.863,29.678 109.305 C 28.905 108.746,28.117 108.143,27.928 107.964 C 27.738 107.785,27.149 107.289,26.618 106.861 C 25.428 105.903,21.256 101.790,20.609 100.939 C 20.348 100.595,19.836 100.000,19.470 99.615 C 18.876 98.991,17.414 97.062,15.869 94.863 C 15.568 94.434,15.161 93.764,14.964 93.374 C 14.768 92.984,14.457 92.505,14.274 92.309 C 14.092 92.112,13.504 91.096,12.969 90.051 C 12.434 89.005,11.890 87.985,11.758 87.783 C 11.460 87.325,10.403 84.883,9.980 83.675 C 9.805 83.175,9.600 82.725,9.525 82.675 C 9.325 82.541,8.271 79.212,7.729 77.000 C 7.471 75.946,7.212 75.046,7.153 75.000 C 7.012 74.889,6.408 71.577,6.074 69.083 C 5.707 66.348,5.568 59.480,5.823 56.650 C 6.136 53.167,6.797 49.042,7.168 48.250 C 7.254 48.067,7.468 47.354,7.643 46.667 C 8.114 44.823,9.169 41.467,9.399 41.083 C 9.509 40.900,9.807 40.225,10.062 39.583 C 10.637 38.133,11.715 35.778,11.854 35.667 C 11.911 35.621,12.277 34.946,12.667 34.167 C 13.057 33.387,13.929 31.904,14.605 30.871 C 15.280 29.837,15.834 28.937,15.834 28.871 C 15.835 28.804,16.109 28.452,16.444 28.087 C 16.779 27.722,17.306 27.029,17.614 26.546 C 17.923 26.064,18.417 25.424,18.713 25.124 C 19.008 24.824,19.473 24.280,19.746 23.914 C 20.378 23.068,25.039 18.398,25.904 17.744 C 26.264 17.472,26.934 16.894,27.393 16.458 C 27.852 16.023,28.297 15.667,28.382 15.667 C 28.551 15.667,29.820 14.709,30.083 14.382 C 30.175 14.268,30.962 13.725,31.833 13.174 C 32.704 12.624,33.604 12.022,33.833 11.837 C 34.063 11.653,34.874 11.182,35.637 10.792 C 36.400 10.402,37.150 9.971,37.304 9.833 C 37.457 9.695,38.296 9.254,39.167 8.851 C 40.037 8.449,41.450 7.790,42.305 7.388 C 43.160 6.986,45.035 6.270,46.472 5.798 C 47.908 5.326,49.121 4.889,49.167 4.826 C 49.328 4.605,56.287 3.000,57.083 3.000 C 57.206 3.000,57.533 3.225,57.808 3.500 C 59.073 4.765,61.167 3.913,61.167 2.133 C 61.167 0.563,60.177 -0.199,58.547 0.117 M63.708 4.612 C 63.044 4.650,62.500 4.753,62.500 4.841 C 62.500 4.928,62.219 5.000,61.875 5.000 C 60.116 5.002,51.477 6.724,51.172 7.134 C 51.123 7.199,50.183 7.545,49.083 7.902 C 47.035 8.566,40.333 11.708,40.333 12.004 C 40.333 12.093,40.248 12.167,40.143 12.167 C 40.038 12.167,39.495 12.450,38.935 12.796 C 38.375 13.142,37.722 13.523,37.484 13.643 C 37.247 13.763,36.731 14.155,36.338 14.514 C 35.946 14.873,35.548 15.167,35.454 15.167 C 35.295 15.167,34.164 16.014,33.417 16.693 C 33.233 16.859,32.708 17.304,32.250 17.682 C 30.024 19.515,25.358 24.458,24.211 26.199 C 23.957 26.583,23.594 27.055,23.403 27.246 C 23.213 27.438,22.743 28.131,22.361 28.787 C 21.978 29.442,21.557 30.086,21.425 30.218 C 21.168 30.475,20.187 32.216,19.527 33.583 C 19.306 34.042,19.027 34.530,18.906 34.669 C 18.680 34.929,17.167 38.434,17.167 38.698 C 17.167 38.780,16.950 39.313,16.685 39.882 C 14.550 44.470,14.442 54.989,16.502 57.750 C 16.570 57.842,16.865 58.479,17.157 59.167 C 17.921 60.964,18.435 61.895,19.531 63.461 C 20.064 64.223,20.500 64.906,20.500 64.980 C 20.500 65.054,20.786 65.408,21.135 65.766 C 21.484 66.124,22.103 66.826,22.510 67.326 C 23.445 68.475,24.779 69.802,26.156 70.953 C 26.747 71.446,27.422 72.035,27.656 72.262 C 28.507 73.083,31.946 75.535,33.255 76.254 C 33.711 76.504,34.233 76.842,34.417 77.005 C 34.600 77.168,35.575 77.720,36.583 78.230 C 37.592 78.741,38.511 79.240,38.627 79.338 C 38.743 79.437,39.231 79.700,39.711 79.924 C 41.348 80.686,41.417 80.384,39.958 78.844 C 38.281 77.075,36.959 75.530,36.333 74.609 C 36.012 74.136,35.560 73.550,35.327 73.306 C 35.095 73.062,34.796 72.649,34.664 72.389 C 34.327 71.730,33.279 70.104,33.113 69.982 C 33.037 69.927,32.524 68.915,31.973 67.733 C 31.422 66.552,30.919 65.547,30.855 65.501 C 30.622 65.332,29.288 61.559,28.733 59.500 C 28.572 58.904,28.389 58.379,28.325 58.333 C 28.173 58.225,27.396 54.193,27.135 52.167 C 26.557 47.666,27.380 36.567,28.346 35.833 C 28.406 35.787,28.581 35.300,28.735 34.750 C 29.255 32.886,30.204 30.422,30.918 29.083 C 31.308 28.350,31.928 27.182,32.295 26.488 C 32.661 25.794,33.157 25.014,33.397 24.755 C 33.637 24.496,33.833 24.217,33.833 24.135 C 33.833 23.080,40.939 15.628,42.718 14.817 C 42.965 14.705,43.167 14.561,43.167 14.497 C 43.167 14.354,44.633 13.399,45.721 12.833 C 46.162 12.604,46.649 12.304,46.805 12.167 C 47.118 11.890,49.582 10.667,49.826 10.667 C 49.911 10.667,50.603 10.375,51.365 10.018 C 53.293 9.114,57.361 7.903,60.083 7.421 C 60.450 7.357,60.825 7.244,60.917 7.171 C 61.008 7.098,61.646 6.951,62.333 6.845 C 63.021 6.739,63.734 6.621,63.919 6.583 C 64.168 6.531,64.695 6.954,65.957 8.215 C 66.894 9.151,68.112 10.367,68.664 10.917 C 69.217 11.467,69.668 11.996,69.667 12.093 C 69.667 12.190,70.091 12.677,70.610 13.176 C 71.129 13.675,71.687 14.301,71.849 14.568 C 72.012 14.834,72.486 15.434,72.904 15.901 C 74.329 17.494,77.100 21.215,78.936 24.000 C 79.449 24.779,79.993 25.596,80.143 25.815 C 80.887 26.900,82.000 28.709,82.000 28.834 C 82.000 28.911,82.252 29.304,82.560 29.708 C 82.868 30.111,83.309 30.818,83.540 31.278 L 83.960 32.115 82.688 31.738 C 81.989 31.531,81.111 31.247,80.737 31.108 C 79.951 30.815,76.340 29.870,73.917 29.323 C 73.000 29.115,72.212 28.896,72.167 28.834 C 72.121 28.773,71.633 28.629,71.083 28.516 C 67.284 27.730,63.550 27.001,62.417 26.826 C 61.683 26.712,61.008 26.562,60.917 26.491 C 60.825 26.421,60.131 26.273,59.375 26.162 C 58.619 26.052,58.000 25.892,58.000 25.807 C 58.000 25.721,57.816 25.467,57.591 25.242 C 56.739 24.390,55.333 24.969,55.333 26.172 C 55.333 27.403,56.708 27.973,57.578 27.104 C 58.029 26.653,57.799 26.638,61.417 27.353 C 65.217 28.105,67.714 28.660,68.083 28.836 C 68.267 28.923,70.362 29.486,72.740 30.087 C 75.118 30.687,77.143 31.244,77.240 31.323 C 77.337 31.402,77.754 31.557,78.167 31.667 C 84.361 33.313,84.909 33.604,86.002 35.833 C 88.630 41.196,89.063 42.167,88.823 42.167 C 88.472 42.167,86.951 43.774,86.540 44.580 C 85.909 45.817,85.804 48.387,86.323 49.922 L 86.689 51.007 86.008 51.879 C 85.633 52.358,84.934 53.191,84.455 53.730 C 83.976 54.268,83.470 54.868,83.332 55.063 C 83.194 55.258,82.669 55.837,82.165 56.350 C 81.662 56.863,81.057 57.501,80.822 57.767 C 79.808 58.911,74.854 63.280,73.516 64.208 C 73.112 64.489,72.645 64.855,72.477 65.023 C 72.309 65.191,71.515 65.751,70.711 66.268 C 69.907 66.784,69.190 67.311,69.117 67.437 C 69.043 67.563,68.909 67.667,68.817 67.667 C 68.726 67.667,68.246 67.925,67.752 68.241 C 67.258 68.558,66.539 68.977,66.153 69.173 C 65.768 69.370,65.319 69.655,65.155 69.807 C 64.991 69.959,63.895 70.524,62.720 71.062 C 61.545 71.600,60.546 72.099,60.499 72.172 C 60.407 72.317,57.629 73.428,56.125 73.921 C 55.598 74.094,55.167 74.300,55.167 74.378 C 55.167 74.456,55.083 74.468,54.981 74.405 C 54.879 74.342,54.748 74.363,54.690 74.452 C 54.300 75.042,46.390 76.626,42.596 76.874 C 42.213 76.899,41.911 77.014,41.865 77.151 C 41.800 77.349,42.192 77.370,44.349 77.287 C 45.929 77.227,46.932 77.121,46.969 77.011 C 47.001 76.913,47.265 76.833,47.556 76.833 C 49.119 76.832,56.736 75.206,58.046 74.594 C 58.342 74.456,59.483 74.032,60.583 73.652 C 61.683 73.272,63.296 72.624,64.167 72.212 C 67.541 70.615,68.920 69.933,69.000 69.823 C 69.046 69.759,69.673 69.394,70.393 69.011 C 71.683 68.325,72.884 67.606,73.237 67.308 C 73.635 66.971,75.684 65.667,75.814 65.667 C 75.891 65.667,76.245 65.391,76.602 65.055 C 76.958 64.718,77.643 64.191,78.124 63.884 C 78.604 63.576,79.246 63.076,79.551 62.772 C 79.855 62.467,80.245 62.139,80.419 62.042 C 81.186 61.613,85.738 57.214,87.943 54.772 L 89.127 53.460 90.022 53.762 C 90.560 53.944,91.425 54.068,92.194 54.074 C 93.736 54.085,93.553 53.907,94.088 55.920 C 94.331 56.835,94.590 57.658,94.664 57.750 C 94.835 57.963,95.687 61.727,96.248 64.750 C 96.487 66.033,96.727 67.196,96.782 67.333 C 96.838 67.471,96.865 67.762,96.843 67.981 C 96.821 68.200,96.876 68.425,96.964 68.481 C 97.128 68.585,97.688 72.807,98.016 76.417 C 98.257 79.064,98.438 85.473,98.333 87.662 L 98.250 89.408 95.500 90.779 C 93.442 91.805,92.100 92.344,90.167 92.922 C 88.746 93.346,87.455 93.761,87.298 93.844 C 85.372 94.862,73.825 95.568,68.083 95.019 C 65.448 94.767,60.566 94.035,60.190 93.834 C 60.040 93.754,59.167 93.528,58.250 93.331 C 55.508 92.742,51.307 91.532,51.144 91.285 C 51.085 91.197,50.954 91.175,50.852 91.238 C 50.750 91.301,50.667 91.274,50.667 91.177 C 50.667 91.079,50.589 91.000,50.493 91.000 C 49.147 91.000,38.077 85.576,36.384 84.087 C 35.938 83.694,33.305 82.000,33.141 82.000 C 33.064 82.000,33.000 81.937,33.000 81.860 C 33.000 81.700,31.068 80.167,30.867 80.167 C 30.794 80.167,30.475 79.903,30.159 79.581 C 29.842 79.259,29.132 78.634,28.581 78.192 C 26.951 76.887,20.525 70.332,20.109 69.549 C 20.001 69.347,19.553 68.784,19.114 68.299 C 18.222 67.314,16.169 64.531,15.020 62.750 C 14.606 62.108,14.169 61.484,14.049 61.362 C 13.929 61.240,13.754 60.997,13.660 60.820 C 13.565 60.644,13.404 60.500,13.302 60.500 C 12.924 60.500,13.599 69.480,13.988 69.629 C 14.054 69.654,14.075 69.898,14.035 70.171 C 13.995 70.443,14.037 70.667,14.129 70.667 C 14.220 70.667,14.347 71.023,14.410 71.458 C 14.643 73.069,16.211 78.791,16.477 79.000 C 16.578 79.079,16.783 79.597,17.517 81.620 C 18.124 83.293,20.472 87.815,21.720 89.715 C 22.214 90.468,22.737 91.308,22.881 91.583 C 23.025 91.858,23.375 92.334,23.660 92.641 C 23.944 92.947,24.425 93.585,24.729 94.057 C 25.034 94.530,25.594 95.236,25.975 95.625 C 26.355 96.015,26.667 96.408,26.667 96.499 C 26.667 96.761,32.900 102.946,33.288 103.069 C 33.480 103.130,33.746 103.346,33.880 103.550 C 34.013 103.754,34.676 104.303,35.353 104.769 C 36.030 105.236,36.835 105.854,37.143 106.142 C 37.450 106.431,37.773 106.667,37.860 106.667 C 37.947 106.667,38.460 106.967,39.000 107.333 C 39.540 107.700,40.026 108.000,40.081 108.000 C 40.136 108.000,40.327 108.136,40.506 108.303 C 40.685 108.470,41.600 109.005,42.541 109.492 C 43.481 109.979,44.560 110.557,44.939 110.777 C 45.735 111.238,49.621 112.833,49.947 112.833 C 50.068 112.833,50.167 112.899,50.167 112.980 C 50.167 113.236,54.850 114.598,57.750 115.186 C 58.300 115.297,58.827 115.447,58.922 115.518 C 59.732 116.127,68.761 116.760,73.093 116.511 C 76.664 116.306,80.877 115.780,81.250 115.492 C 81.342 115.421,81.717 115.311,82.083 115.248 C 84.356 114.854,89.833 113.254,89.833 112.983 C 89.833 112.901,89.941 112.833,90.072 112.833 C 90.470 112.833,94.961 110.904,95.167 110.645 C 95.212 110.587,95.870 110.234,96.629 109.861 C 98.364 109.005,102.537 106.300,103.409 105.464 C 103.771 105.117,104.155 104.833,104.263 104.833 C 104.431 104.833,105.200 104.160,107.167 102.288 C 108.045 101.452,110.414 98.840,110.482 98.634 C 110.521 98.514,110.953 97.973,111.443 97.430 C 111.933 96.887,112.333 96.376,112.333 96.293 C 112.333 96.118,113.293 94.660,113.569 94.417 C 113.777 94.233,114.894 92.343,115.490 91.167 C 115.699 90.754,115.938 90.374,116.021 90.322 C 116.104 90.270,116.586 89.257,117.092 88.072 C 117.599 86.887,118.194 85.542,118.416 85.083 C 118.862 84.160,119.854 80.964,120.270 79.113 C 120.418 78.455,120.594 77.842,120.662 77.750 C 121.164 77.066,121.837 71.391,121.946 66.917 C 122.074 61.634,121.333 53.530,120.673 53.000 C 120.616 52.954,120.435 52.317,120.270 51.583 C 119.843 49.680,118.868 46.366,118.504 45.583 C 118.334 45.217,118.030 44.504,117.829 44.000 C 116.888 41.638,116.130 39.914,115.998 39.832 C 115.919 39.783,115.628 39.257,115.351 38.663 C 114.789 37.455,114.056 36.173,113.125 34.769 C 112.781 34.251,112.500 33.790,112.500 33.744 C 112.500 33.579,111.283 31.833,111.168 31.833 C 111.103 31.833,110.828 31.477,110.558 31.042 C 109.310 29.034,104.458 23.789,102.423 22.247 C 102.062 21.973,101.578 21.576,101.346 21.363 C 101.115 21.150,100.399 20.632,99.754 20.212 C 99.110 19.792,98.508 19.363,98.417 19.260 C 98.055 18.850,97.180 18.333,96.849 18.333 C 96.369 18.333,96.410 18.641,96.917 18.833 C 97.146 18.920,97.333 19.057,97.333 19.138 C 97.333 19.218,97.760 19.613,98.282 20.017 C 98.804 20.420,99.658 21.147,100.180 21.633 L 101.130 22.516 100.827 23.883 C 100.660 24.635,100.322 25.925,100.076 26.750 C 99.830 27.575,99.588 28.400,99.537 28.583 C 99.487 28.767,99.393 28.954,99.329 29.000 C 99.264 29.046,99.017 29.646,98.779 30.333 C 98.128 32.210,97.148 34.543,96.908 34.782 C 96.792 34.899,96.569 35.327,96.413 35.735 C 96.137 36.460,95.618 36.563,95.167 35.983 C 95.121 35.924,93.696 35.406,92.000 34.832 C 90.304 34.258,88.836 33.725,88.737 33.648 C 88.638 33.570,88.057 33.352,87.444 33.163 C 86.343 32.823,86.325 32.808,85.811 31.785 C 85.524 31.216,85.233 30.712,85.164 30.667 C 85.094 30.621,84.611 29.796,84.089 28.833 C 83.568 27.871,83.053 27.008,82.945 26.917 C 82.837 26.825,82.304 26.011,81.762 25.108 C 81.220 24.205,80.688 23.378,80.579 23.270 C 80.471 23.161,79.968 22.430,79.461 21.645 C 78.954 20.859,78.397 20.074,78.222 19.900 C 78.047 19.726,77.710 19.281,77.474 18.912 C 76.921 18.048,74.252 14.667,73.255 13.569 C 72.833 13.103,72.365 12.541,72.217 12.319 C 72.069 12.098,71.519 11.467,70.995 10.917 C 68.501 8.297,66.833 6.465,66.833 6.344 C 66.833 5.611,79.685 6.329,81.417 7.159 C 81.600 7.246,82.612 7.546,83.667 7.824 C 85.665 8.351,88.740 9.387,89.063 9.642 C 89.166 9.723,90.000 10.105,90.917 10.490 C 91.833 10.876,93.446 11.664,94.500 12.242 C 95.554 12.821,96.846 13.526,97.371 13.809 C 97.895 14.093,98.458 14.444,98.621 14.590 C 98.783 14.736,99.588 15.280,100.408 15.799 C 101.228 16.318,102.088 16.919,102.320 17.134 C 102.891 17.663,104.917 19.000,105.147 19.000 C 105.532 19.000,105.294 18.566,104.645 18.083 C 104.275 17.808,103.584 17.219,103.111 16.774 C 102.637 16.329,102.100 15.904,101.917 15.830 C 101.733 15.756,101.114 15.314,100.541 14.848 C 99.967 14.382,99.457 14.000,99.407 14.000 C 99.356 14.000,98.888 13.711,98.366 13.358 C 97.844 13.006,97.135 12.584,96.792 12.423 C 96.448 12.261,96.167 12.072,96.167 12.003 C 96.167 11.875,92.437 10.000,92.183 10.000 C 92.107 10.000,91.866 9.862,91.647 9.694 C 91.216 9.361,88.333 8.245,86.333 7.636 C 85.646 7.426,85.035 7.188,84.977 7.106 C 84.918 7.024,84.787 7.009,84.685 7.072 C 84.583 7.135,84.500 7.115,84.500 7.029 C 84.500 6.881,82.410 6.327,79.750 5.770 C 79.108 5.635,77.608 5.403,76.417 5.254 C 75.225 5.106,74.025 4.908,73.750 4.814 C 73.232 4.639,65.836 4.490,63.708 4.612 M193.706 26.256 C 193.739 42.018,193.798 47.209,193.945 47.299 C 194.052 47.366,194.191 47.624,194.254 47.873 C 194.850 50.250,200.329 51.907,202.968 50.508 C 203.123 50.426,203.608 50.268,204.046 50.156 C 205.055 49.900,205.028 49.977,204.661 48.435 C 204.283 46.850,204.431 46.980,203.333 47.266 C 200.061 48.117,197.979 47.408,197.361 45.231 C 197.218 44.725,197.167 39.381,197.167 24.939 L 197.167 5.333 195.415 5.333 L 193.663 5.333 193.706 26.256 M245.708 27.958 L 245.750 50.583 247.333 50.583 L 248.917 50.583 249.000 47.667 L 249.083 44.750 249.714 45.693 C 250.062 46.212,250.547 46.769,250.794 46.930 C 251.040 47.091,251.581 47.538,251.996 47.922 C 252.803 48.671,254.824 49.831,255.917 50.173 C 256.283 50.288,256.626 50.447,256.678 50.526 C 257.191 51.313,264.370 51.300,265.417 50.511 C 265.508 50.442,266.098 50.183,266.727 49.936 C 267.991 49.439,269.667 48.432,269.667 48.169 C 269.667 48.076,269.760 47.999,269.875 47.998 C 270.468 47.991,274.000 44.105,274.000 43.460 C 274.000 43.362,274.199 43.020,274.442 42.702 C 276.521 39.977,276.937 32.033,275.232 27.649 C 274.044 24.596,271.422 21.246,269.167 19.900 C 268.571 19.544,268.046 19.205,268.000 19.145 C 266.602 17.337,256.801 17.348,255.167 19.160 C 255.121 19.211,254.532 19.618,253.859 20.065 C 252.540 20.939,250.443 22.911,249.757 23.922 L 249.333 24.547 249.333 14.940 L 249.333 5.333 247.499 5.333 L 245.665 5.333 245.708 27.958 M316.667 25.575 C 316.667 45.223,316.719 47.500,317.168 47.500 C 317.245 47.500,317.391 47.754,317.494 48.065 C 317.732 48.786,318.715 49.801,319.486 50.122 C 319.814 50.259,320.127 50.441,320.181 50.526 C 320.502 51.035,325.641 51.037,325.992 50.528 C 326.042 50.456,326.515 50.302,327.042 50.186 C 328.143 49.945,328.135 49.970,327.730 48.177 C 327.508 47.195,327.411 46.999,327.188 47.087 C 325.101 47.909,322.388 47.735,321.299 46.710 C 320.294 45.764,320.333 46.644,320.333 25.054 L 320.333 5.333 318.500 5.333 L 316.667 5.333 316.667 25.575 M164.833 6.348 C 163.214 6.556,161.333 7.002,161.333 7.178 C 161.333 7.263,161.231 7.333,161.105 7.333 C 160.420 7.333,156.751 9.255,156.450 9.771 C 156.377 9.897,156.219 10.000,156.100 10.000 C 155.702 10.000,152.973 12.715,151.814 14.264 C 147.315 20.276,146.014 28.665,148.430 36.083 C 148.668 36.817,148.955 37.529,149.066 37.667 C 149.178 37.804,149.660 38.725,150.139 39.713 C 150.618 40.701,151.148 41.648,151.318 41.818 C 151.488 41.988,151.947 42.567,152.339 43.105 C 153.022 44.042,155.782 46.818,156.041 46.828 C 156.109 46.831,156.675 47.197,157.299 47.642 C 159.055 48.895,162.499 50.333,163.745 50.333 C 163.962 50.333,164.170 50.427,164.208 50.542 C 164.303 50.824,171.286 50.844,171.464 50.562 C 171.530 50.459,171.921 50.318,172.333 50.250 C 175.064 49.799,178.669 47.773,181.232 45.250 L 182.417 44.083 182.462 47.381 L 182.507 50.680 183.962 50.631 L 185.417 50.583 185.460 39.792 L 185.502 29.000 178.918 29.000 L 172.333 29.000 172.333 30.417 L 172.333 31.833 177.417 31.833 L 182.500 31.833 182.500 35.825 L 182.500 39.817 181.792 40.595 C 179.743 42.843,178.562 43.881,176.985 44.816 C 176.306 45.219,175.712 45.607,175.666 45.677 C 175.526 45.889,173.165 46.766,171.833 47.100 C 170.068 47.543,166.089 47.544,164.333 47.102 C 162.826 46.722,160.672 45.893,160.427 45.599 C 160.330 45.482,159.725 45.062,159.083 44.666 C 157.607 43.753,155.508 41.727,154.639 40.375 C 154.271 39.802,153.913 39.333,153.842 39.333 C 153.655 39.333,152.363 36.600,151.955 35.338 C 151.761 34.740,151.551 34.212,151.489 34.167 C 150.535 33.465,150.531 23.270,151.485 22.675 C 151.566 22.625,151.722 22.248,151.832 21.839 C 152.110 20.806,153.384 17.950,153.819 17.384 C 154.017 17.127,154.517 16.452,154.930 15.884 C 157.057 12.959,160.900 10.431,164.000 9.917 C 164.412 9.848,164.800 9.713,164.862 9.616 C 165.017 9.371,169.678 9.368,170.192 9.612 C 170.407 9.714,171.254 9.959,172.073 10.155 C 173.826 10.576,175.941 11.458,176.777 12.116 C 178.529 13.495,180.321 15.514,180.928 16.792 C 181.156 17.273,181.435 17.665,181.547 17.664 C 181.840 17.660,184.333 16.094,184.333 15.914 C 184.333 15.182,181.369 11.176,180.242 10.384 C 180.007 10.219,179.560 9.854,179.251 9.573 C 178.615 8.998,176.653 7.997,175.311 7.564 C 174.819 7.406,174.374 7.212,174.322 7.135 C 173.891 6.497,167.685 5.982,164.833 6.348 M220.270 17.839 C 219.067 18.028,216.536 18.821,216.263 19.094 C 216.153 19.205,215.730 19.462,215.323 19.666 C 213.007 20.829,210.255 23.758,209.072 26.318 C 208.751 27.014,208.382 27.775,208.253 28.010 C 207.206 29.915,206.845 36.201,207.622 39.012 C 208.083 40.679,209.828 44.235,210.620 45.121 C 210.967 45.509,211.471 46.098,211.741 46.431 C 212.011 46.764,212.498 47.207,212.824 47.414 C 213.150 47.622,213.652 48.018,213.939 48.295 C 214.482 48.819,216.937 50.053,217.824 50.248 C 218.104 50.309,218.333 50.419,218.333 50.490 C 218.333 51.260,226.505 51.272,227.583 50.504 C 227.675 50.439,228.275 50.180,228.917 49.928 C 232.094 48.682,234.066 46.849,236.850 42.553 C 239.062 39.141,239.223 31.237,237.168 26.953 C 235.559 23.598,231.387 19.333,229.714 19.333 C 229.596 19.333,229.500 19.268,229.500 19.187 C 229.500 18.300,223.194 17.379,220.270 17.839 M291.917 17.935 C 290.525 18.183,287.978 18.958,287.833 19.176 C 287.787 19.246,287.412 19.436,287.000 19.597 C 286.013 19.985,283.409 21.458,283.142 21.780 C 282.922 22.045,283.688 23.833,284.020 23.833 C 284.101 23.833,284.167 23.946,284.167 24.083 C 284.167 24.433,284.596 24.395,284.952 24.013 C 285.278 23.664,288.779 21.833,289.122 21.833 C 289.238 21.833,289.333 21.773,289.333 21.700 C 289.333 21.626,289.690 21.443,290.125 21.293 C 296.491 19.097,302.375 21.639,303.696 27.156 C 304.010 28.469,304.140 32.833,303.865 32.833 C 303.790 32.833,303.172 32.690,302.490 32.516 C 295.919 30.833,287.753 31.415,285.069 33.757 C 284.710 34.071,284.359 34.328,284.288 34.330 C 284.006 34.337,282.655 35.741,282.227 36.473 C 281.976 36.900,281.675 37.347,281.557 37.466 C 280.647 38.380,280.735 45.167,281.657 45.167 C 281.729 45.167,281.924 45.522,282.089 45.955 C 282.507 47.050,284.583 49.093,285.917 49.722 C 286.467 49.981,287.217 50.335,287.583 50.508 C 289.372 51.351,295.547 51.352,296.574 50.509 C 296.671 50.430,297.200 50.235,297.750 50.076 C 299.205 49.655,301.268 48.602,301.967 47.923 C 302.301 47.599,302.632 47.333,302.703 47.333 C 302.927 47.333,304.198 46.109,304.342 45.755 C 304.429 45.540,304.483 45.986,304.489 46.975 C 304.502 48.817,304.756 49.491,305.643 50.032 C 305.977 50.236,306.275 50.462,306.306 50.535 C 306.336 50.607,306.917 50.667,307.597 50.667 L 308.833 50.667 308.833 49.000 C 308.833 47.497,308.803 47.333,308.529 47.333 C 307.515 47.333,307.532 47.487,307.451 37.167 C 307.389 29.161,307.336 27.575,307.102 26.583 C 306.668 24.752,306.018 23.211,305.320 22.363 C 304.968 21.934,304.483 21.342,304.244 21.046 C 304.004 20.751,303.345 20.229,302.779 19.888 C 302.213 19.546,301.675 19.181,301.583 19.077 C 300.645 18.010,295.140 17.359,291.917 17.935 M264.167 21.257 C 264.671 21.411,265.121 21.588,265.167 21.651 C 265.212 21.714,265.850 22.119,266.583 22.550 C 268.815 23.861,271.076 26.673,271.838 29.083 C 271.954 29.450,272.114 29.793,272.193 29.845 C 273.065 30.414,273.057 38.141,272.183 38.833 C 272.126 38.879,271.868 39.442,271.612 40.083 C 267.860 49.470,254.710 50.526,249.917 41.824 L 249.417 40.917 249.367 34.917 L 249.318 28.917 249.888 27.972 C 250.641 26.727,252.997 23.833,253.259 23.833 C 253.311 23.833,253.630 23.612,253.968 23.342 C 256.924 20.984,260.717 20.208,264.167 21.257 M225.555 21.083 C 226.484 21.325,227.916 22.022,229.373 22.942 C 232.243 24.753,234.731 28.981,235.161 32.778 C 235.400 34.892,234.876 39.147,234.333 39.500 C 234.263 39.546,233.979 40.085,233.701 40.698 C 232.965 42.325,230.157 45.833,229.591 45.833 C 229.563 45.833,229.113 46.091,228.591 46.405 C 225.226 48.431,219.698 48.336,216.804 46.202 C 215.073 44.926,214.371 44.312,213.917 43.675 C 213.642 43.289,213.211 42.739,212.960 42.452 C 212.336 41.738,211.359 39.364,211.026 37.750 C 210.874 37.017,210.694 36.392,210.625 36.361 C 210.457 36.286,210.464 32.833,210.633 32.833 C 210.706 32.833,210.853 32.321,210.961 31.695 C 211.631 27.783,214.435 23.848,217.714 22.214 C 218.192 21.976,218.625 21.718,218.676 21.641 C 219.113 20.983,223.732 20.608,225.555 21.083 M105.089 26.679 C 105.297 27.007,105.730 27.553,106.051 27.894 C 106.372 28.234,107.095 29.194,107.657 30.026 C 108.220 30.859,108.856 31.774,109.071 32.061 C 109.286 32.349,109.820 33.258,110.257 34.083 C 110.694 34.908,111.103 35.621,111.165 35.667 C 111.491 35.906,114.218 42.403,114.573 43.786 C 114.720 44.356,114.885 44.941,114.941 45.086 C 115.053 45.377,113.827 44.810,111.750 43.610 C 110.097 42.654,106.718 41.000,106.419 41.000 C 106.280 41.000,106.167 40.921,106.167 40.823 C 106.167 40.726,106.098 40.689,106.014 40.741 C 105.930 40.793,105.837 40.761,105.806 40.671 C 105.747 40.497,102.068 38.833,101.742 38.833 C 101.637 38.833,101.376 38.681,101.161 38.495 C 100.947 38.310,100.598 38.114,100.386 38.061 C 99.922 37.944,99.925 37.972,100.304 37.202 C 100.471 36.862,100.861 35.908,101.171 35.083 C 101.481 34.258,101.786 33.546,101.849 33.500 C 102.122 33.302,103.527 28.255,103.908 26.109 C 104.040 25.364,104.347 25.513,105.089 26.679 M299.583 34.416 C 300.408 34.561,301.308 34.747,301.583 34.828 C 301.858 34.909,302.515 35.095,303.042 35.242 L 304.000 35.509 304.000 38.690 C 304.000 41.919,303.755 43.090,302.958 43.677 C 302.888 43.729,302.325 44.257,301.707 44.850 C 299.128 47.327,292.584 49.192,290.274 48.109 C 289.986 47.974,289.449 47.783,289.081 47.686 C 286.784 47.076,284.797 44.722,284.328 42.051 C 283.294 36.178,290.148 32.747,299.583 34.416 M89.333 35.333 C 90.204 35.635,90.954 35.931,91.000 35.992 C 91.046 36.052,91.308 36.187,91.583 36.290 C 92.802 36.748,95.255 37.713,95.301 37.753 C 95.403 37.841,94.847 38.999,94.550 39.318 C 94.383 39.497,94.004 40.117,93.707 40.697 L 93.167 41.750 91.891 41.667 L 90.615 41.583 90.398 40.953 C 90.279 40.607,90.065 40.208,89.924 40.067 C 89.782 39.925,89.667 39.742,89.667 39.659 C 89.667 39.395,87.631 35.086,87.479 35.028 C 87.399 34.997,87.333 34.895,87.333 34.802 C 87.333 34.708,87.427 34.666,87.542 34.708 C 87.656 34.751,88.462 35.032,89.333 35.333 M100.622 40.125 C 101.334 40.469,101.954 40.799,102.000 40.858 C 102.046 40.918,102.965 41.423,104.044 41.980 C 105.122 42.537,106.209 43.137,106.460 43.313 C 107.056 43.731,108.630 44.692,109.189 44.978 C 109.431 45.101,109.918 45.456,110.273 45.765 C 110.627 46.074,110.979 46.328,111.054 46.330 C 111.233 46.334,112.944 47.636,114.367 48.850 C 114.982 49.375,115.629 49.905,115.806 50.029 C 116.699 50.654,116.868 62.425,116.002 63.583 C 115.933 63.675,115.825 64.050,115.761 64.417 C 115.328 66.918,114.407 70.026,113.588 71.750 C 111.857 75.395,111.499 76.114,111.263 76.417 C 111.120 76.600,110.598 77.387,110.102 78.167 C 109.606 78.946,109.015 79.771,108.788 80.000 C 108.561 80.229,108.109 80.772,107.783 81.205 C 106.629 82.743,102.829 86.306,101.083 87.488 L 100.083 88.165 99.984 83.291 C 99.885 78.427,99.564 73.491,99.337 73.333 C 99.270 73.287,99.165 72.725,99.102 72.083 C 98.795 68.951,97.315 60.472,97.008 60.085 C 96.934 59.993,96.715 59.242,96.522 58.417 C 96.329 57.592,95.953 56.106,95.686 55.116 L 95.200 53.316 95.771 52.699 C 98.002 50.292,98.335 47.108,96.627 44.500 C 96.363 44.095,96.376 44.052,97.089 43.007 C 97.493 42.415,98.101 41.384,98.440 40.715 C 99.163 39.291,98.991 39.337,100.622 40.125 M93.084 44.073 C 95.613 45.130,96.333 48.689,94.390 50.533 C 91.710 53.077,87.624 49.843,88.746 46.065 C 89.274 44.287,91.333 43.341,93.084 44.073 M146.000 64.917 L 146.000 68.667 156.833 68.667 L 167.667 68.667 167.667 92.750 L 167.667 116.833 171.917 116.833 L 176.167 116.833 176.167 92.750 L 176.167 68.667 187.000 68.667 L 197.833 68.667 197.833 64.917 L 197.833 61.167 171.917 61.167 L 146.000 61.167 146.000 64.917 M245.670 83.958 C 245.672 105.417,245.748 109.570,246.138 109.819 C 246.223 109.873,246.346 110.179,246.413 110.500 C 246.976 113.204,250.122 115.865,253.333 116.353 C 255.553 116.690,261.989 116.110,262.750 115.505 C 262.842 115.432,263.460 115.199,264.125 114.987 C 265.267 114.622,265.787 114.051,265.201 113.806 C 265.128 113.775,264.898 112.775,264.690 111.583 C 264.040 107.860,264.023 107.804,263.610 107.933 C 263.412 107.994,263.212 108.100,263.167 108.168 C 262.976 108.451,260.208 109.000,259.010 108.993 C 256.413 108.978,254.685 107.620,254.183 105.200 C 254.056 104.585,254.000 97.777,254.000 82.742 L 254.000 61.167 249.833 61.167 L 245.667 61.167 245.670 83.958 M377.833 65.167 L 377.833 69.167 374.750 69.167 L 371.667 69.167 371.667 72.417 L 371.667 75.667 374.743 75.667 L 377.820 75.667 377.872 92.375 C 377.931 111.007,377.848 109.703,379.105 111.847 C 380.244 113.790,382.192 115.246,384.718 116.040 C 386.927 116.734,394.542 116.376,395.152 115.549 C 395.206 115.476,395.813 115.234,396.500 115.012 C 398.548 114.348,400.000 113.656,400.000 113.343 C 400.000 113.190,399.857 112.619,399.682 112.074 C 399.507 111.529,399.116 110.183,398.814 109.083 C 398.512 107.983,398.242 107.051,398.214 107.012 C 398.151 106.924,395.448 108.020,395.333 108.181 C 395.154 108.431,393.402 108.829,392.019 108.933 C 389.438 109.128,387.498 108.180,386.654 106.310 L 386.250 105.417 386.204 90.542 L 386.158 75.667 391.329 75.667 L 396.500 75.667 396.500 72.417 L 396.500 69.167 391.333 69.167 L 386.167 69.167 386.167 65.167 L 386.167 61.167 382.000 61.167 L 377.833 61.167 377.833 65.167 M211.333 68.430 C 208.792 68.725,205.357 69.410,205.167 69.662 C 205.121 69.722,204.371 70.018,203.500 70.319 C 201.631 70.966,199.333 71.991,199.333 72.179 C 199.333 72.251,199.169 72.363,198.968 72.427 C 198.767 72.491,198.148 72.815,197.593 73.149 C 197.038 73.482,196.377 73.860,196.125 73.989 C 195.543 74.286,195.528 74.846,196.078 75.750 C 196.301 76.117,196.874 77.185,197.351 78.125 C 198.325 80.044,198.332 80.048,199.348 79.268 C 199.752 78.957,200.758 78.346,201.583 77.909 C 202.408 77.472,203.121 77.067,203.167 77.009 C 203.634 76.414,209.361 74.667,210.844 74.667 C 211.113 74.667,211.333 74.592,211.333 74.500 C 211.333 74.287,214.730 74.276,215.127 74.488 C 215.286 74.573,216.017 74.755,216.750 74.893 C 220.482 75.594,223.662 78.479,224.520 81.940 C 224.630 82.386,224.781 82.790,224.855 82.840 C 225.090 82.997,225.354 86.019,225.301 87.939 L 225.250 89.795 224.167 89.473 C 223.571 89.296,222.933 89.083,222.750 88.998 C 219.077 87.307,207.123 87.308,203.417 88.999 C 202.958 89.209,202.103 89.561,201.515 89.782 C 200.289 90.243,199.000 90.961,199.000 91.183 C 199.000 91.265,198.932 91.315,198.850 91.292 C 198.431 91.175,195.823 93.553,195.011 94.791 C 194.545 95.502,194.090 96.174,193.999 96.284 C 191.870 98.874,192.403 106.095,195.009 109.955 C 195.279 110.356,195.500 110.738,195.500 110.805 C 195.500 111.438,199.683 114.675,201.167 115.192 C 201.488 115.303,201.840 115.484,201.950 115.593 C 202.599 116.240,207.228 116.929,209.750 116.754 C 212.504 116.564,216.246 115.879,216.499 115.519 C 216.545 115.452,217.071 115.224,217.667 115.011 C 219.223 114.454,221.158 113.447,221.822 112.849 C 222.136 112.565,222.487 112.333,222.602 112.333 C 222.717 112.333,223.594 111.562,224.551 110.619 L 226.291 108.904 226.400 110.410 C 226.741 115.086,229.156 116.741,234.708 116.103 L 235.833 115.973 235.833 112.443 L 235.833 108.912 235.042 108.622 C 233.326 107.996,233.333 108.055,233.333 95.007 C 233.333 81.729,233.311 81.528,231.403 77.565 C 230.912 76.547,230.284 75.470,230.006 75.173 C 229.728 74.875,229.500 74.576,229.500 74.509 C 229.500 74.404,227.775 72.739,227.000 72.096 C 226.016 71.280,223.193 69.833,222.582 69.833 C 222.445 69.833,222.333 69.768,222.333 69.689 C 222.333 69.513,220.910 69.111,219.000 68.749 C 217.643 68.491,212.613 68.282,211.333 68.430 M289.333 68.442 C 287.129 68.652,284.000 69.321,283.576 69.673 C 283.474 69.757,282.871 70.021,282.237 70.259 C 280.797 70.797,279.219 71.670,277.982 72.610 C 277.459 73.008,276.964 73.333,276.882 73.333 C 276.628 73.333,273.692 76.300,273.245 77.009 C 273.012 77.377,272.571 77.957,272.266 78.298 C 269.010 81.924,267.142 91.460,268.453 97.758 C 268.885 99.832,269.638 102.333,269.830 102.333 C 269.910 102.333,270.063 102.615,270.172 102.958 C 270.413 103.718,271.796 106.352,272.076 106.583 C 272.186 106.675,272.606 107.233,273.008 107.823 C 273.709 108.852,276.597 111.833,276.893 111.833 C 277.022 111.833,278.297 112.765,278.500 113.008 C 278.703 113.250,281.189 114.514,282.237 114.907 C 282.871 115.145,283.471 115.403,283.570 115.480 C 284.789 116.428,292.121 117.058,295.731 116.524 C 297.401 116.278,299.705 115.707,299.827 115.511 C 299.878 115.428,300.144 115.306,300.418 115.240 C 301.178 115.057,304.435 113.576,304.956 113.176 C 305.209 112.982,305.945 112.431,306.590 111.953 C 308.827 110.295,311.217 107.438,311.931 105.569 C 312.286 104.639,312.432 104.743,309.810 104.059 C 308.591 103.740,307.516 103.420,307.422 103.347 C 307.209 103.183,305.803 102.833,305.356 102.833 C 305.126 102.833,304.967 103.011,304.833 103.417 C 304.441 104.606,303.195 106.082,301.583 107.266 C 301.033 107.670,300.499 108.070,300.397 108.153 C 299.686 108.734,297.413 109.616,295.468 110.066 C 289.871 111.361,283.710 109.221,280.417 104.837 C 280.050 104.349,279.637 103.829,279.500 103.682 C 278.812 102.949,277.167 99.045,277.167 98.148 C 277.167 97.975,277.097 97.833,277.012 97.833 C 276.927 97.833,276.808 97.402,276.748 96.875 C 276.688 96.348,276.603 95.785,276.558 95.625 C 276.482 95.348,277.478 95.333,295.801 95.333 L 315.125 95.333 315.229 94.813 C 315.514 93.387,315.189 87.498,314.817 87.361 C 314.734 87.331,314.667 87.143,314.667 86.944 C 314.666 85.992,312.917 80.762,312.514 80.506 C 312.436 80.457,312.131 79.955,311.835 79.390 C 310.680 77.182,306.291 72.500,305.375 72.500 C 305.292 72.500,305.054 72.318,304.845 72.096 C 304.449 71.674,301.903 70.371,300.750 70.000 C 300.383 69.882,300.042 69.722,299.991 69.644 C 299.513 68.913,292.590 68.132,289.333 68.442 M347.917 68.429 C 345.457 68.773,344.755 68.899,343.667 69.196 C 342.979 69.383,342.336 69.601,342.237 69.681 C 342.138 69.761,341.575 70.009,340.987 70.231 C 339.765 70.692,337.665 71.765,337.417 72.055 C 337.145 72.372,336.035 73.167,335.863 73.167 C 335.548 73.167,332.555 76.309,332.003 77.221 C 331.006 78.865,331.000 78.843,331.000 73.745 L 331.000 69.167 327.333 69.167 L 323.667 69.167 323.667 92.583 L 323.667 116.000 327.750 116.000 L 331.833 116.000 331.835 102.042 C 331.838 86.464,331.769 87.453,333.024 84.985 C 333.598 83.857,335.909 80.667,336.152 80.667 C 336.227 80.667,336.729 80.255,337.269 79.751 C 337.808 79.248,338.304 78.835,338.369 78.835 C 338.435 78.834,338.947 78.537,339.506 78.176 C 340.066 77.814,340.781 77.433,341.095 77.329 C 341.410 77.226,341.667 77.074,341.667 76.992 C 341.667 76.911,342.291 76.654,343.053 76.421 C 348.284 74.826,352.426 76.115,354.269 79.912 C 354.579 80.551,354.833 81.170,354.833 81.287 C 354.833 81.404,354.894 81.500,354.968 81.500 C 355.127 81.500,355.417 82.575,355.782 84.521 C 356.005 85.705,356.055 88.201,356.117 100.958 L 356.189 116.000 360.178 116.000 L 364.167 116.000 364.167 100.243 C 364.167 84.605,364.116 82.862,363.576 79.942 C 363.280 78.339,362.552 75.914,362.282 75.628 C 362.173 75.512,361.824 74.892,361.507 74.250 C 360.815 72.850,358.822 70.763,357.625 70.186 C 357.190 69.975,356.833 69.743,356.833 69.668 C 356.833 68.977,350.397 68.083,347.917 68.429 M295.583 75.078 C 297.270 75.485,299.410 76.373,300.174 76.983 C 300.358 77.130,301.092 77.700,301.804 78.250 C 302.517 78.800,303.263 79.475,303.462 79.750 C 305.772 82.942,306.674 84.811,307.118 87.331 C 307.256 88.112,307.436 88.881,307.519 89.042 C 307.662 89.318,306.869 89.333,291.988 89.333 L 276.307 89.333 276.392 88.875 C 276.439 88.623,276.568 87.892,276.680 87.250 C 276.791 86.608,276.935 86.046,277.000 86.000 C 277.065 85.954,277.252 85.504,277.416 85.000 C 277.747 83.980,279.080 81.231,279.286 81.141 C 279.359 81.109,279.805 80.593,280.279 79.994 C 280.752 79.395,281.614 78.539,282.194 78.092 C 282.775 77.645,283.325 77.195,283.417 77.091 C 285.014 75.283,291.789 74.163,295.583 75.078 M217.208 92.915 C 219.507 93.184,221.865 93.627,222.000 93.814 C 222.046 93.879,222.818 94.153,223.716 94.424 L 225.350 94.917 225.300 98.667 L 225.250 102.417 224.709 103.294 C 219.448 111.816,205.801 113.094,201.554 105.462 C 200.329 103.260,200.150 99.589,201.210 98.410 C 201.324 98.283,201.754 97.697,202.167 97.107 C 202.941 96.001,204.828 94.604,206.169 94.144 C 206.489 94.035,206.791 93.883,206.842 93.808 C 207.402 92.971,213.328 92.461,217.208 92.915 " stroke="none" fill-rule="evenodd"></path>
    <path id="path1" d="" stroke="none" fill-rule="evenodd"></path>
    <path id="path2" d="" stroke="none" fill-rule="evenodd"></path>
    <path id="path3" d="" stroke="none" fill-rule="evenodd"></path>
    <path id="path4" d="" stroke="none" fill-rule="evenodd"></path>
  </g>
</svg>
