<svg xmlns="http://www.w3.org/2000/svg" width="99" height="78" viewBox="0 0 99 78"><defs><style>.a{fill:#0a8ea0;}</style></defs><path class="a" d="M22.367,24.053c-.206-.129-5.141-3.145-13.224-1.626A1.36,1.36,0,0,0,8,23.736v1.428a1.424,1.424,0,0,0,2.843,0v-.3a18.815,18.815,0,0,1,7,.309,11.52,11.52,0,0,1,2.95,1.108,1.481,1.481,0,0,0,.781.221,1.447,1.447,0,0,0,1.184-.6A1.287,1.287,0,0,0,22.367,24.053Z" transform="translate(4 11)"/><path class="a" d="M36.5,52.127l-7.445-2.762a1.657,1.657,0,0,1-1.081-1.543V44.107q.479-.377.924-.8a12.128,12.128,0,0,0,3.772-8.82V31.728l.419-.829a10.7,10.7,0,0,0,1.146-4.8V17.449A1.457,1.457,0,0,0,32.774,16H16.462a10.158,10.158,0,0,0-10.2,10.1,10.7,10.7,0,0,0,1.146,4.8l.419.829v2.3a12.9,12.9,0,0,0,4.7,9.939v3.854a1.656,1.656,0,0,1-1.081,1.543L4,52.127a6.126,6.126,0,0,0-4,5.707V68.551A1.457,1.457,0,0,0,1.465,70a1.457,1.457,0,0,0,1.465-1.449V57.833a3.213,3.213,0,0,1,2.1-2.993l7.445-2.761a4.566,4.566,0,0,0,1.11-.6l5.2,3.861V68.551a1.465,1.465,0,0,0,2.929,0V55.338l5.2-3.861a4.562,4.562,0,0,0,1.11.6l7.444,2.762a3.213,3.213,0,0,1,2.1,2.993V68.551a1.465,1.465,0,0,0,2.929,0V57.833A6.125,6.125,0,0,0,36.5,52.127ZM20.25,52.8l-4.988-3.7a4.448,4.448,0,0,0,.191-1.28V45.769a11.9,11.9,0,0,0,4.416,1q.193.006.386.006a12.5,12.5,0,0,0,4.793-.948v2a4.448,4.448,0,0,0,.191,1.28Zm6.611-11.58a9.478,9.478,0,0,1-6.9,2.647,9.745,9.745,0,0,1-9.2-9.841V31.385a1.435,1.435,0,0,0-.155-.648L10.028,29.6a7.817,7.817,0,0,1-.837-3.513A7.24,7.24,0,0,1,16.462,18.9H31.309v7.2a7.812,7.812,0,0,1-.837,3.507L29.9,30.738a1.434,1.434,0,0,0-.155.648v3.1A9.268,9.268,0,0,1,26.861,41.223Z" transform="translate(0 8)"/><path class="a" d="M6.5,45A1.466,1.466,0,0,0,5,46.43V54.07A1.466,1.466,0,0,0,6.5,55.5,1.466,1.466,0,0,0,8,54.07V46.43A1.466,1.466,0,0,0,6.5,45Z" transform="translate(2.5 22.5)"/><path class="a" d="M21.5,45A1.466,1.466,0,0,0,20,46.43V54.07a1.5,1.5,0,0,0,3,0V46.43A1.466,1.466,0,0,0,21.5,45Z" transform="translate(10 22.5)"/><path class="a" d="M89.423,0H14.577A4.608,4.608,0,0,0,10,4.627V18.813a1.459,1.459,0,1,0,2.918,0V4.627a1.67,1.67,0,0,1,1.66-1.678H89.422a1.671,1.671,0,0,1,1.66,1.678V61.373a1.671,1.671,0,0,1-1.66,1.678h-49.9a1.475,1.475,0,0,0,0,2.95h49.9A4.608,4.608,0,0,0,94,61.373V4.627A4.608,4.608,0,0,0,89.423,0Z" transform="translate(5)"/><path class="a" d="M77.052,43.571H75.406V7.465A1.456,1.456,0,0,0,73.958,6H67.769a1.456,1.456,0,0,0-1.448,1.465V43.571H63.028V19.988a1.456,1.456,0,0,0-1.448-1.465H55.392a1.456,1.456,0,0,0-1.448,1.465V43.571H50.651V13.726A1.456,1.456,0,0,0,49.2,12.262H43.014a1.456,1.456,0,0,0-1.448,1.465V43.571H38.273V26.25a1.456,1.456,0,0,0-1.447-1.465H30.636a1.456,1.456,0,0,0-1.448,1.465V43.571H24.448a1.465,1.465,0,0,0,0,2.929h52.6a1.465,1.465,0,0,0,0-2.929Zm-41.675,0H32.083V27.715h3.294Zm12.378,0H44.461V15.191h3.294Zm12.378,0H56.839V21.453h3.294Zm12.378,0H69.217V8.929H72.51Z" transform="translate(11.5 3)"/><path class="a" d="M57.55,36h-3.1a1.5,1.5,0,0,0,0,3h3.1a1.5,1.5,0,0,0,0-3Z" transform="translate(26.5 18)"/><path class="a" d="M40.55,36h-3.1a1.5,1.5,0,0,0,0,3h3.1a1.5,1.5,0,0,0,0-3Z" transform="translate(18 18)"/><path class="a" d="M48.55,36h-3.1a1.5,1.5,0,0,0,0,3h3.1a1.5,1.5,0,0,0,0-3Z" transform="translate(22 18)"/><path class="a" d="M32.55,36h-3.1a1.5,1.5,0,0,0,0,3h3.1a1.5,1.5,0,0,0,0-3Z" transform="translate(14 18)"/></svg>