<svg xmlns="http://www.w3.org/2000/svg" width="87" height="78" viewBox="0 0 87 78"><defs><style>.a{fill:#f85a40;}</style></defs><path class="a" d="M15.81,28.722C12.912,27.02,7.478,27,7.248,27a1.485,1.485,0,0,0,0,2.933c1.4,0,5.479.257,7.446,1.412a1.093,1.093,0,0,0,.557.155,1.243,1.243,0,0,0,1.117-.811A1.594,1.594,0,0,0,15.81,28.722Z" transform="translate(3 13.5)"/><path class="a" d="M5.5,44A1.4,1.4,0,0,0,4,45.266v9.469A1.4,1.4,0,0,0,5.5,56,1.4,1.4,0,0,0,7,54.734V45.266A1.4,1.4,0,0,0,5.5,44Z" transform="translate(2 22)"/><path class="a" d="M48.284,25.007l.824-.8a1.3,1.3,0,0,0,.048-1.81,1.239,1.239,0,0,0-1.776-.049L22.649,46.241a1.409,1.409,0,0,1-.984.4h-.27a1.445,1.445,0,0,1-1.429-1.457c0-.021,0-.183,0-.4a9.5,9.5,0,0,0,4.026-7.817V34.535l.5-1.022a8.3,8.3,0,0,0,.841-3.634v-6.6A1.269,1.269,0,0,0,24.079,22H12a8.058,8.058,0,0,0-7.969,8.126V30.2a6.9,6.9,0,0,0,.7,3.022l.643,1.311v2.091A10.054,10.054,0,0,0,9.4,44.7v1.153a1.46,1.46,0,0,1-1.036,1.4l-4.529,1.32A5.4,5.4,0,0,0,0,53.758V65.719A1.269,1.269,0,0,0,1.256,67a1.269,1.269,0,0,0,1.256-1.281V53.758a2.831,2.831,0,0,1,2.01-2.718l4.529-1.32a3.861,3.861,0,0,0,1.086-.514l.807.824a5.218,5.218,0,0,0,7.472,0l1.18-1.2c.015-.015.028-.032.042-.047a3.855,3.855,0,0,0,1.755.422h.27a3.884,3.884,0,0,0,2.713-1.1L42.015,31.062l1.767,1.8L23.421,53.627A6.78,6.78,0,0,0,21.48,58.4v7.315a1.256,1.256,0,1,0,2.512,0V58.4a4.21,4.21,0,0,1,1.2-2.966l22.86-23.31a4.093,4.093,0,0,0,1.037-3.817ZM17.821,47.017l-1.18,1.2a2.737,2.737,0,0,1-3.919,0l-1.031-1.051a4.058,4.058,0,0,0,.213-1.158,8.661,8.661,0,0,0,2.492.45q.145,0,.289,0a9.159,9.159,0,0,0,2.852-.454,4.034,4.034,0,0,0,.33.963C17.851,46.989,17.836,47,17.821,47.017Zm1.595-5.07A6.682,6.682,0,0,1,14.471,43.9a7.11,7.11,0,0,1-6.589-7.274V34.233a1.3,1.3,0,0,0-.133-.573l-.776-1.582A4.284,4.284,0,0,1,6.54,30.2v-.076A5.517,5.517,0,0,1,12,24.562H22.823v5.317a5.681,5.681,0,0,1-.576,2.488l-.634,1.293a1.3,1.3,0,0,0-.133.573V36.97A6.946,6.946,0,0,1,19.416,41.946Zm26.865-11.63-.722.736L43.84,29.3l2.35-2.27.467,1.9A1.484,1.484,0,0,1,46.281,30.316Z" transform="translate(0 11)"/><path class="a" d="M71.047,0H27.953A3.985,3.985,0,0,0,24,4.007V38.641a1.26,1.26,0,1,0,2.52,0V4.007a1.445,1.445,0,0,1,1.433-1.453H71.047A1.445,1.445,0,0,1,72.48,4.007V39.493a1.445,1.445,0,0,1-1.433,1.453H42.241a1.277,1.277,0,0,0,0,2.554H71.047A3.985,3.985,0,0,0,75,39.493V4.007A3.985,3.985,0,0,0,71.047,0Z" transform="translate(12)"/><path class="a" d="M64.241,5H57.514a1.256,1.256,0,1,0,0,2.513H61.2L47.423,21.266,41.586,15.44a1.261,1.261,0,0,0-1.78,0L28.369,26.855a1.258,1.258,0,0,0,1.781,1.777L40.7,18.106l5.837,5.826a1.26,1.26,0,0,0,1.78,0L62.982,9.29v3.681a1.259,1.259,0,0,0,2.518,0V6.256A1.258,1.258,0,0,0,64.241,5Z" transform="translate(14 2.5)"/></svg>