<svg xmlns="http://www.w3.org/2000/svg" width="105.938" height="77.588" viewBox="0 0 105.938 77.588"><defs><style>.a{fill:#f85a40;}</style></defs><path class="a" d="M66.546,23.713C62.84,22.02,55.89,22,55.6,22a1.464,1.464,0,1,0,0,2.917c1.793,0,7,.253,9.523,1.406a1.712,1.712,0,0,0,.712.154,1.619,1.619,0,0,0,1.429-.806A1.4,1.4,0,0,0,66.546,23.713Z" transform="translate(26.572 10.826)"/><path class="a" d="M101.2,56.968l-6.409-1.827a.649.649,0,0,1-.47-.622V52.385a11.661,11.661,0,0,0,1.484-1.214A11.376,11.376,0,0,0,99.3,42.932V39.987l.62-1.236a9.858,9.858,0,0,0,1.04-4.394V26.378a1.55,1.55,0,0,0-1.552-1.548H84.475a9.848,9.848,0,0,0-9.848,9.825v.092a8.2,8.2,0,0,0,.865,3.653l.795,1.586v2.529a12.071,12.071,0,0,0,4.978,9.767v2.237c0,.345,0,.488-1.281.853l-3.127.891-9.046-3.282a1.544,1.544,0,0,0-.423-1.185L64.5,48.767V43.68c.306-.251.607-.509.9-.782a18.151,18.151,0,0,0,5.738-13.209V25.627A17.861,17.861,0,0,0,72.792,18.1V1.548A1.55,1.55,0,0,0,71.24,0H48.011A14.825,14.825,0,0,0,33.185,14.791V18.1a17.858,17.858,0,0,0,1.659,7.526v3.5a18.9,18.9,0,0,0,6.637,14.439v5.206L38.59,51.8a1.544,1.544,0,0,0-.423,1.185L28.62,56.446a8.149,8.149,0,0,0-1.919,1L25.2,56.7c4.463-1.938,5.877-4.664,5.945-4.8a1.545,1.545,0,0,0,0-1.385c-1.119-2.232-1.254-6.324-1.363-9.611-.036-1.094-.071-2.128-.136-3.049C29.118,30.43,23.46,24.83,16.485,24.83S3.851,30.43,3.322,37.856c-.066.921-.1,1.955-.136,3.05-.109,3.287-.245,7.378-1.363,9.611a1.544,1.544,0,0,0,0,1.385c.068.135,1.479,2.856,5.951,4.8L3.609,58.774A6.479,6.479,0,0,0,0,64.6V76.039a1.552,1.552,0,0,0,3.1,0V64.6A3.4,3.4,0,0,1,5,61.544l5.186-2.587,1.8,1.71a6.538,6.538,0,0,0,9,0l1.8-1.71,1.691.843a8.138,8.138,0,0,0-1.248,4.323V76.039a1.552,1.552,0,0,0,3.1,0V64.124a5.089,5.089,0,0,1,3.347-4.768L39.747,55.7l4.191,6.271a3.2,3.2,0,0,0,2.355,1.411q.161.016.32.016a3.2,3.2,0,0,0,2.267-.938l2.557-2.551V76.04a1.552,1.552,0,0,0,3.1,0V59.913L57.1,62.464a3.2,3.2,0,0,0,2.267.939q.159,0,.32-.016a3.2,3.2,0,0,0,2.356-1.411L66.23,55.7,76.3,59.356a5.09,5.09,0,0,1,3.347,4.768V76.04a1.552,1.552,0,0,0,3.1,0V64.124a8.174,8.174,0,0,0-2.3-5.664l.383-.109a8.516,8.516,0,0,0,1.444-.52l3.962,3.953V76.04a1.552,1.552,0,0,0,3.1,0V61.783l3.935-3.925a3.7,3.7,0,0,0,.66.262l6.409,1.827a3.434,3.434,0,0,1,2.485,3.286V76.04a1.552,1.552,0,0,0,3.1,0V63.232A6.545,6.545,0,0,0,101.2,56.968ZM9.955,54.233a11.158,11.158,0,0,1-4.98-3.19,17.031,17.031,0,0,0,.885-3.707,11.55,11.55,0,0,0,4.1,5.042Zm8.89,4.19a3.43,3.43,0,0,1-4.72,0l-1.443-1.368a3.2,3.2,0,0,0,.377-1.512v-1.65a11.563,11.563,0,0,0,6.852,0v1.649a3.2,3.2,0,0,0,.377,1.512Zm-2.36-7.107a8.4,8.4,0,0,1-8.4-8.384,1.543,1.543,0,0,0-1.807-1.526c0-.133.009-.266.013-.4.035-1.064.068-2.07.129-2.932a11.482,11.482,0,0,1,3.137-7.218,9.658,9.658,0,0,1,13.859,0,11.482,11.482,0,0,1,3.137,7.218c.061.862.095,1.867.13,2.932,0,.091.006.184.009.276A13.941,13.941,0,0,0,19.027,35.7a19.516,19.516,0,0,0-5.9-.933,1.554,1.554,0,0,0-1.074.473l-2.8,2.9a1.55,1.55,0,0,0,2.234,2.149l2.33-2.41c2.006.1,8.461.847,10.972,6.362A8.377,8.377,0,0,1,16.486,51.316Zm6.529,2.922V52.392a11.456,11.456,0,0,0,4.1-5.047,17.019,17.019,0,0,0,.883,3.7A11.21,11.21,0,0,1,23.014,54.239ZM37.948,29.122V25.281a1.545,1.545,0,0,0-.154-.673,14.822,14.822,0,0,1-1.5-6.506V14.791A11.722,11.722,0,0,1,48.011,3.1H69.688V18.1a14.823,14.823,0,0,1-1.5,6.506,1.545,1.545,0,0,0-.154.673v4.408a14.846,14.846,0,0,1-4.757,10.95,15.438,15.438,0,0,1-1.191,1.006l-.027.019a14.946,14.946,0,0,1-10.07,3C44.113,44.154,37.948,37.328,37.948,29.122Zm8.738,31.152a.108.108,0,0,1-.165-.017l-4.826-7.222,1.553-1.628L50.568,56.4Zm6.3-5.975-8.4-5.731v-2.89a17.5,17.5,0,0,0,7.2,2.073q.614.04,1.221.04a18.009,18.009,0,0,0,8.388-2.051v2.828Zm6.468,5.958a.1.1,0,0,1-.079.047.1.1,0,0,1-.087-.031L55.408,56.4l7.321-4.993,1.553,1.628Zm28.336-1.306-3.522-3.513a4.231,4.231,0,0,0,.1-.92v-.653a10.906,10.906,0,0,0,3.073.542c.12,0,.238.005.357.005a11.553,11.553,0,0,0,3.421-.516v.623a3.691,3.691,0,0,0,.112.9Zm5.852-10a8.351,8.351,0,0,1-6.111,2.363,8.675,8.675,0,0,1-8.144-8.8V39.622a1.545,1.545,0,0,0-.164-.692l-.959-1.913a5.09,5.09,0,0,1-.537-2.269v-.092a6.744,6.744,0,0,1,6.744-6.729H97.856v6.43a6.751,6.751,0,0,1-.712,3.009l-.783,1.563a1.546,1.546,0,0,0-.164.692v3.311A8.308,8.308,0,0,1,93.645,48.949Z"/><path class="a" d="M65.492,43A1.547,1.547,0,0,0,64,44.6V54.833a1.5,1.5,0,1,0,2.984,0V44.6A1.547,1.547,0,0,0,65.492,43Z" transform="translate(31.493 21.159)"/><path class="a" d="M5.492,45A1.482,1.482,0,0,0,4,46.472v7.5a1.492,1.492,0,0,0,2.984,0v-7.5A1.483,1.483,0,0,0,5.492,45Z" transform="translate(1.968 22.143)"/><path class="a" d="M53.394,13.627c-5.986-5.893-18.51-4.766-23.618-4.008A3.215,3.215,0,0,0,27,12.805v3.589a1.583,1.583,0,0,0,3.165,0V12.8a.1.1,0,0,1,.083-.105,50.776,50.776,0,0,1,10.283-.494c4.935.323,8.51,1.543,10.625,3.625a1.6,1.6,0,0,0,2.238,0A1.541,1.541,0,0,0,53.394,13.627Z" transform="translate(13.286 4.429)"/><path class="a" d="M23.492,45A1.585,1.585,0,0,0,22,46.664v7.117a1.5,1.5,0,1,0,2.984,0V46.664A1.585,1.585,0,0,0,23.492,45Z" transform="translate(10.826 22.143)"/><path class="a" d="M48.492,45A1.585,1.585,0,0,0,47,46.664v7.117a1.5,1.5,0,1,0,2.984,0V46.664A1.585,1.585,0,0,0,48.492,45Z" transform="translate(23.128 22.143)"/></svg>